<svg viewBox="0 0 1024 1024"><!-- a black ladder --><path d="M21.9 979.2c-1 0-2-0.2-3-0.5-4.7-1.7-7.1-6.8-5.5-11.5l212-600.8c1.7-4.7 6.8-7.1 11.5-5.5 4.7 1.7 7.1 6.8 5.5 11.5l-212 600.8c-1.3 3.7-4.8 6-8.5 6zM612.9 979.2c-3.7 0-7.2-2.3-8.5-6l-212-600.8c-1.7-4.7 0.8-9.8 5.5-11.5 4.7-1.7 9.8 0.8 11.5 5.5l212 600.8c1.7 4.7-0.8 9.8-5.5 11.5-1 0.3-2 0.5-3 0.5z" fill="#3E4152" /><path d="M558 847.3H76.9c-5 0-9-4-9-9s4-9 9-9H558c5 0 9 4 9 9s-4.1 9-9 9zM494.6 647H140.2c-5 0-9-4-9-9s4-9 9-9h354.3c5 0 9 4 9 9s-3.9 9-8.9 9zM435.2 500.5H199.6c-5 0-9-4-9-9s4-9 9-9h235.7c5 0 9 4 9 9s-4.1 9-9.1 9z" fill="#3E4152" /></svg>