<svg viewBox="0 0 1024 1024"><!-- a blue phone --><path d="M701.19 677.09c-53.93 0-148.61-36.12-180.54-50.04-17.14-7.45-37.04-0.88-46.34 15.3l-62.8 109.34c-63.61-43-117.2-99.73-156.48-165.89l112.46-56.23c16.75-8.38 24.46-28.07 17.88-45.61-10.96-29.11-39.43-115-39.43-162.12 0-10.82 0.23-18.68 1.2-29.27 0.93-10.23-2.5-20.38-9.43-27.96a36.528 36.528 0 0 0-27-11.91l-163.66-0.02c-19.38 0-35.39 15.11-36.52 34.46-0.66 11.48-1 23.04-1 34.7 0 215.18 115.46 403.89 287.71 507.45a36.663 36.663 0 0 0 17.68 10.21c84.88 47.14 182.48 73.98 286.27 73.98 20.2 0 36.57-16.38 36.57-36.57V713.66c0-20.2-16.38-36.57-36.57-36.57z m-518.5-351.27l90.14 0.02c1.04 48.48 20.29 114.07 33.12 152.71l-83.75 41.88c-24.98-60.04-39-125.75-39.51-194.61z m481.93 513.25c-67.62-4.73-131.71-22.5-189.77-50.79l47-81.84c34.34 13.25 91.91 33.29 142.77 40.8v91.83z" fill="#0F1F3C" /></svg>