<svg viewBox="0 0 1024 1024"><!-- a black and white person --><path d="M450.4 488a68.8 68.8 0 1 0 137.6 0 68.8 68.8 0 1 0-137.6 0Z" fill="#FFFFFF" /><path d="M519.2 387.2c-56 0-100.8 44.8-100.8 100.8s44.8 100.8 100.8 100.8S620 544 620 488s-44.8-100.8-100.8-100.8z m0 169.6c-38.4 0-68.8-30.4-68.8-68.8s30.4-68.8 68.8-68.8S588 449.6 588 488s-30.4 68.8-68.8 68.8z" fill="" /><path d="M642.4 752c-14.4-62.4-64-108.8-123.2-108.8S410.4 689.6 396 752h246.4z" fill="#FFFFFF" /><path d="M519.2 611.2c-86.4 0-156.8 76.8-160 172.8h318.4c-1.6-96-72-172.8-158.4-172.8z m0 32c59.2 0 108.8 46.4 123.2 108.8H396c14.4-62.4 64-108.8 123.2-108.8z" fill="" /></svg>