<svg viewBox="0 0 1024 1024"><!-- a blue question mark  --><path d="M465.066667 631.466667c0-140.8 108.8-132.266667 108.8-217.6 0-21.333333-6.4-64-61.866667-64-59.733333 0-64 49.066667-64 59.733333h-81.066667c0-21.333333 8.533333-128 145.066667-128 138.666667 0 142.933333 108.8 142.933333 128 0 104.533333-115.2 119.466667-115.2 219.733333h-74.666666z m-6.4 104.533333c0-6.4 2.133333-44.8 44.8-44.8s46.933333 38.4 46.933333 44.8c0 12.8-6.4 42.666667-46.933333 42.666667-38.4 0-44.8-29.866667-44.8-42.666667z" fill="#0277BD" /></svg>