<svg viewBox="0 0 1024 1024"><!-- a black star in red ribbon --><path d="M108.8 108.8h806.4v143.168H108.8z" fill="#FF7B52" /><path d="M141.312 158.656h41.344v41.344h-41.344zM205.312 158.656h41.344v41.344h-41.344zM269.312 158.656h41.344v41.344h-41.344z" fill="#FFFFFF" /><path d="M937.6 64H86.4a22.528 22.528 0 0 0-22.4 22.4v851.2c0 12.352 10.112 22.4 22.4 22.4h851.2c12.288 0 22.4-10.048 22.4-22.4V516.992a22.4 22.4 0 0 0-44.864 0V915.2H108.8V296.832h806.4v99.2h0.192a22.272 22.272 0 0 0 44.48 0H960V86.4a22.464 22.464 0 0 0-22.4-22.4zM108.8 252.032V108.8h806.4v143.168H108.8z" fill="" /></svg>