<svg viewBox="0 0 1024 1024"><!-- a blue mountain --><path d="M512 98.23L104.84 925.77h814.32L512 98.23z" fill="#3B5174" /><path d="M512 98.23L367.43 392.06l88.04-53.75 15.96 49.9 17.97-31.93 23.95 49.9 29.94-71.86 43.91 61.88 13.97-41.92 61.86 50.92L512 98.23z" fill="#9BBACE" /><!-- snowflakes --><path d="M430.02 539.4m-25.45 0a25.45 25.45 0 1 0 50.9 0 25.45 25.45 0 1 0-50.9 0Z" fill="#FFFFFF" /><path d="M600.88 496.54m-25.45 0a25.45 25.45 0 1 0 50.9 0 25.45 25.45 0 1 0-50.9 0Z" fill="#FFFFFF" /><path d="M523.55 689.29m-25.45 0a25.45 25.45 0 1 0 50.9 0 25.45 25.45 0 1 0-50.9 0Z" fill="#FFFFFF" /><path d="M259.77 775.3m-25.45 0a25.45 25.45 0 1 0 50.9 0 25.45 25.45 0 1 0-50.9 0Z" fill="#FFFFFF" /><path d="M414.63 844.23m-25.45 0a25.45 25.45 0 1 0 50.9 0 25.45 25.45 0 1 0-50.9 0Z" fill="#FFFFFF" /><path d="M720.33 754m-25.45 0a25.45 25.45 0 1 0 50.9 0 25.45 25.45 0 1 0-50.9 0Z" fill="#FFFFFF" /></svg>