<svg viewBox="0 0 1024 1024"><!-- a brown tree --><path d="M461.38 391.42l102.27 0 0 564.69-102.27 0 0-564.69Z" fill="#936969" /><path d="M439.554082 164.520349l56.400501-5.520179 27.711942 283.137084-56.400501 5.520179-27.711942-283.137084Z" fill="#936969" /><path d="M267.043388 417.709201l40.071742-40.071741 211.198653 211.198653-40.071741 40.071741-211.198654-211.198653Z" fill="#936969" /><path d="M538.332201 720.053612l-40.071741-40.071742 211.198653-211.198653 40.071741 40.071741-211.198653 211.198654Z" fill="#936969" /><path d="M613.190854 216.21899l50.12459 26.43888-128.541382 243.697319-50.12459-26.43888 128.541382-243.697319Z" fill="#936969" /><path d="M697.789262 264.46526l17.881051 29.293863-142.432022 86.940877-17.88105-29.293863 142.432021-86.940877Z" fill="#936969" /><path d="M499.257871 315.129966l-24.267905 24.267905-117.994908-117.994908 24.267905-24.267905 117.994908 117.994908Z" fill="#936969" /><path d="M520.08516 701.982468l-17.16 29.721992-144.513659-83.435 17.16-29.721992 144.513659 83.435Z" fill="#936969" /></svg>