<svg viewBox="0 0 1024 1024"><!-- a brown wooden sign --><path d="M275.5 322.8h326.7v131.6H275.5l-109.3-65.8z" fill="#985C15" /><path d="M409.5 323.6h192.7v41.1H409.5zM339.5 413.3h262.7v41.1H339.5z" fill="#753F05" /><path d="M504.1 957.4c-15.5 0-28.2-12.7-28.2-28.2V94.8c0-15.5 12.7-28.2 28.2-28.2s28.2 12.7 28.2 28.2v834.4c0 15.5-12.7 28.2-28.2 28.2z" fill="#B76C1A" /><path d="M475.9 206h56.4v162.2h-56.4zM475.9 409.8h56.4V572h-56.4z" fill="#753F05" /><path d="M748.5 224.1H421.8v131.6h326.7l109.3-65.8z" fill="#F35426" /><path d="M678 425H351.3v131.7H678l109.3-65.9z" fill="#EAAF43" /></svg>