<svg viewBox="0 0 1024 1024"><!-- a dollar bill --><path d="M298.666667 21.333333h426.666666v661.333334H298.666667z" fill="#AED581" /><path d="M277.333333 0v704h469.333334V0H277.333333z m426.666667 661.333333H320V42.666667h384v618.666666z" fill="#558B2F" /><path d="M725.333333 64c0 36.266667-6.4 64-42.666666 64s-64-27.733333-64-64 27.733333-42.666667 64-42.666667 42.666667 6.4 42.666666 42.666667zM341.333333 21.333333c36.266667 0 64 6.4 64 42.666667s-27.733333 64-64 64-42.666667-27.733333-42.666666-64 6.4-42.666667 42.666666-42.666667z" fill="#558B2F" /><path d="M512 170.666667m-42.666667 0a42.666667 42.666667 0 1 0 85.333334 0 42.666667 42.666667 0 1 0-85.333334 0Z" fill="#558B2F" /><path d="M512 426.666667m-128 0a128 128 0 1 0 256 0 128 128 0 1 0-256 0Z" fill="#558B2F" /></svg>