<svg viewBox="0 0 1024 1024"><!-- a glass with yellow liquid --><path d="M256 0v352a256 256 0 0 0 512 0V0H256z" fill="#EAEAEA" /><path d="M608 960h-64V576h-64v384h-64a64 64 0 0 0-64 64h320a64 64 0 0 0-64-64z" fill="#EAEAEA" /><path d="M288 224v128a224 224 0 1 0 448 0V224H288z" fill="#EACA44" /><path d="M320 0h32v224h-32z" fill="#FFFFFF" /><path d="M320 368a16 16 0 0 0 32 0V224h-32v144z" fill="#FFFFFF" /><!-- black curve --><path d="M765.344 386.976C706.816 462.88 615.264 512 512 512s-194.816-49.12-253.344-125.024A255.872 255.872 0 0 0 480 605.792V640h64v-34.208a255.936 255.936 0 0 0 221.344-218.816z" fill="" /></svg>