<svg viewBox="0 0 1024 1024"><!-- a green sofa with white cover --><path d="M640-0.032h-256c-160 0-256 64-256 256v320h768v-320c0-192-96-256-256-256z" fill="#EAEAEA" /><path d="M960 352h-64a64 64 0 0 0-64 64v352H192V416a64 64 0 0 0-64-64H64a64 64 0 0 0-64 64v480a64 64 0 0 0 64 64h896a64 64 0 0 0 64-64V416a64 64 0 0 0-64-64z" fill="#84BF56" /><path d="M64 384h64a64 64 0 0 1 64 64v-32a64 64 0 0 0-64-64H64a64 64 0 0 0-64 64v32a64 64 0 0 1 64-64zM960 352h-64a64 64 0 0 0-64 64v32a64 64 0 0 1 64-64h64a64 64 0 0 1 64 64v-32a64 64 0 0 0-64-64z" fill="#FFFFFF" /><path d="M896 704a64 64 0 0 1-64 64H192a64 64 0 0 1-64-64v-64a64 64 0 0 1 64-64h640a64 64 0 0 1 64 64v64z" fill="#EAEAEA" /><path d="M832 768H192a64 64 0 0 1-64-64v32a64 64 0 0 0 64 64h640a64 64 0 0 0 64-64v-32a64 64 0 0 1-64 64z" fill="" /><path d="M96 960h128v64H96zM800 960h128v64h-128z" fill="#434854" /><path d="M96 960h128v32H96zM800 960h128v32h-128z" fill="" /></svg>