<svg viewBox="0 0 1024 1024"><!-- a green leaf --><path d="M696.459215 415.323263c30.936556-19.335347 55.685801-64.193353 47.951661-119.879154-21.655589-146.94864-141.534743-160.870091-139.214501-167.057402C614.477341 95.903323 592.048338 23.202417 501.558912 17.78852c-98.223565-6.187311-108.277946 119.879154-111.371601 119.879154-13.148036 0-95.129909 36.350453-116.785498 143.081571-21.655589 104.410876 32.483384 139.214502 30.936556 140.761329-10.827795 10.054381-81.981873 83.528701-70.380665 153.909366 11.601208 70.380665 58.779456 134.574018 266.054381 134.574018 0 0 273.78852 4.640483 290.030211-122.97281 17.015106-129.160121-103.637462-165.510574-93.583081-171.697885z" fill="#148d13" /></svg>