<svg viewBox="0 0 1024 1024"><!-- a green square --><path d="M234.510695 141.605388h132.553218c12.769898 0 23.103972-10.344313 23.103972-23.103972s-10.333051-23.103972-23.103972-23.103973H234.510695c-76.441231 0-138.62281 62.18158-138.62281 138.622811v554.491241c0 76.441231 62.18158 138.62281 138.62281 138.62281h132.553218c12.769898 0 23.103972-10.345337 23.103972-23.103972 0-12.758635-10.333051-23.103972-23.103972-23.103973H234.510695c-50.967988 0-92.414866-41.458141-92.414866-92.414865V234.020254c-0.001024-50.956725 41.445854-92.414866 92.414866-92.414866zM789.000912 95.397443H656.447694c-12.769898 0-23.103972 10.344313-23.103972 23.103973s10.333051 23.103972 23.103972 23.103972h132.553218c50.967988 0 92.414866 41.458141 92.414865 92.414866v554.491241c0 50.956725-41.446878 92.414866-92.414865 92.414865H656.447694c-12.769898 0-23.103972 10.344313-23.103972 23.103973 0 12.758635 10.333051 23.103972 23.103972 23.103972h132.553218c76.441231 0 138.62281-62.18158 138.62281-138.62281V234.020254c0-76.441231-62.18158-138.62281-138.62281-138.622811z" fill="#22C67F" /></svg>