<svg viewBox="0 0 1024 1024"><!-- a grey stamp --><path d="M961.4 897c0-0.5 0-1-0.1-1.4l-0.2-79.9c-0.1-24.9-20.3-45.1-45.2-45.1l-114.6 0.3V486h34.5c28.7 0 52-23.3 52-52v-65c0-28.7-23.3-52-52-52H657.5c-28.7 0-52 23.3-52 52v65c0 28.7 23.3 52 52 52h31.6v285.2l-115.9 0.3c-24.9 0.1-45.1 20.4-45.1 45.3l0.2 94.5h0.3l0.1 25.8c0 13.4 11 24.3 24.4 24.2l384.2-1c13.4 0 24.3-11 24.2-24.4l-0.1-38.9zM657.5 446c-6.6 0-12-5.4-12-12v-65c0-6.6 5.4-12 12-12h178.3c6.6 0 12 5.4 12 12v65c0 6.6-5.4 12-12 12H657.5z m71.6 40h32.2v285l-32.2 0.1V486zM573.3 811.5l115.8-0.3v1.8h112.2v-2.1l114.6-0.3c2.9 0 5.2 2.3 5.2 5.2l0.1 54.5-353 0.9-0.1-54.5c0-2.9 2.3-5.2 5.2-5.2z" fill="#666666" /></svg>