<svg viewBox="0 0 1024 1024"><!-- a grey box with star --><path d="M866.1 881.6H205.6c-11.1 0-20-9-20-20v-57.4c0-11.1 9-20 20-20H866c11.1 0 20 9 20 20v57.4c0.1 11.1-8.9 20-19.9 20zM923.1 662.1H153.9c-7.8 0-14.2-6.4-14.2-14.2v-34.4h783.4v48.6z" fill="#CCCCCC" /><path d="M910.2 573.6H114c-27 0-49 22-49 49v120.9c0 24.6 18.3 45.1 42 48.5v112.9c0 30.3 24.7 55 55 55h700.1c30.3 0 55-24.7 55-55V792c23.7-3.4 42-23.8 42-48.5V622.6c0.1-27-21.9-49-48.9-49zM473.7 752.5l43-23.8h0.2l43 23.8h-86.2zM105 622.6c0-4.9 4-9 9-9h398.4l-18.7 39.9-0.1 0.1-51.7 7.9 37.4 38.4s0.1 0.1 0.1 0.2l-8.5 52.4H114c-4.9 0-9-4-9-9V622.6z m772.2 282.3c0 8.3-6.7 15-15 15H162c-8.3 0-15-6.7-15-15V793.6h730.1v111.3h0.1z m42-161.4c0 4.9-4 9-9 9H562.8l-8.5-52.4c0-0.1 0-0.1 0.1-0.2l37.4-38.4-51.7-7.9c-0.1 0-0.1-0.1-0.1-0.1l-18.7-39.9h389.1c4.9 0 9 4 9 9v120.9h-0.2z" fill="#666666" /></svg>