<svg viewBox="0 0 1024 1024"><!-- a green phone with a smiley face --><path d="M374.9 431.7m-29.6 0a29.6 29.6 0 1 0 59.2 0 29.6 29.6 0 1 0-59.2 0Z" fill="#0F0F0F" /><path d="M642.3 431.7m-29.6 0a29.6 29.6 0 1 0 59.2 0 29.6 29.6 0 1 0-59.2 0Z" fill="#0F0F0F" /><path d="M508.6 547.3c-36.1 0-65.5-28.6-65.5-63.8v-20.1c0-7.5 6.1-13.6 13.6-13.6s13.6 6.1 13.6 13.6v20.1c0 20.2 17.2 36.5 38.3 36.5s38.3-16.4 38.3-36.5v-20.1c0-7.5 6.1-13.6 13.6-13.6s13.6 6.1 13.6 13.6v20.1c0 35.1-29.4 63.8-65.5 63.8zM560.5 90.4H456.8c-7.5 0-13.6-6.1-13.6-13.6s6.1-13.6 13.6-13.6h103.7c7.5 0 13.6 6.1 13.6 13.6s-6.1 13.6-13.6 13.6z" fill="#0F0F0F" /></svg>