<svg viewBox="0 0 1024 1024"><!-- a green and white clock --><path d="M362.666667 362.666667m-298.666667 0a298.666667 298.666667 0 1 0 597.333333 0 298.666667 298.666667 0 1 0-597.333333 0Z" fill="#00ACC1" /><path d="M362.666667 362.666667m-234.666667 0a234.666667 234.666667 0 1 0 469.333333 0 234.666667 234.666667 0 1 0-469.333333 0Z" fill="#EEEEEE" /><path d="M341.333333 170.666667h42.666667v192h-42.666667z" fill="" /><path d="M483.306667 447.018667l-36.202667 36.202666-102.570667-102.549333 36.202667-36.202667z" fill="" /><path d="M362.666667 362.666667m-42.666667 0a42.666667 42.666667 0 1 0 85.333333 0 42.666667 42.666667 0 1 0-85.333333 0Z" fill="" /><path d="M362.666667 362.666667m-21.333334 0a21.333333 21.333333 0 1 0 42.666667 0 21.333333 21.333333 0 1 0-42.666667 0Z" fill="#00ACC1" /></svg>