<svg viewBox="0 0 1024 1024"><!-- a green phone with a smiley face --><path d="M696.2 1000.9H321c-46 0-83.3-37.3-83.3-83.3V103.9c0-46 37.3-83.3 83.3-83.3h375.2c46 0 83.3 37.3 83.3 83.3v813.7c0 46.1-37.3 83.3-83.3 83.3z" fill="#9DC6AF" /><path d="M692.2 1014.6H325c-55.6 0-100.9-45.3-100.9-100.9V107.9C224.1 52.3 269.4 7 325 7h367.2c55.6 0 100.9 45.3 100.9 100.9v805.8c0 55.6-45.2 100.9-100.9 100.9zM325 34.3c-40.6 0-73.6 33-73.6 73.6v805.8c0 40.6 33 73.6 73.6 73.6h367.2c40.6 0 73.6-33 73.6-73.6V107.9c0-40.6-33-73.6-73.6-73.6H325z" fill="#191919" /><path d="M237.7 146.1h541.8v672.1H237.7z" fill="#FAFCFB" /><path d="M779.5 831.8H237.7c-7.5 0-13.6-6.1-13.6-13.6V146.1c0-7.5 6.1-13.6 13.6-13.6h541.8c7.5 0 13.6 6.1 13.6 13.6v672.1c0 7.5-6.1 13.6-13.6 13.6z m-528.1-27.2h514.5V159.7H251.4v644.9z" fill="#0F0F0F" /><path d="M508.6 909.2m-37.9 0a37.9 37.9 0 1 0 75.8 0 37.9 37.9 0 1 0-75.8 0Z" fill="#FAFCFB" /><path d="M508.6 960.7c-28.4 0-51.5-23.1-51.5-51.5s23.1-51.5 51.5-51.5 51.5 23.1 51.5 51.5-23.1 51.5-51.5 51.5z m0-75.8c-13.4 0-24.3 10.9-24.3 24.3s10.9 24.3 24.3 24.3 24.3-10.9 24.3-24.3-10.9-24.3-24.3-24.3z" fill="#0F0F0F" /></svg>