<svg viewBox="0 0 1024 1024"><!-- a house with blue windows and brown door --><path d="M512 64L149.333333 386.368V938.666667a42.666667 42.666667 0 0 0 42.666667 42.666666h640a42.666667 42.666667 0 0 0 42.666667-42.666666V386.346667L512 64z" fill="#E6E6E6" /><path d="M597.333333 704h-170.666666a21.333333 21.333333 0 0 0-21.333334 21.333333v256h213.333334V725.333333a21.333333 21.333333 0 0 0-21.333334-21.333333z" fill="#A67C52" /><path d="M597.333333 576h-170.666666a21.333333 21.333333 0 0 1-21.333334-21.333333v-128a21.333333 21.333333 0 0 1 21.333334-21.333334h170.666666a21.333333 21.333333 0 0 1 21.333334 21.333334v128a21.333333 21.333333 0 0 1-21.333334 21.333333z" fill="#43A6DD" /></svg>