<svg viewBox="0 0 1024 1024"><!-- a house --><path d="M99 236.7h830.2v647.1H99z" fill="#C1E7D8" /><path d="M929.2 892.8H99c-5 0-9-4-9-9V236.7c0-5 4-9 9-9h830.2c5 0 9 4 9 9v647.1c0 5-4.1 9-9 9z m-821.2-18h812.2V245.7H108v629.1z" fill="#3E4152" /><path d="M1009 226.8H19.2L65.4 98.7h897.4z" fill="#9B5C77" /><path d="M1009 235.8H19.2c-2.9 0-5.7-1.4-7.4-3.8s-2.1-5.5-1.1-8.2L56.9 95.6c1.3-3.6 4.7-5.9 8.5-5.9h897.4c3.8 0 7.2 2.4 8.5 5.9l46.2 128.1c1 2.8 0.6 5.8-1.1 8.2s-4.5 3.9-7.4 3.9z m-977-18h964.2l-39.7-110.1H71.7L32 217.8z" fill="#3E4152" /><path d="M190.5 364h190.6v201.8H190.5z" fill="#8599A4" /><path d="M381 574.8H190.5c-5 0-9-4-9-9V364c0-5 4-9 9-9H381c5 0 9 4 9 9v201.8c0 5-4 9-9 9z m-181.5-18H372V373H199.5v183.8zM815.9 763.3H190.5c-5 0-9-4-9-9s4-9 9-9h625.4c5 0 9 4 9 9s-4.1 9-9 9z" fill="#3E4152" /></svg>