<svg viewBox="0 0 1024 1024"><!-- a light bulb --><path d="M782.846 415.729c-1.358 149.18-122.483 270.312-271.667 271.67-70.917 0.647-139.41-28.615-190.1-77.594-52.952-51.168-80.902-121.525-81.562-194.074-0.63-69.351-108.23-69.412-107.597 0 1.892 207.848 171.409 377.373 379.259 379.264 207.874 1.893 377.4-174.266 379.265-379.266 0.631-69.412-106.967-69.35-107.598 0z" fill="#4A5699" /><path d="M239.516 397.979C240.874 248.801 362 127.667 511.178 126.31c70.919-0.645 139.416 28.61 190.105 77.592 52.951 51.167 80.902 121.525 81.563 194.074 0.631 69.352 108.229 69.414 107.598 0-1.893-207.851-171.413-377.374-379.266-379.263-207.871-1.89-377.394 174.263-379.259 379.267-0.633 69.41 106.967 69.348 107.597-0.001z" fill="#C45FA0" /><path d="M641.679 784.567H398.433c-26.682 0-48.314 21.633-48.314 48.313v3.333c0 26.685 21.633 48.313 48.314 48.313h243.246c26.684 0 48.316-21.629 48.316-48.313v-3.333c0-26.68-21.633-48.313-48.316-48.313z" fill="#C45FA0" /><path d="M565.04 904.525h-89.965c-26.686 0-48.318 21.63-48.318 48.314v3.333c0 26.68 21.633 48.313 48.318 48.313h89.965c26.687 0 48.319-21.634 48.319-48.313v-3.333c0-26.684-21.632-48.314-48.319-48.314z" fill="#E5594F" /></svg>