<svg viewBox="0 0 1024 1024"><!-- a logo with a square --><path d="M109.72 109.71v804.57h475.43v-73.14h-36.57V548.57h292.57v36.57h73.14V109.71H109.72z m73.15 73.15h292.57v292.57H182.87V182.86z m292.57 658.28H182.87V548.57h292.57v292.57z m365.71-365.71H548.58V182.86h292.57v292.57z" fill="#0F1F3C" /><path d="M624.85 664.52v165.41l143.25 82.71 143.25-82.71V664.52L768.1 581.81l-143.25 82.71z m204.21 15.83l-60.97 35.19-60.96-35.19 60.97-35.2 60.96 35.2z m-149.35 47.51l60.96 35.19v70.4l-60.96-35.19v-70.4z m115.82 105.6v-70.41l60.97-35.19v70.4l-60.97 35.2z" fill="#0F1F3C" /></svg>