<svg viewBox="0 0 1024 1024"><!-- a man in a suit and a star --><path d="M635.2 639h-60.8l-34.5 135.9-9.8-97.6 11.2-26.5c0-6.1-6.1-11.1-13.5-11.1h-26.3c-7.5 0-13.5 5-13.5 11.1l11.2 26.1L489 779.1l-36.2-140h-55.3c-9.6 0-17.5 8.1-17.5 18l-58.3 168.7c0 9.9 7.8 18 17.5 18h354.3c9.6 0 17.5-8.1 17.5-18L652.7 657c-0.1-9.9-8-18-17.5-18z m-25.7 85.7c-13.8 0-25-11.1-25-25s11.1-25 25-25 25 11.1 25 25-11.2 25-25 25zM467.7 240.3l-10.6 65 55.5-30.7h0.2l55.5 30.7-10.6-65c0-0.1 0-0.2 0.1-0.2l44.9-46-62.1-9.5c-0.1 0-0.1-0.1-0.2-0.1l-27.8-59.1-27.6 59c0 0.1-0.1 0.1-0.2 0.1l-62.1 9.5 44.9 46c0.1 0.1 0.2 0.2 0.1 0.3zM165.3 506.3h39.2v52.5h-39.2zM165.3 651.5h39.2V704h-39.2zM823.3 506.3h39.2v52.5h-39.2zM823.3 651.5h39.2V704h-39.2zM515.5 519.1m-93.1 0a93.1 93.1 0 1 0 186.2 0 93.1 93.1 0 1 0-186.2 0Z" fill="#666666" /></svg>