<svg viewBox="0 0 1024 1024"><!-- a magnifying glass with a circle in it --><path d="M474.9 489.3m-140.3 0a140.3 140.3 0 1 0 280.6 0 140.3 140.3 0 1 0-280.6 0Z" fill="#FFB89A" /><path d="M435.1 122.6c42.2 0 83.1 8.3 121.6 24.5 37.2 15.7 70.6 38.3 99.4 67s51.3 62.1 67 99.4c16.3 38.5 24.5 79.4 24.5 121.6 0 42.2-8.3 83.1-24.5 121.6-15.7 37.2-38.3 70.6-67 99.4-28.7 28.7-62.1 51.3-99.4 67-38.5 16.3-79.4 24.5-121.6 24.5s-83.1-8.3-121.6-24.5c-37.2-15.7-70.6-38.3-99.3-67-28.7-28.7-51.3-62.1-67-99.3-16.3-38.5-24.5-79.4-24.5-121.6s8.3-83.1 24.5-121.6c15.7-37.2 38.3-70.6 67-99.4 28.7-28.7 62.1-51.3 99.4-67 38.4-16.3 79.3-24.6 121.5-24.6m0-60c-205.7 0-372.5 166.8-372.5 372.5s166.8 372.5 372.5 372.5 372.5-166.8 372.5-372.5S640.8 62.6 435.1 62.6z" fill="#45484C" /><path d="M906.7 949.4L671.8 714.5c-11.7-11.7-11.7-30.8 0-42.4 11.7-11.7 30.8-11.7 42.4 0L949.1 907c11.7 11.7 11.7 30.8 0 42.4-11.6 11.6-30.7 11.6-42.4 0z" fill="#45484C" /></svg>