<svg viewBox="0 0 1024 1024"><!-- a man with black beard --><path d="M803.903676 585.006787m-100.928928 0a100.928928 100.928928 0 1 0 201.857856 0 100.928928 100.928928 0 1 0-201.857856 0Z" fill="#FAE1DC" /><path d="M191.733214 585.006787m-100.928928 0a100.928928 100.928928 0 1 0 201.857856 0 100.928928 100.928928 0 1 0-201.857856 0Z" fill="#FAE1DC" /><path d="M506.690736 556.043959m-338.311227 0a338.311227 338.311227 0 1 0 676.622455 0 338.311227 338.311227 0 1 0-676.622455 0Z" fill="#FAE1DC" /><path d="M797.236228 685.935715c-59.054535 98.812278-167.038964 164.992869-290.545492 164.992869s-231.490957-66.18059-290.545492-164.992869h-21.942605c50.94071 122.377648 171.625039 208.454749 312.45282 208.454749 140.827781 0 261.547387-86.077101 312.452819-208.454749h-21.87205z" fill="#00263A" /><path d="M515.827609 725.199573c-79.797706 0-144.461364 47.307128-144.461364 105.620836 0 8.360768 1.481655 16.474593 3.986358 24.27092h280.950012c2.504703-7.796328 3.986358-15.910153 3.986357-24.27092 0-58.313708-64.698935-105.620836-144.461363-105.620836z m1.55221 120.119888c-55.562063 0.952493-68.650016-66.956695-68.650016-66.956695h134.125056c0.035278 0-9.912978 66.004203-65.47504 66.956695z" fill="#00263A" /></svg>