<svg viewBox="0 0 1024 1024"><!-- a man with a mustache --><path d="M829.550419 668.861405m-105.162229 0a105.162228 105.162228 0 1 0 210.324457 0 105.162228 105.162228 0 1 0-210.324457 0Z" fill="#FAE1DC" /><path d="M191.556826 668.861405m-105.162228 0a105.162228 105.162228 0 1 0 210.324457 0 105.162228 105.162228 0 1 0-210.324457 0Z" fill="#FAE1DC" /><path d="M519.778689 638.663865m-352.598615 0a352.598615 352.598615 0 1 0 705.19723 0 352.598615 352.598615 0 1 0-705.19723 0Z" fill="#FAE1DC" /><path d="M584.407069 733.031178h-106.996658c-58.27843 0-105.973611 47.69518-105.973611 105.973611v42.05078h129.997589c15.345713-13.087953 29.20977-34.219175 33.266682-68.438351 3.986358 15.275158 8.219658 46.319358 27.516451 68.438351H690.38068v-42.05078c0-58.27843-47.69518-105.973611-105.973611-105.973611z" fill="#6E401E" /></svg>