<svg viewBox="0 0 1024 1024"><!-- a monitor --><path d="M225.1 251.9h592.7c14.2 0 25.8 11.5 25.8 25.8V690c0 14.2-11.5 25.8-25.8 25.8H225.1c-14.2 0-25.8-11.5-25.8-25.8V277.6c0-14.2 11.6-25.7 25.8-25.7z" fill="#FFFFFF" /><path d="M817.9 741.5H225.1c-28.4 0-51.5-23.1-51.5-51.5V277.6c0-28.4 23.1-51.5 51.5-51.5h592.7c28.4 0 51.5 23.1 51.5 51.5V690c0.1 28.4-23 51.5-51.4 51.5zM225.1 277.6V690h592.7V277.6H225.1z" fill="#2F2F33" /><path d="M225.1 638.4h592.7v51.5H225.1z" fill="#F4CE26" /><path d="M212.2 586.9h631.4v51.5H212.2z" fill="#303033" /><path d="M276.7 780.2h476.8c14.2 0 25.8 11.5 25.8 25.8 0 14.2-11.5 25.8-25.8 25.8H276.7c-14.2 0-25.8-11.5-25.8-25.8s11.5-25.8 25.8-25.8z" fill="#2F2F33" /><path d="M748.9 831.7H289.1L349.9 690h358.6l40.4 141.7z m-381.6-51.5h313.3l-11-38.7H383.8l-16.5 38.7z" fill="#2F2F33" /></svg>