<svg viewBox="0 0 1024 1024"><!-- a paper--><path d="M439.4 921.2H227.5V104.3h568.6v152.6c0 11 9 20 20 20s20-9 20-20V96.1c0-17.5-14.3-31.8-31.8-31.8h-585c-17.5 0-31.8 14.3-31.8 31.8v833.4c0 17.5 14.3 31.8 31.8 31.8h220.1c11 0 20-9 20-20s-8.9-20.1-20-20.1z" fill="#666666" /><path d="M530.4 527.1H294c-11 0-20 9-20 20s9 20 20 20h236.3c11 0 20-9 20-20s-8.9-20-19.9-20zM390.4 791.6H294c-11 0-20 9-20 20s9 20 20 20h96.3c11 0 20-9 20-20s-8.9-20-19.9-20zM530.4 665.6H294c-11 0-20 9-20 20s9 20 20 20h236.3c11 0 20-9 20-20s-8.9-20-19.9-20z" fill="#666666" /><path d="M511.5 464.1H312.8c-21.4 0-38.8-17.4-38.8-38.8V195.1c0-21.4 17.4-38.8 38.8-38.8h198.7c21.4 0 38.8 17.4 38.8 38.8v230.2c0 21.4-17.4 38.8-38.8 38.8z" fill="#CCCCCC" /></svg>