<svg viewBox="0 0 1024 1024"><!-- a paper frame icon --><path d="M714 762.2h-98.2c-16.6 0-30 13.4-30 30s13.4 30 30 30H714c16.6 0 30-13.4 30-30s-13.4-30-30-30zM487.4 762.2H147.1c-16.6 0-30 13.4-30 30s13.4 30 30 30h340.3c16.6 0 30-13.4 30-30s-13.4-30-30-30z" fill="#33CC99" /><path d="M743.7 955.9H195.8c-53.7 0-97.4-43.7-97.4-97.4V174.8c0-53.7 43.7-97.4 97.4-97.4H615c16.6 0 30 13.4 30 30s-13.4 30-30 30H195.8c-20.6 0-37.4 16.8-37.4 37.4v683.7c0 20.6 16.8 37.4 37.4 37.4h547.9c20.6 0 37.4-16.8 37.4-37.4v-395c0-16.6 13.4-30 30-30s30 13.4 30 30v395.1c0 53.6-43.7 97.3-97.4 97.3z" fill="#45484C" /></svg>