<svg viewBox="0 0 1024 1024"><!-- a person --><path d="M593.9 478.4a60.1 68.8 0 1 0 120.2 0 60.1 68.8 0 1 0-120.2 0Z" fill="#9B5C77" /><path d="M654 556.2c-38.1 0-69.1-34.9-69.1-77.8s31-77.8 69.1-77.8 69.1 34.9 69.1 77.8c0.1 42.9-30.9 77.8-69.1 77.8z m0-137.7c-28.2 0-51.1 26.8-51.1 59.8s22.9 59.8 51.1 59.8 51.1-26.8 51.1-59.8-22.9-59.8-51.1-59.8z" fill="#3E4152" /><path d="M702.8 921.2h-97.6l-39.1-197.4 39.1-163.5h97.6L742 723.5z" fill="#9B5C77" /><path d="M702.8 930.2h-97.6c-4.3 0-8-3-8.8-7.3l-39.1-197.5c-0.3-1.3-0.2-2.6 0.1-3.8l39.1-163.5c1-4 4.6-6.9 8.8-6.9h97.6c4.2 0 7.8 2.9 8.8 6.9l39.1 163.2c0.3 1.3 0.3 2.6 0.1 3.8L711.7 923c-0.9 4.2-4.6 7.2-8.9 7.2z m-90.2-18h82.8l37.3-188.6-37-154.4h-83.4l-37 154.7 37.3 188.3z" fill="#3E4152" /></svg>