<svg viewBox="0 0 1024 1024"><!-- a person sleeping in a bed--><path d="M298.666667 469.333333a85.333333 85.333333 0 1 1-0.042667 170.709334A85.333333 85.333333 0 0 1 298.666667 469.333333" fill="#FFB74D" /><path d="M426.666667 746.666667H170.666667a21.333333 21.333333 0 0 1-21.333334-21.333334v-64a21.333333 21.333333 0 0 1 21.333334-21.333333h256a21.333333 21.333333 0 0 1 21.333333 21.333333v64a21.333333 21.333333 0 0 1-21.333333 21.333334z" fill="#E1BEE7" /><path d="M917.333333 725.333333H426.666667a21.333333 21.333333 0 0 1-21.333334-21.333333v-192h476.096C914.602667 512 938.666667 536.192 938.666667 569.514667V704a21.333333 21.333333 0 0 1-21.333334 21.333333z" fill="#9C27B0" /><path d="M192 896H85.333333V384h106.666667v320h746.666667v192h-106.666667v-85.333333H192v85.333333z" fill="#FF9800" /></svg>