<svg viewBox="0 0 1024 1024"><!-- a pink heart --><path d="M 698.553 635.877 c 0 -58.8238 -47.6389 -106.463 -106.463 -106.463 c -32.4498 0 -61.5855 14.4988 -81.0553 37.4208 c -19.4699 -22.9219 -48.6057 -37.4208 -81.0553 -37.4208 c -58.8238 0 -106.463 47.6389 -106.463 106.463 c 0 30.9309 14.2227 56.6145 34.1067 78.1555 l 153.826 147.749 l 151.203 -146.231 c 19.1936 -19.8842 35.9018 -47.9152 35.9018 -79.6746 Z" fill="#ff6b6a" /><path d="M 513.381 125.657 m -104.115 0 a 104.115 104.115 0 1 0 208.23 0 a 104.115 104.115 0 1 0 -208.23 0 Z" fill="#ffb791" /></svg>