<svg viewBox="0 0 1024 1024"><!-- a pink plant --><path d="M511.416 369.488c0.184 0.032 0.368 0.128 0.552 0.128 13.456 0 24.752-8.456 29.312-20.304a31.2 31.2 0 0 0 2.288-11.296V245.16c51.656 1.352 103.744-17.344 143.12-56.776 46.288-46.232 64.312-109.8 54.552-169.792-59.984-9.816-123.616 8.24-169.784 54.504-35.424 35.36-54.16 80.912-56.648 127.192-0.992-0.064-1.824-0.552-2.84-0.552a1.536 1.536 0 0 0-0.552 0.128v169.624z" fill="#C9005B" /><path d="M741.24 18.592c-59.984-9.816-123.616 8.24-169.784 54.504-35.424 35.36-54.16 80.912-56.648 127.192-0.992-0.064-1.824-0.552-2.84-0.552-1.016 0-1.848 0.496-2.84 0.552-2.504-46.288-21.192-91.832-56.592-127.192-46.288-46.256-109.856-64.28-169.784-54.504-9.752 59.992 8.208 123.56 54.496 169.816 39.376 39.408 91.472 58.112 143.12 56.752v92.848a31.584 31.584 0 0 0 31.6 31.6 31.576 31.576 0 0 0 31.6-31.6V245.16c51.656 1.352 103.744-17.344 143.12-56.776 46.288-46.232 64.312-109.808 54.552-169.792z" fill="#E5226B" /></svg>