<svg viewBox="0 0 1024 1024"><!-- a pot --><path d="M769.52 1008H254.488l-77.024-538.816h670.496z" fill="#F5B146" /><path d="M511.416 469.184V1008H769.52l78.44-538.816z" fill="#EDA02F" /><path d="M931.464 433.144a52.864 52.864 0 0 1-52.896 52.832h-733.2a52.816 52.816 0 0 1-52.832-52.832v-31.008a52.832 52.832 0 0 1 52.832-52.832h733.192c29.2 0 52.896 23.664 52.896 52.832v31.008z" fill="#0092D2" /><path d="M878.56 349.304H511.416v136.672H878.568a52.864 52.864 0 0 0 52.896-52.832v-31.008c0-29.16-23.696-52.832-52.904-52.832z" fill="#0085BF" /></svg>