<svg viewBox="0 0 1024 1024"><!-- a purple person --><path d="M678.4 409.6a115.2 115.2 0 1 0 0 230.4 115.2 115.2 0 0 0 0-230.4z m0 51.2a64 64 0 1 1 0 128 64 64 0 0 1 0-128z" fill="#BA42D6" /><path d="M675.5584 641.7664l-0.768-0.64c-23.7568-20.1216-43.9296-27.904-63.7952-20.736C536.7808 647.1936 486.4 715.6992 486.4 793.6v25.6h384v-25.6c0-83.456-57.8048-155.6736-139.6736-177.9712-17.8944-4.864-33.408 2.688-50.7648 21.248l-4.4032 4.8896z m47.6928 24.8576l2.1504 0.64c45.2096 14.592 79.8464 51.9168 90.4192 97.152l0.768 3.584H540.2112l0.5376-2.6112c9.5232-41.9328 39.8848-77.3888 81.8432-94.6176l5.8112-2.2272c-2.5856 0.9472-1.9456 1.0752 1.8944 3.4048 7.5776 4.5312 17.6128 13.1328 29.696 25.6l21.3248 22.1184 17.8944-24.96c9.2928-12.9792 17.0752-22.0928 22.8864-27.136l1.152-0.9472z" fill="#BA42D6" /></svg>