<svg viewBox="0 0 1024 1024"><!-- a red ruler --><path d="M652.6 575.3c0 6-4.8 10.8-10.8 10.8h-64.9c-6 0-10.8-4.8-10.8-10.8V445.5c0-6 4.8-10.8 10.8-10.8h64.9c6 0 10.8 4.8 10.8 10.8v129.8z" fill="#F07067" /><path d="M566.1 477.9h86.5v64.9h-86.5z" fill="#F2E2C8" /><path d="M641.8 423.9h-64.9c-11.9 0-21.6 9.7-21.6 21.6V575.2c0 11.9 9.7 21.6 21.6 21.6h64.9c11.9 0 21.6-9.7 21.6-21.6V445.5c0-11.9-9.7-21.6-21.6-21.6z m0 21.6v21.6h-64.9v-21.6h64.9z m-64.9 43.2h64.9V532h-64.9v-43.3z m0 86.6v-21.6h64.9v21.6h-64.9z" fill="#211F1E" /><path d="M609.3 510.4m-10.8 0a10.8 10.8 0 1 0 21.6 0 10.8 10.8 0 1 0-21.6 0Z" fill="#211F1E" /></svg>