<svg viewBox="0 0 1024 1024"><!-- a red arrow pointing up --><path d="M512 501.333333v-234.666666l140.8 117.333333z" fill="#FF5722" /><path d="M616.533333 520.533333c0 4.266667 2.133333 8.533333 2.133334 12.8 0 59.733333-46.933333 106.666667-106.666667 106.666667s-106.666667-46.933333-106.666667-106.666667 46.933333-106.666667 106.666667-106.666666c14.933333 0 29.866667 4.266667 42.666667 8.533333v-89.6c-12.8-2.133333-27.733333-4.266667-42.666667-4.266667-106.666667 0-192 85.333333-192 192s85.333333 192 192 192 192-85.333333 192-192c0-25.6-4.266667-51.2-14.933333-72.533333l-72.533334 59.733333z" fill="#FF5722" /></svg>