<svg viewBox="0 0 1024 1024"><!-- a red umbrella --><path d="M213.312 896a84.757333 84.757333 0 0 0 60.330667-25.002667L938.666667 192l-30.250667-30.08-664.981333 678.954667a42.730667 42.730667 0 0 1-60.288-0.042667 42.730667 42.730667 0 0 1 0-60.330667L152.96 750.336A85.354667 85.354667 0 0 0 213.312 896z" fill="#B0BEC5" /><path d="M149.333333 598.677333s149.077333 22.4 189.333334 178.154667C498.410667 798.4 512 960 512 960l363.84-703.829333-30.506667-29.824L149.333333 598.677333z" fill="#AD1457" /><path d="M149.333333 598.677333s149.077333 22.4 189.333334 178.154667L861.674667 242.346667l-16.341334-16L149.333333 598.677333z" fill="#F50057" /></svg>