<svg viewBox="0 0 1024 1024"><!-- a red square --><path d="M526.628571 512L190.171429 285.257143l343.771428-219.428572 336.457143 219.428572z" fill="#F4B1B2" /><path d="M526.628571 541.257143c-7.314286 0-7.314286 0-14.628571-7.314286L175.542857 307.2c-7.314286 0-7.314286-14.628571-7.314286-21.942857 0-7.314286 7.314286-14.628571 14.628572-21.942857L519.314286 36.571429c7.314286-7.314286 21.942857-7.314286 29.257143 0l343.771428 219.428571c7.314286 7.314286 14.628571 14.628571 14.628572 21.942857 0 7.314286-7.314286 14.628571-14.628572 21.942857L541.257143 533.942857s-7.314286 7.314286-14.628572 7.314286zM241.371429 285.257143l285.257142 190.171428 292.571429-190.171428-292.571429-190.171429-285.257142 190.171429z" fill="#D72822" /></svg>