<svg viewBox="0 0 1024 1024"><!-- a red trash can --><path d="M154 260h568v700H154z" fill="#FF3B30" /><path d="M624.428 261.076v485.956c0 57.379-46.737 103.894-104.391 103.894h-362.56v107.246h566.815V261.076h-99.864z" fill="#030504" /><path d="M320.5 870.07c-8.218 0-14.5-6.664-14.5-14.883V438.474c0-8.218 6.282-14.883 14.5-14.883s14.5 6.664 14.5 14.883v416.713c0 8.219-6.282 14.883-14.5 14.883zM543.5 870.07c-8.218 0-14.5-6.664-14.5-14.883V438.474c0-8.218 6.282-14.883 14.5-14.883s14.5 6.664 14.5 14.883v416.713c0 8.219-6.282 14.883-14.5 14.883z" fill="#152B3C" /><path d="M721.185 345.717v-84.641H164.437z" fill="#030504" /></svg>