<svg viewBox="0 0 1024 1024"><!-- a screw --><path d="M567.249 113.008h-96.5c-119.928 0.014-217.111 97.197-217.125 217.125 0 6.352 2.574 12.567 7.066 17.059 4.492 4.492 10.704 7.066 17.059 7.066h120.625c-0.002 135.92-0.002 269.913 0 410.125 0 6.352 2.572 12.567 7.064 17.059l96.5 96.5c4.492 4.492 10.706 7.066 17.061 7.066 6.352 0 12.567-2.574 17.059-7.066l96.5-96.5c4.49-4.492 7.064-10.707 7.064-17.059V354.258h120.627c6.352 0 12.567-2.574 17.059-7.066s7.064-10.707 7.064-17.059c-0.015-119.928-97.196-217.11-217.123-217.125z m48.25 193c-6.355 0-12.569 2.574-17.061 7.066-4.492 4.492-7.064 10.707-7.064 17.059-0.002 151.959-0.002 102.218 0 424.255l-72.377 72.375-72.375-72.375V330.133c0-6.352-2.572-12.564-7.064-17.059-4.492-4.492-10.707-7.066-17.059-7.066H303.828c11.841-81.779 81.873-144.596 166.921-144.75h96.5c85.048 0.154 155.078 62.971 166.918 144.75H615.499z" fill="#805D4C" /></svg>