<svg viewBox="0 0 1024 1024"><!-- a shower head --><path d="M512 128C282.24 128 96 314.24 96 544h832c0-229.76-186.24-416-416-416z" fill="#EAEAEA" /><path d="M512 192c157.664 0 297.152 76.384 384.672 193.76C834.368 234.528 685.696 128 512 128S189.632 234.528 127.328 385.76C214.848 268.384 354.336 192 512 192z" fill="#FFFFFF" /><path d="M512 128c21.792 0 43.136 1.696 64 4.896V0h-128v132.896c20.864-3.2 42.208-4.896 64-4.896z" fill="#EAEAEA" /><path d="M448 101.088v31.808c4.64-0.704 9.344-1.056 14.016-1.632 3.904-0.48 7.776-0.992 11.712-1.344 12.608-1.152 25.344-1.92 38.272-1.92s25.664 0.768 38.272 1.952c3.936 0.352 7.808 0.864 11.712 1.344 4.672 0.544 9.376 0.896 14.016 1.6v-31.808C555.04 98.08 533.792 96 512 96s-43.04 2.08-64 5.088z" fill="" /><path d="M960 576a32 32 0 0 1-32 32H96a32 32 0 1 1 0-64h832a32 32 0 0 1 32 32z" fill="#434854" /></svg>