<svg viewBox="0 0 1024 1024"><!-- a smiling star icon --><path d="M721.7 603.7c-4.1 6.1-5.1 13.7-2.9 20.6l80.7 257.2-279.3-106c-2.8-1-5.7-1.6-8.6-1.6-2.9 0-5.8 0.5-8.6 1.6l-279.3 106 80.7-257.2c2.2-7 1.1-14.6-2.9-20.6L152.2 379.2h227.7c9.1 0 17.4-5.1 21.5-13.1l110.2-214.2 110.2 214.2c4.1 8.1 12.4 13.1 21.5 13.1H871L721.7 603.7zM399.4 485.4c0-16-13-29-29-29s-29 13-29 29 13 29 29 29 29-13 29-29z m224.4 0c0 16 13 29 29 29s29-13 29-29-13-29-29-29c-16.1 0-29 13-29 29zM651.5 600c-11.7-6.4-26.4-2.1-32.8 9.7-21.4 39.3-62.4 63.6-107 63.6s-85.7-24.4-107-63.6c-6.4-11.7-21.1-16-32.8-9.7-11.7 6.4-16.1 21.1-9.7 32.8 29.9 54.8 87.2 88.9 149.5 88.9s119.7-34.1 149.5-88.9c6.3-11.7 2-26.4-9.7-32.8z" fill="#FCA128" /></svg>