<svg viewBox="0 0 1024 1024"><!-- a smiley face icon --><path d="M441.8 466.2c0-19.8-16.3-35.8-36.4-35.8-20.1 0-36.4 16-36.4 35.8 0 19.8 16.3 35.8 36.4 35.8 20.1 0 36.4-16 36.4-35.8zM614.3 430.4c-20.1 0-36.4 16-36.4 35.8 0 19.8 16.3 35.8 36.4 35.8 20.1 0 36.4-16 36.4-35.8 0-19.8-16.3-35.8-36.4-35.8zM596.2 538.9c-9.7-2.3-19.4 3.7-21.9 13.3-0.3 1.3-9.1 32.3-64.3 32.3-54.6 0-63.8-30.4-64.3-32.2-2.3-9.6-11.9-15.7-21.6-13.6-9.8 2.1-16.1 11.8-13.9 21.6 0.5 2.5 14.2 60.5 99.8 60.5s99.3-58.1 99.8-60.5c2.1-9.7-3.9-19.1-13.6-21.4z" fill="#211F1E" /></svg>