<svg viewBox="0 0 1024 1024"><!-- a spatula --><path d="M704 960a64 64 0 0 0 128 0V448h-128v512z" fill="#434854" /><path d="M704.768 967.712C708.64 999.36 735.328 1024 768 1024s59.36-24.64 63.232-56.288c-16.928 14.944-38.88 24.288-63.232 24.288s-46.304-9.344-63.232-24.288zM704 448h128v32h-128z" fill="" /><path d="M960 32a32 32 0 0 0-32-32H608a32 32 0 0 0-32 32l32 384a32 32 0 0 0 32 32h256a32 32 0 0 0 32-32l32-384z" fill="#DAE2E5" /><path d="M768 64a32 32 0 0 0-32 32v256a32 32 0 1 0 64 0V96a32 32 0 0 0-32-32zM864 64a32 32 0 0 0-32 32v256a32 32 0 1 0 64 0V96a32 32 0 0 0-32-32zM672 64a32 32 0 0 0-32 32v256a32 32 0 1 0 64 0V96a32 32 0 0 0-32-32z" fill="#FFFFFF" /></svg>