<svg viewBox="0 0 1024 1024"><!-- a speaker icon --><path d="M277.5 386.8v9.2h16v-9.2h-16z m0 241.2v8.8h16V628h-16z" fill="#39393A" /><path d="M616.4 458.4c-11-11.1-25.5-18.7-41.5-21.3V112l-297 240H64v320h214l296.9 240V586.9c36.1-5.8 63.8-37.3 63.8-74.9 0-20.9-8.5-39.9-22.3-53.6z m-85.6 361.4L305.6 637.7l-12.1-9.8v8.8h-16V628H108V396h169.5v-9.2h16v9.2l12.1-9.8 225.2-182.1v615.7z m74.3-265.6c-8.4 8.4-18.9 14.1-30.2 16.4V453.3c11.3 2.3 21.8 7.9 30.2 16.4 11.4 11.3 17.6 26.4 17.6 42.3 0 15.9-6.3 30.9-17.6 42.2z" fill="#39393A" /></svg>