<svg viewBox="0 0 1024 1024"><!-- a square with lines--><path fill="#333" d="M880 112H144c-17.7 0-32 14.3-32 32v736c0 17.7 14.3 32 32 32h736c17.7 0 32-14.3 32-32V144c0-17.7-14.3-32-32-32zm-40 728H184V184h656v656z"/><path fill="#E6E6E6" d="M184 840h656V184H184v656zm300-496c0-4.4 3.6-8 8-8h184c4.4 0 8 3.6 8 8v48c0 4.4-3.6 8-8 8H492c-4.4 0-8-3.6-8-8v-48zm0 144c0-4.4 3.6-8 8-8h184c4.4 0 8 3.6 8 8v48c0 4.4-3.6 8-8 8H492c-4.4 0-8-3.6-8-8v-48zm0 144c0-4.4 3.6-8 8-8h184c4.4 0 8 3.6 8 8v48c0 4.4-3.6 8-8 8H492c-4.4 0-8-3.6-8-8v-48zM380 328c22.1 0 40 17.9 40 40s-17.9 40-40 40-40-17.9-40-40 17.9-40 40-40zm0 144c22.1 0 40 17.9 40 40s-17.9 40-40 40-40-17.9-40-40 17.9-40 40-40zm0 144c22.1 0 40 17.9 40 40s-17.9 40-40 40-40-17.9-40-40 17.9-40 40-40z"/></svg>