<svg viewBox="0 0 1024 1024"><!-- a stairway with orange stripes--><path d="M71.68 800.47104m46.34624 0l787.94752 0q46.34624 0 46.34624 46.34624l0 0.01024q0 46.34624-46.34624 46.34624l-787.94752 0q-46.34624 0-46.34624-46.34624l0-0.01024q0-46.34624 46.34624-46.34624Z" fill="#EE921C" /><path d="M266.35264 633.63072m46.34624 0l556.19584 0q46.34624 0 46.34624 46.34624l0 0.01024q0 46.34624-46.34624 46.34624l-556.19584 0q-46.34624 0-46.34624-46.34624l0-0.01024q0-46.34624 46.34624-46.34624Z" fill="#EE921C" /><path d="M173.64992 466.7904m46.34624 0l556.19584 0q46.34624 0 46.34624 46.34624l0 0.01024q0 46.34624-46.34624 46.34624l-556.19584 0q-46.34624 0-46.34624-46.34624l0-0.01024q0-46.34624 46.34624-46.34624Z" fill="#EE921C" opacity=".5" /><path d="M349.77792 299.96032m46.34624 0l444.95872 0q46.34624 0 46.34624 46.34624l0 0.01024q0 46.34624-46.34624 46.34624l-444.95872 0q-46.34624 0-46.34624-46.34624l0-0.01024q0-46.34624 46.34624-46.34624Z" fill="#EE921C" opacity=".5" /></svg>