<svg viewBox="0 0 1024 1024"><!-- a toothbrush --><path d="M282.204 102.455l185.01 185.01-109.377 109.378-185.01-185.01z" fill="#FCB814" /><path d="M261.19 290.869l101.247-101.232 21.118 21.121L282.309 311.99zM313.557 343.226L414.8 241.996l21.118 21.121-101.244 101.23zM208.825 238.503l101.244-101.23 21.119 21.12-101.245 101.231z" fill="#152B3C" /><path d="M489.622 246.891L320.747 78.016c-4.462-4.462-0.775-12.049 5.491-11.297l65.57 7.868a6.639 6.639 0 0 1 3.908 1.898l163.629 163.629c4.286 4.286 1.068 11.603-4.988 11.339l-60.323-2.622a6.65 6.65 0 0 1-4.412-1.94z" fill="#FF3B30" /><path d="M493.983 216.456c-1.91 0-3.821-0.73-5.279-2.188L381.049 106.61a7.464 7.464 0 0 1 0-10.559 7.463 7.463 0 0 1 10.558 0L499.262 203.71a7.463 7.463 0 0 1 0 10.558 7.448 7.448 0 0 1-5.279 2.188z" fill="#FFFFFF" /><path d="M378.783 617.931l344.425 344.425 55.853-55.852-330.462-330.463-76.798-165.231-204.793-204.793-39.562 39.563 183.848 183.849z" fill="#FF3B30" /></svg>