<svg viewBox="0 0 1024 1024"><!-- A utensil --><path d="M416 64a64 64 0 0 0-128 0v672h128V64z" fill="#434854" /><path d="M288 704h128v32H288z" fill="" /><path d="M352 1024a288 288 0 0 0 288-288H64a288 288 0 0 0 288 288z" fill="#DAE2E5" /><path d="M352 960a351.296 351.296 0 0 1-271.072-127.488C120.64 944.032 226.848 1024 352 1024s231.36-79.968 271.072-191.488A351.296 351.296 0 0 1 352 960z" fill="" /><path d="M415.232 56.288C411.36 24.64 384.672 0 352 0S292.64 24.64 288.768 56.288C305.696 41.344 327.648 32 352 32s46.304 9.344 63.232 24.288z" fill="#FFFFFF" /></svg>