<svg viewBox="0 0 1024 1024"><!-- a walking man --><path d="M631.8 436.3l-100-40.3-1.7-12.9c21.5-12.6 35.9-35.9 35.9-62.6 0-40.1-32.5-72.6-72.6-72.6-40.1 0-72.6 32.5-72.6 72.6 0 34.9 24.6 64 57.3 71l3.6 27-54.4 59.4-58.5 16.8c-14 4-22 18.6-18 32.5 3.3 11.5 13.8 19 25.2 19 2.4 0 4.8-0.3 7.3-1l65.6-18.8c4.7-1.3 8.9-3.9 12.1-7.5l29.7-32.4L499 549l-61 69.9c-3.8 4.3-6.1 9.8-6.4 15.6l-5.8 89c-0.9 14.5 10 27 24.5 27.9 0.6 0 1.2 0.1 1.7 0.1 13.7 0 25.3-10.7 26.2-24.6l5.2-80.2 33.1-37.9 12.8 37.7c0.4 1.3 1 2.6 1.6 3.8l43.4 82.7c4.7 8.9 13.8 14.1 23.3 14.1 4.1 0 8.3-1 12.2-3 12.8-6.8 17.8-22.6 11-35.5l-42.5-80.8-24.8-73c-0.3-1-0.7-1.9-1.1-2.8l-12.8-96 53 21.3-7.9 49.8c-2.3 14.3 7.5 27.8 21.8 30.1 1.4 0.2 2.8 0.3 4.1 0.3 12.7 0 23.9-9.2 25.9-22.2l11.2-70.5c2.1-12.1-4.6-23.9-15.9-28.5z" fill="#333E48" /></svg>