<svg viewBox="0 0 1024 1024"><!-- a warning sign --><path d="M253.866667 896l307.2-514.133333c17.066667-27.733333 57.6-27.733333 72.533333 0L940.8 896c17.066667 27.733333-4.266667 64-36.266667 64H290.133333c-32 0-53.333333-36.266667-36.266666-64z" fill="#FFC107" /><path d="M563.2 851.2c0-4.266667 0-8.533333 2.133333-12.8s4.266667-6.4 6.4-10.666667 6.4-4.266667 10.666667-6.4 8.533333-2.133333 12.8-2.133333 10.666667 0 14.933333 2.133333 8.533333 4.266667 10.666667 6.4 4.266667 6.4 6.4 10.666667 2.133333 8.533333 2.133333 12.8 0 8.533333-2.133333 12.8-4.266667 6.4-6.4 10.666667-6.4 4.266667-10.666667 6.4-8.533333 2.133333-14.933333 2.133333-10.666667 0-12.8-2.133333-8.533333-4.266667-10.666667-6.4-4.266667-6.4-6.4-10.666667-2.133333-8.533333-2.133333-12.8z m59.733333-66.133333h-49.066666l-8.533334-209.066667h64l-6.4 209.066667z" fill="#263238" /></svg>