<svg viewBox="0 0 1024 1024"><!-- a yellow watch icon--><path d="M746.5 613.7c0 49.1-39 88.9-87.1 88.9H360.2c-48.1 0-87.1-39.8-87.1-88.9V409.2c0-49.1 39-88.9 87.1-88.9h299.2c48.1 0 87.1 39.8 87.1 88.9v204.5zM378 247.4h254.9v72.8H378zM378 702.6h254.9v72.8H378z" fill="#FBBA22" /><path d="M659.4 302h-8.3v-54.6c0-10.1-8.2-18.2-18.2-18.2H378c-10.1 0-18.2 8.2-18.2 18.2V302c-57.9 0.3-104.9 48.2-104.9 107.1v204.5c0 58.9 47 106.9 104.9 107.1v54.7c0 10.1 8.2 18.2 18.2 18.2h254.9c10.1 0 18.2-8.2 18.2-18.2v-54.6h8.3c58.1 0 105.3-48.1 105.3-107.1V409.2c0-59.1-47.2-107.2-105.3-107.2z m-263.2-36.4h218.5V302H396.2v-36.4z m218.5 491.6H396.2v-36.4h218.5v36.4z m113.6-143.5c0 39-30.9 70.7-68.9 70.7H360.3c-38 0-68.9-31.7-68.9-70.7V409.2c0-39 30.9-70.7 68.9-70.7h299.1c38 0 68.9 31.7 68.9 70.7v204.5z" fill="#211F1E" /></svg>