<svg viewBox="0 0 1024 1024"><!-- a yellow ruler --><path d="M400.1 271.8h86.5v486.7h-86.5z" fill="#F7BE29" /><path d="M486.6 261h-86.5c-6 0-10.8 4.8-10.8 10.8v486.7c0 6 4.8 10.8 10.8 10.8h86.5c6 0 10.8-4.8 10.8-10.8V271.8c0.1-5.9-4.8-10.8-10.8-10.8z m-75.7 486.7V282.6h64.9v60.1h-27c-3 0-5.4 2.4-5.4 5.4 0 3 2.4 5.4 5.4 5.4h27v16.2h-16.2c-3 0-5.4 2.4-5.4 5.4 0 3 2.4 5.4 5.4 5.4h16.2v16.2h-16.2c-3 0-5.4 2.4-5.4 5.4 0 3 2.4 5.4 5.4 5.4h16.2v16.2h-27c-3 0-5.4 2.4-5.4 5.4 0 3 2.4 5.4 5.4 5.4h27v16.2h-16.2c-3 0-5.4 2.4-5.4 5.4 0 3 2.4 5.4 5.4 5.4h16.2v16.2h-16.2c-3 0-5.4 2.4-5.4 5.4 0 3 2.4 5.4 5.4 5.4h16.2V505h-27c-3 0-5.4 2.4-5.4 5.4 0 3 2.4 5.4 5.4 5.4h27V532h-16.2c-3 0-5.4 2.4-5.4 5.4 0 3 2.4 5.4 5.4 5.4h16.2V559h-16.2c-3 0-5.4 2.4-5.4 5.4 0 3 2.4 5.4 5.4 5.4h16.2V586h-27c-3 0-5.4 2.4-5.4 5.4 0 3 2.4 5.4 5.4 5.4h27V613h-16.2c-3 0-5.4 2.4-5.4 5.4 0 3 2.4 5.4 5.4 5.4h16.2V640h-16.2c-3 0-5.4 2.4-5.4 5.4 0 3 2.4 5.4 5.4 5.4h16.2V667h-27c-3 0-5.4 2.4-5.4 5.4 0 3 2.4 5.4 5.4 5.4h27V694h-16.2c-3 0-5.4 2.4-5.4 5.4 0 3 2.4 5.4 5.4 5.4h16.2V721h-16.2c-3 0-5.4 2.4-5.4 5.4 0 3 2.4 5.4 5.4 5.4h16.2v15.6h-64.9z" fill="#211F1E" /><path d="M443.4 314.9m-10.8 0a10.8 10.8 0 1 0 21.6 0 10.8 10.8 0 1 0-21.6 0Z" fill="#211F1E" /></svg>