<svg viewBox="0 0 1024 1024"><!-- a yellow speech bubble --><path d="M945.477308 72.112676H80.125196c-26.954116 0-48.075117 20.4159-48.075118 46.472614v551.261345c0 25.624038 20.848576 46.472613 46.472614 46.472614h424.679562l8.781721 7.002942 242.795368 193.983099V716.319249H945.477308c25.624038 0 46.472613-20.848576 46.472614-46.472614V118.58529c0-25.624038-20.848576-46.472613-46.472614-46.472614z" fill="#FAD97F" /><path d="M945.477308 40.062598H80.125196C35.255086 40.062598 0 75.317684 0 118.58529v551.261345c0 43.267606 35.255086 78.522692 78.522692 78.522692h413.446009l294.86072 235.568075V748.369327H945.477308c43.267606 0 78.522692-35.255086 78.522692-78.522692V118.58529c0-43.267606-35.255086-78.522692-78.522692-78.522692z m46.472614 629.784037c0 25.624038-20.848576 46.472613-46.472614 46.472614h-190.697965v200.986041l-242.811393-193.983099-8.765696-7.002942H78.522692c-25.624038 0-46.472613-20.848576-46.472614-46.472614V118.58529C32.050078 92.528576 53.17108 72.112676 80.125196 72.112676h865.352112c25.624038 0 46.472613 20.848576 46.472614 46.472614v551.261345z" fill="" /></svg>