<svg viewBox="0 0 1024 1024"><!-- a yellow washbasin --><path d="M576 128a32 32 0 0 0-32-32 32 32 0 1 0-64 0 32 32 0 0 0-32 32v32h32v160h64V160h32V128z" fill="#DAE2E5" /><path d="M32 384v512a32 32 0 0 0 32 32h896a32 32 0 0 0 32-32V384H32z" fill="#EACA44" /><path d="M640 704v-160a32 32 0 1 0-64 0v160a32 32 0 1 0 64 0z" fill="#434854" /><path d="M608 736a32 32 0 0 1-32-32v32a32 32 0 1 0 64 0v-32a32 32 0 0 1-32 32z" fill="" /><path d="M448 704v-160a32 32 0 1 0-64 0v160a32 32 0 1 0 64 0z" fill="#434854" /><path d="M416 736a32 32 0 0 1-32-32v32a32 32 0 1 0 64 0v-32a32 32 0 0 1-32 32z" fill="" /><path d="M800 928h128v32h-128zM96 928h128v32H96z" fill="#434854" /><path d="M0 320h1024v64H0z" fill="#434854" /><path d="M32 384h960v32H32z" fill="" /><path d="M480 160h64v32h-64z" fill="" /><path d="M544 96h-64a32 32 0 0 0-32 32v32a32 32 0 0 1 32-32h64a32 32 0 0 1 32 32V128a32 32 0 0 0-32-32z" fill="#FFFFFF" /></svg>