<svg viewBox="0 0 1024 1024"><!-- a yen symbol --><path d="M676.27 109.91c-131.32 0-237.78 106.46-237.78 237.78s106.46 237.78 237.78 237.78 237.78-106.46 237.78-237.78-106.46-237.78-237.78-237.78z m0 402.42c-90.78 0-164.64-73.85-164.64-164.64s73.85-164.64 164.64-164.64 164.64 73.85 164.64 164.64-73.86 164.64-164.64 164.64zM735.08 226.3l-58.7 58.7-58.68-58.7-38.78 38.79 37.76 37.77h-25.49v54.85h57.76v17.02h-55.44v54.86h55.44v50.39h54.86v-50.39h56.31v-54.86h-56.31v-17.02h57.79v-54.85h-25.5l37.77-37.77z" fill="#0F1F3C" /></svg>