<svg viewBox="0 0 1024 1024"><!-- a yellow letter p --><path d="M523.92 524.64C504 637.92 452.88 768 318.88 896c-71.36-40-55.44-71.6-118.88-103.44C334.16 688 381.76 584 400.96 486.8a501.92 501.92 0 0 0 122.96 37.84z" fill="#FFD53E" /><path d="M810.24 164.08c-107.04-99.2-260.24-118.32-340.8-16-43.28 55.12-48.72 122.72-53.44 198.4a364.4 364.4 0 0 1-73.36-78.88c-40 16-47.52 48-110.96 64 30.32 67.68 93.68 120.96 169.28 155.6a501.92 501.92 0 0 0 122.96 37.84c69.36 12 139.84 9.36 199.2-10.48 166.4-56.08 190.16-254.96 87.12-350.48zM699.28 394.8A296.8 296.8 0 0 1 536 404.24c3.36-90.48-3.44-160 20.96-192 47.52-64 150.56-32 190.24 8 47.2 47.28 35.36 144.16-47.92 174.56z" fill="#FFD53E" /></svg>