<svg viewBox="0 0 1024 1024"><!-- a yellow crescent --><path d="M895.573333 652.096a21.504 21.504 0 0 0-20.693333-5.504A406.186667 406.186667 0 0 1 768 661.333333c-223.509333 0-405.333333-181.824-405.333333-405.333333 0-35.136 4.949333-71.104 14.741333-106.88a21.333333 21.333333 0 0 0-26.197333-26.218667C156.970667 175.957333 21.333333 353.514667 21.333333 554.666667c0 247.04 200.96 448 448 448 201.173333 0 378.709333-135.637333 431.744-329.856a21.333333 21.333333 0 0 0-5.504-20.714667z" fill="#EFD358" /></svg>