<svg viewBox="0 0 1024 1024"><!-- a yellow and black box --><path d="M777.848 318.221l180.489-210.183L960 591.252a22.43 22.43 0 0 1-2.952 11.11l-179.2 313.6V318.221" fill="#FCB814" /><path d="M777.848 318.221l180.489-210.183L960 591.252a22.43 22.43 0 0 1-2.952 11.11l-179.2 313.6V318.221" fill="" /><path d="M64 318.221l265.734-210.183h628.602L778.839 318.221zM64 318.221h713.848v597.741H64z" fill="#FCB814" /><path d="M64 318.221h713.848v597.741H64z" fill="" /><path d="M376.296 318.221h102.205v597.741H376.296z" fill="" /><!-- blue stripes --><path d="M376.296 318.221l208.868-208.866h100.019L478.501 318.221zM376.296 318.221h102.205v597.741H376.296z" fill="#2577FF" /></svg>