<svg viewBox="0 0 1024 1024"><!-- air conditioner icon--><path d="M64.4 226.1v223.8c0 61.9 50.1 112.1 112 112.1h672c61.8 0 112-50.2 112-112.1V226.1c0-61.9-50.1-112.1-112-112.1h-672c-61.8 0-112 50.2-112 112.1z" fill="#5E676F" /><path d="M120.4 226.1c0-30.9 25.1-56.1 56-56.1h672c30.9 0 56 25.1 56 56.1v223.8c0 30.9-25.1 56.1-56 56.1h-672c-30.9 0-56-25.1-56-56.1V226.1z" fill="#FFFFFF" /><path d="M400.4 268c0-23.1 18.4-42 41.7-42h84.5c23.2 0 41.7 19.1 41.7 42 0 23.1-18.4 42-41.7 42h-84.5c-23.1 0-41.7-19.1-41.7-42zM232.4 268c0-23.2 19-42 42-42 23.2 0 42 19 42 42 0 23.2-19 42-42 42-23.2 0-42-19-42-42zM246.4 394h532v-28h-532v28zM246.4 450h532v-28h-532v28z" fill="#5E676F" /><path d="M428.4 268c0 7.5 6.1 14 13.7 14h84.5c7.7 0 13.7-6.3 13.7-14 0-7.5-6.1-14-13.7-14h-84.5c-7.7 0-13.7 6.3-13.7 14zM260.4 268c0 7.5 6.3 14 14 14 7.5 0 14-6.3 14-14 0-7.5-6.3-14-14-14-7.5 0-14 6.3-14 14z" fill="#FFFFFF" /></svg>