<svg viewBox="0 0 1024 1024"><!-- an email --><path d="M740.7 486.7c0-16.2-13.3-29.5-29.5-29.5H313.9c-16.2 0-29.5 13.3-29.5 29.5v223c0 16.2 13.3 29.5 29.5 29.5h397.3c16.2 0 29.5-13.3 29.5-29.5v-223z" fill="" /><path d="M413.9 648.9v-88.1l90.3 62.8c2.5 1.7 5.4 2.6 8.3 2.6 2.9 0 5.8-0.9 8.3-2.6l90.3-62.8v88.1H413.9z m165.3-101.4l-66.7 46.4-66.7-46.4h133.4z m46.4-29.1H399.4c-8 0-14.6 6.5-14.6 14.6v130.5c0 8 6.5 14.6 14.6 14.6h226.2c8 0 14.6-6.5 14.6-14.6V532.9c0-8-6.5-14.5-14.6-14.5z" fill="#FFFFFF" /></svg>