<svg viewBox="0 0 1024 1024"><!-- an email icon --><path d="M704 384H320c-23.466667 0-42.666667 19.2-42.666667 42.666667v256c0 23.466667 19.2 42.666667 42.666667 42.666666h384c23.466667 0 42.666667-19.2 42.666667-42.666666V426.666667c0-23.466667-19.2-42.666667-42.666667-42.666667z" fill="#CFD8DC" /><path d="M704 384H320c-23.466667 0-42.666667 19.2-42.666667 42.666667v21.333333l234.666667 170.666667 234.666667-170.666667v-21.333333c0-23.466667-19.2-42.666667-42.666667-42.666667z" fill="#8E9496" /><path d="M704 384H320c-23.466667 0-42.666667 19.2-42.666667 42.666667v21.333333l234.666667 128 234.666667-128v-21.333333c0-23.466667-19.2-42.666667-42.666667-42.666667z" fill="#EBEFF1" /></svg>