<svg viewBox="0 0 1024 1024"><!-- an icon with an arrow pointing up--><path d="M791.8 409.6H665.7c-16.6 0-30 13.4-30 30s13.4 30 30 30h126.2c41 0 74.4 33.4 74.4 74.4v281.3c0 41-33.4 74.4-74.4 74.4H232.4c-41 0-74.4-33.4-74.4-74.4V544c0-41 33.4-74.4 74.4-74.4h139.3c16.6 0 30-13.4 30-30s-13.4-30-30-30H232.4C158.3 409.6 98 469.9 98 544v281.3c0 74.1 60.3 134.4 134.4 134.4h559.4c74.1 0 134.4-60.3 134.4-134.4V544c0-74.1-60.3-134.4-134.4-134.4z" fill="#45484C" /><path d="M362.3 272.1l118.8-118.8v550.9c0 16.6 13.4 30 30 30s30-13.4 30-30V153.3l118.8 118.8c5.9 5.9 13.5 8.8 21.2 8.8s15.4-2.9 21.2-8.8c11.7-11.7 11.7-30.7 0-42.4L552.6 80c-11.1-11.1-25.9-17.2-41.5-17.2-15.7 0-30.4 6.1-41.5 17.2L319.9 229.7c-11.7 11.7-11.7 30.7 0 42.4s30.7 11.7 42.4 0z" fill="#45484C" /></svg>