<svg viewBox="0 0 1024 1024"><!-- an orange icon --><path d="M702 237.6H321c-150.7 0-273.3 122.6-273.3 273.3 0 150.7 122.6 273.3 273.3 273.3h381c150.7 0 273.3-122.6 273.3-273.3 0-150.7-122.6-273.3-273.3-273.3z m0 496.9H321c-123.3 0-223.6-100.3-223.6-223.6S197.7 287.3 321 287.3h381c123.3 0 223.6 100.3 223.6 223.6S825.3 734.5 702 734.5zM702 386.6c-18.3 0-33.1 14.8-33.1 33.1s14.8 33.1 33.1 33.1 33.1-14.8 33.1-33.1c0-18.2-14.8-33.1-33.1-33.1z m0 182.2c-18.3 0-33.1 14.8-33.1 33.1S683.7 635 702 635s33.1-14.8 33.1-33.1c0-18.2-14.8-33.1-33.1-33.1z m-91.1-91.1c-18.3 0-33.1 14.8-33.1 33.1s14.8 33.1 33.1 33.1 33.1-14.8 33.1-33.1c0-18.2-14.8-33.1-33.1-33.1z m182.2 0c-18.3 0-33.1 14.8-33.1 33.1s14.8 33.1 33.1 33.1 33.1-14.8 33.1-33.1c0-18.2-14.8-33.1-33.1-33.1z" fill="#FCA128" /></svg>