<svg viewBox="0 0 1024 1024"><!-- an orange building with columns--><path d="M21.333333 810.666667h981.333334v42.666666H21.333333zM533.333333 384h85.333334v341.333333h-85.333334zM661.333333 384h85.333334v341.333333h-85.333334zM789.333333 384h85.333334v341.333333h-85.333334zM405.333333 384h85.333334v341.333333h-85.333334zM277.333333 384h85.333334v341.333333h-85.333334zM149.333333 384h85.333334v341.333333H149.333333zM917.333333 341.333333H106.666667v-64l405.333333-192 405.333333 192zM106.666667 725.333333h810.666666v42.666667H106.666667z" fill="#FF9800" /><path d="M533.333333 341.333333h85.333334v42.666667h-85.333334zM661.333333 341.333333h85.333334v42.666667h-85.333334zM789.333333 341.333333h85.333334v42.666667h-85.333334zM405.333333 341.333333h85.333334v42.666667h-85.333334zM277.333333 341.333333h85.333334v42.666667h-85.333334zM149.333333 341.333333h85.333334v42.666667H149.333333zM64 768h896v42.666667H64z" fill="#EF6C00" /></svg>