<svg viewBox="0 0 1024 1024"><!-- an orange padlock icon--><path d="M512 85.333333c-117.333333 0-213.333333 96-213.333333 213.333334v85.333333h85.333333v-85.333333c0-70.4 57.6-128 128-128s128 57.6 128 128v85.333333h85.333333v-85.333333c0-117.333333-96-213.333333-213.333333-213.333334z" fill="#424242" /><path d="M768 938.666667H256c-46.933333 0-85.333333-38.4-85.333333-85.333334V469.333333c0-46.933333 38.4-85.333333 85.333333-85.333333h512c46.933333 0 85.333333 38.4 85.333333 85.333333v384c0 46.933333-38.4 85.333333-85.333333 85.333334z" fill="#FB8C00" /></svg>