<svg viewBox="0 0 1024 1024"><!-- back award and ribbon --><path d="M396.8 926.72L362.24 768l-148.48 66.56 197.12-392.96 184.32 92.16L396.8 926.72z m-16.64-194.56l26.88 119.04 153.6-305.92L422.4 476.16 268.8 782.08l111.36-49.92z" fill="#231C1C" /><path d="M629.76 926.72L432.64 533.76l184.32-92.16 197.12 392.96L665.6 768l-35.84 158.72zM467.2 545.28l153.6 305.92 26.88-119.04 111.36 49.92-153.6-305.92-138.24 69.12z" fill="#231C1C" /><path d="M554.24 702.72l-89.6-49.92-101.12 12.8-42.24-92.16-89.6-49.92 19.2-99.84-42.24-92.16 74.24-69.12 19.2-99.84 101.12-12.8 74.24-69.12 89.6 49.92 101.12-12.8 42.24 92.16 89.6 49.92-17.92 98.56 42.24 92.16-74.24 69.12-19.2 99.84-101.12 12.8-75.52 70.4z m-83.2-76.8l79.36 44.8 66.56-62.72 90.88-11.52 17.92-89.6 66.56-62.72-38.4-83.2 17.92-89.6-80.64-44.8-38.4-83.2-89.6 12.8-80.64-44.8-66.56 62.72-90.88 11.52-17.92 89.6-66.56 62.72 38.4 83.2-17.92 89.6 80.64 44.8 38.4 83.2 90.88-12.8z" fill="#231C1C" /></svg>