<svg viewBox="0 0 1024 1024"><!-- big blue and white building --><path d="M67 709.3l470 212 420-210-494.4-166.6z" fill="#3ED6FF" /><path d="M431.8 809.3l-230-99v-561l230 60z" fill="#37BBEF" /><path d="M431.8 809.3l220-100v-551l-220 51z" fill="#2481BA" /><path d="M201.8 149.3l230 60 220-51-234.4-55.6z" fill="#3ED6FF" /><path d="M201.8 254.2l230 70.5v-20.9l-230-70.5zM431.8 423.7l-230-77.6v21.1l230 77.6zM431.8 660.2l-230-84.7v21.3l230 84.7zM431.8 541.6l-230-80.4v21.2l230 80.4z" fill="#FFFFFF" /><path d="M651.8 571.9l-219.9 88.3v21.3l219.9-88.7zM431.9 541.6v21.2l219.9-81.2v-21.1zM431.9 423.7v21.1l219.9-73.5v-21.1zM431.9 303.8v20.9l219.9-64.5v-21.3z" fill="#63AED3" /></svg>