<svg viewBox="0 0 1024 1024"><!-- big blue mountain --><path d="M761.5 774.8l-740.9 2 368.7-542.3z" fill="#B6CDEF" /><path d="M20.6 791.8c-5.5 0-10.6-3.1-13.2-8-2.6-4.9-2.3-10.9 0.8-15.5L376.9 226c2.8-4.1 7.4-6.6 12.4-6.6 4.9 0 9.6 2.4 12.4 6.5l372.2 540.3c3.2 4.6 3.5 10.5 0.9 15.5-2.6 4.9-7.7 8-13.2 8l-741 2.1z m368.8-530.7L49 761.7l684-1.8-343.6-498.8z" fill="#0F53A8" /><path d="M761.5 774.8l-271.7 2-100.5-542.3z" fill="#89B7F5" /><path d="M489.8 791.8c-7.2 0-13.4-5.2-14.7-12.3L374.5 237.2c-1.3-7 2.5-13.9 9-16.6 6.5-2.7 14.1-0.5 18.1 5.3l372.2 540.3c3.2 4.6 3.5 10.5 1 15.4-2.6 4.9-7.6 8-13.2 8.1l-271.7 2c0 0.1-0.1 0.1-0.1 0.1zM416.9 301l85.4 460.7 230.8-1.7-316.2-459z" fill="#0F53A8" /></svg>