<svg viewBox="0 0 1024 1024"><!-- black calendar --><path d="M220.07 474.64h218.92v72.97H220.07z" fill="#0F1F3C" /><path d="M183.24 365.79H767.5v179.04h72.97V145.66c0-39.87-32.44-72.31-72.31-72.31h-27.28c-29.11 0-54.91 16.68-65.74 42.51-5.7 13.58-27.79 13.52-33.46 0.02-10.81-25.83-36.61-42.53-65.74-42.53h-18.12c-29.11 0-54.91 16.68-65.74 42.51-5.7 13.58-27.79 13.52-33.46 0.02-10.81-25.83-36.61-42.53-65.74-42.53h-17.39c-29.11 0-54.91 16.68-65.74 42.51-5.7 13.58-27.79 13.52-33.46 0.02-10.81-25.83-36.61-42.53-65.74-42.53h-27.52c-39.87 0-72.29 32.44-72.29 72.31V948.9h327.29v-72.97H183.69l-0.45-510.14z m25.75-221.73c14.27 33.99 47.25 55.94 84.05 55.94 36.82 0 69.8-21.97 82.47-53.68l15.8-2.26c14.27 33.99 47.25 55.94 84.05 55.94 36.82 0 69.8-21.97 82.47-53.68l16.53-2.26c14.27 33.99 47.25 55.94 84.05 55.94 36.82 0 69.8-21.97 82.47-53.68l26.62-0.66v147.15H183.18l-0.13-146.5 25.94-2.25z" fill="#0F1F3C" /></svg>