<svg viewBox="0 0 1024 1024"><!-- black book border --><path d="M641.6 192c-72 0-124.8 28.8-124.8 28.8S462.4 192 390.4 192c-35.2 0-76.8 8-116.8 28.8v364.8s52.8-28.8 124.8-28.8c35.2 0 76.8 8 116.8 28.8 41.6-22.4 81.6-28.8 116.8-28.8 72 0 124.8 28.8 124.8 28.8V220.8C718.4 198.4 678.4 192 641.6 192z m-142.4 352c-32-12.8-65.6-19.2-100.8-19.2s-68.8 6.4-92.8 14.4V240c27.2-11.2 54.4-17.6 84.8-17.6 57.6 0 102.4 20.8 108.8 24V544z m227.2-4.8c-24-8-56-14.4-92.8-14.4-35.2 0-68.8 6.4-100.8 19.2V248c6.4-3.2 51.2-24 108.8-24 30.4 0 59.2 6.4 84.8 17.6v297.6z" fill="" /></svg>