<svg viewBox="0 0 1024 1024"><!-- black book --><path d="M219.51 475.38h219.43v73.14H219.51z" fill="#0F1F3C" /><path d="M182.61 366.27h585.62v179.48h73.14V145.62c0-39.96-32.5-72.48-72.46-72.48h-27.36c-29.2 0-55.05 16.73-65.88 42.59-5.71 13.61-27.84 13.64-33.55 0-10.86-25.88-36.71-42.59-65.89-42.59h-18.16c-29.2 0-55.05 16.73-65.88 42.59-5.71 13.61-27.84 13.64-33.55 0-10.86-25.88-36.71-42.59-65.89-42.59h-17.43c-29.2 0-55.05 16.73-65.88 42.59-5.71 13.61-27.84 13.64-33.55 0-10.86-25.88-36.71-42.59-65.89-42.59h-27.57c-39.96 0-72.48 32.52-72.48 72.48v805.12h401.21V877.6H183.04l-0.43-511.33zM208.42 144c14.27 34.07 47.32 56.09 84.23 56.09 36.89 0 69.95-22 82.66-53.8l15.86-2.29c14.27 34.07 47.32 56.09 84.23 56.09 36.89 0 69.95-22 82.66-53.8l16.59-2.29c14.27 34.07 47.32 56.09 84.23 56.09 36.89 0 69.95-22 82.66-53.8l26.68-0.66v147.5H182.54l-0.12-146.84 26-2.29z" fill="#0F1F3C" /></svg>