<svg viewBox="0 0 1024 1024"><!-- black lightning bolt border --><path d="M492.8 793.6c-1.28 0-2.56 0-5.12-1.28-6.4-2.56-8.96-8.96-7.68-15.36l51.2-222.72-58.88-7.68c-3.84 0-7.68-2.56-10.24-6.4s-2.56-7.68 0-11.52l163.84-317.44c2.56-5.12 10.24-8.96 15.36-6.4 6.4 2.56 8.96 8.96 7.68 15.36l-51.2 231.68 67.84 7.68c3.84 0 7.68 2.56 10.24 6.4s1.28 8.96 0 11.52L503.04 787.2c-1.28 3.84-6.4 6.4-10.24 6.4z m1.28-268.8l55.04 6.4c3.84 0 6.4 2.56 8.96 5.12 2.56 2.56 2.56 6.4 2.56 10.24L524.8 696.32l119.04-213.76-62.72-6.4c-3.84 0-6.4-2.56-8.96-5.12s-2.56-6.4-2.56-10.24l33.28-148.48L494.08 524.8z" fill="#231C1C" /></svg>