<svg viewBox="0 0 1024 1024"><!-- black triangle --><path d="M141.8 511.6l371 371 371-371-371-371-371 371z m371 405.7c-3.7 0-7.4-1.4-10.2-4.2L111.3 521.7c-2.7-2.7-4.2-6.4-4.2-10.2s1.5-7.5 4.2-10.2L502.6 110c5.6-5.6 14.7-5.6 20.3 0l391.3 391.3c2.7 2.7 4.2 6.4 4.2 10.2 0 3.8-1.5 7.5-4.2 10.2L522.9 913.1c-2.8 2.8-6.4 4.2-10.1 4.2z" fill="#333E48" /><path d="M390.1 637.1H323c-7.9 0-14.4 6.4-14.4 14.4s6.4 14.4 14.4 14.4h67.1c7.9 0 14.4-6.4 14.4-14.4s-6.4-14.4-14.4-14.4zM706.7 637.1H632c-7.9 0-14.4 6.4-14.4 14.4s6.4 14.4 14.4 14.4h74.7c7.9 0 14.4-6.4 14.4-14.4s-6.5-14.4-14.4-14.4z" fill="#333E48" /></svg>