<svg viewBox="0 0 1024 1024"><!-- black battery border --><path d="M729.6 896H396.8c-21.76 0-38.4-16.64-38.4-38.4V166.4c0-21.76 16.64-38.4 38.4-38.4h76.8V115.2c0-21.76 16.64-38.4 38.4-38.4h102.4c21.76 0 38.4 16.64 38.4 38.4v12.8h76.8c21.76 0 38.4 16.64 38.4 38.4v691.2c0 21.76-16.64 38.4-38.4 38.4zM396.8 153.6c-7.68 0-12.8 5.12-12.8 12.8v691.2c0 7.68 5.12 12.8 12.8 12.8h332.8c7.68 0 12.8-5.12 12.8-12.8V166.4c0-7.68-5.12-12.8-12.8-12.8h-89.6c-7.68 0-12.8-5.12-12.8-12.8V115.2c0-7.68-5.12-12.8-12.8-12.8h-102.4c-7.68 0-12.8 5.12-12.8 12.8v25.6c0 7.68-5.12 12.8-12.8 12.8h-89.6z" fill="#231C1C" /></svg>