<svg viewBox="0 0 1024 1024"><!-- black dots --><path d="M633.02 437.811c0-15.133 21.162-39.145 21.162-39.145s21.162 24.011 21.162 39.145c0 15.133-9.475 27.401-21.162 27.401-11.688 0.001-21.162-12.267-21.162-27.401zM763.346 437.811c0-15.133 21.162-39.145 21.162-39.145s21.163 24.011 21.163 39.145c0 15.133-9.475 27.401-21.163 27.401-11.687 0.001-21.162-12.267-21.162-27.401zM242.037 437.811c0-15.133 21.163-39.145 21.163-39.145s21.162 24.011 21.162 39.145c0 15.133-9.475 27.401-21.162 27.401-11.688 0.001-21.163-12.267-21.163-27.401zM347.893 437.811c0-15.133 21.162-39.145 21.162-39.145s21.162 24.011 21.162 39.145c0 15.133-9.474 27.401-21.162 27.401-11.687 0.001-21.162-12.267-21.162-27.401z" fill="#152B3C" /></svg>