<svg viewBox="0 0 1024 1024"><!-- black white and green semicircle --><path d="M733.1 411.2c-0.2-0.2-0.4-0.4-0.7-0.5l-169-113.4c-0.2-0.2-0.5-0.3-0.7-0.4L546.4 286l23.1-34.4c20.2-30 53.8-47.9 90-47.9 21.5 0 42.3 6.4 60.2 18.4l23.2 15.5c49.5 33.3 62.8 100.6 29.5 150.2l-23.1 34.4-16.2-11z" fill="" /><path d="M586.4 262.9c27.1-40.2 81.6-51 121.9-24l23.2 15.5c40.2 27.1 50.9 81.6 24 121.9l-11.7 17.4-169-113.4 11.6-17.4z" fill="#FFFFFF" /><path d="M715.1 265.2a87.88 87.88 0 0 0-121.9 24l-1.6 2.5 152.2 102.2 11.7-17.4a86.87 86.87 0 0 0 14.4-57.4c-6.4-15-17.1-28.5-31.6-38.3l-23.2-15.6z" fill="#2AEFC8" /></svg>