<svg viewBox="0 0 1024 1024"><!-- black baby --><path d="M878.268646 411.441486H166.792021c-29.103938 55.562063-45.649085 118.744066-45.649085 185.841871 0 54.32735 10.830193 106.079443 30.409205 153.316016h741.956386c19.543735-47.236573 30.409205-99.023943 30.409205-153.316016-0.035278-67.097805-16.580425-130.279808-45.649086-185.841871zM343.35591 650.481827c-39.016915 0-70.660833-31.643918-70.660833-70.660833 0-39.016915 31.643918-70.660833 70.660833-70.660833s70.660833 31.643918 70.660833 70.660833c0 39.016915-31.60864 70.660833-70.660833 70.660833z m348.57698 0c-39.016915 0-70.660833-31.643918-70.660833-70.660833 0-39.016915 31.643918-70.660833 70.660833-70.660833 39.016915 0 70.660833 31.643918 70.660833 70.660833 0 39.016915-31.60864 70.660833-70.660833 70.660833zM225.564337 326.14049c64.557825 37.358873 168.167844 61.594515 284.971647 61.594515 126.081786 0 236.676749-28.222 299.541254-70.731388-72.953871-75.105798-174.941124-121.848486-287.899679-121.848486-117.509353 0-223.200744 50.51738-296.613222 130.985359z" fill="#200C04" /></svg>