<svg viewBox="0 0 1024 1024"><!-- black broken container --><path d="M960 608a32 32 0 0 0-32 32v288h-288a32 32 0 0 0 0 64h320a32 32 0 0 0 32-32V640a32 32 0 0 0-32-32zM512 928h-128a32 32 0 0 0 0 64h128a32 32 0 0 0 0-64zM278.72 937.28a32 32 0 0 0-34.88-6.72 29.76 29.76 0 0 0-10.56 6.72 32 32 0 0 0-6.72 10.56A32 32 0 0 0 224 960a32 32 0 0 0 54.72 22.72 37.12 37.12 0 0 0 6.72-10.56 30.08 30.08 0 0 0 0-24.32 29.76 29.76 0 0 0-6.72-10.56zM128 928H96v-288a32 32 0 0 0-64 0v320a32 32 0 0 0 32 32h64a32 32 0 0 0 0-64z" fill="#231815" /></svg>