<svg viewBox="0 0 1024 1024"><!-- black ring--><path d="M499.449926 970.328053c-227.875089 0-413.266955-217.646344-413.266956-485.166095S271.574837 0 499.449926 0s413.262818 217.642206 413.262817 485.161958-185.387729 485.166096-413.262817 485.166095z m0-938.797698c-210.487877 0-381.732463 203.499063-381.732463 453.631603 0 250.136678 171.244585 453.639878 381.732463 453.639878s381.736601-203.5032 381.7366-453.639878c0-250.13254-171.248723-453.631603-381.7366-453.631603z" fill="#332C2B" /><path d="M499.449926 783.243809c-140.50042 0-254.804164-133.718497-254.804164-298.081851 0-164.363354 114.307881-298.08599 254.804164-298.08599 140.50042 0 254.804164 133.718497 254.804163 298.08599 0 164.363354-114.303743 298.081852-254.804163 298.081851z m0-564.633348c-123.113209 0-223.273809 119.575354-223.273809 266.551497s100.1606 266.555635 223.273809 266.555634 223.277947-119.575354 223.277946-266.555634S622.563134 218.610461 499.449926 218.610461z" fill="#332C2B" /></svg>