<svg viewBox="0 0 1024 1024"><!-- black clock and folder --><path d="M960 160H384V64a32 32 0 0 0-32-32H136.96A104.96 104.96 0 0 0 32 136.96v558.08A104.96 104.96 0 0 0 136.96 800h128a256 256 0 0 0 495.04 0h128A104.96 104.96 0 0 0 992 695.04V192a32 32 0 0 0-32-32zM512 928a192 192 0 1 1 192-192 192 192 0 0 1-192 192z m416-608H576a32 32 0 0 0 0 64h352v311.04A40.96 40.96 0 0 1 887.04 736H768a256 256 0 0 0-512 0H136.96A40.96 40.96 0 0 1 96 695.04V136.96A40.96 40.96 0 0 1 136.96 96H320v96a32 32 0 0 0 32 32h576z" fill="#231815" /><path d="M608 704h-64v-96a32 32 0 0 0-64 0v128a32 32 0 0 0 32 32h96a32 32 0 0 0 0-64z" fill="#231815" /></svg>