<svg viewBox="0 0 1024 1024"><!-- black heart --><path d="M794.58 587.73c-37.39 0-73 17.96-94.7 47.39l-55.75 70.84 43.11 33.93 56.27-71.52c11.91-16.14 31.02-25.79 51.07-25.79 35.29 0 64 28.71 64 64 0 9.27-1.96 18.14-6.04 26.89-3.07 6.86-7.43 13.25-12.62 18.45L721.44 870.41 602.95 751.93c-5.2-5.2-9.55-11.59-12.84-18.93-3.86-8.27-5.82-17.14-5.82-26.41 0-35.29 28.71-64 64-64 3.86 0 7.66 0.36 11.34 1l9.57-54c-6.79-1.21-13.77-1.86-20.91-1.86-65.54 0-118.86 53.32-118.86 118.86 0 17.36 3.7 34.07 10.79 49.18 5.84 13.14 13.89 24.89 23.95 34.95l157.27 157.27L878.7 790.71c10.05-10.05 18.11-21.8 23.73-34.46 7.3-15.59 11-32.3 11-49.66 0.01-65.54-53.31-118.86-118.85-118.86z" fill="#0F1F3C" /></svg>