<svg viewBox="0 0 1024 1024"><!-- black letter A --><path d="M355.84 313.6a36.8 36.8 0 0 0-13.12 18.56l-107.52 312.96a37.44 37.44 0 0 0 2.56 35.52 32 32 0 0 0 24.96 10.56 27.84 27.84 0 0 0 17.28-5.76 43.84 43.84 0 0 0 10.56-13.44 100.16 100.16 0 0 0 7.04-15.36l4.8-12.8 17.6-49.92h118.72l24.96 69.76a45.76 45.76 0 0 0 10.88 19.2 28.8 28.8 0 0 0 20.48 8.32h2.24a27.52 27.52 0 0 0 27.84-15.68 41.28 41.28 0 0 0 0-29.44l-107.84-313.6a36.8 36.8 0 0 0-13.44-19.2 44.16 44.16 0 0 0-48 0.32z m24.32 96l41.6 125.44h-83.2z" fill="#231815" /></svg>