<svg viewBox="0 0 1024 1024"><!-- black balloon --><path d="M718.08 416a32 32 0 0 0-42.88 14.72A184.96 184.96 0 0 1 512 544c-107.52 0-192-108.48-192-247.36C320 115.52 454.4 96 512 96a32 32 0 0 0 0-64c-157.76 0-256 101.44-256 264.64 0 144.96 77.44 263.36 185.92 299.52L416 696.32A32 32 0 0 0 448 736h78.4a412.8 412.8 0 0 1-36.8 41.28c-47.04 47.04-10.24 124.16-6.08 132.8l32 64a32 32 0 0 0 57.28-28.48l-32-64c-7.68-15.68-16.32-48.64-6.08-59.2 54.4-54.4 78.72-96 72.32-124.8l-24.96-99.84a261.12 261.12 0 0 0 150.72-139.2 32 32 0 0 0-14.72-42.56z m-183.04 256h-46.08l16-64h14.08zM747.84 180.16a32 32 0 1 0-59.52 23.36A256 256 0 0 1 704 296.64v21.44a32 32 0 0 0 29.44 33.92H736a32 32 0 0 0 32-30.08v-25.28a320 320 0 0 0-20.16-116.48zM627.84 125.12a32 32 0 0 0 41.6-41.92 37.44 37.44 0 0 0-6.72-10.56 32 32 0 0 0-45.44 0A33.6 33.6 0 0 0 608 96a32 32 0 0 0 9.28 22.72 38.08 38.08 0 0 0 10.56 6.4z" fill="#231815" /><path d="M499.52 224a32 32 0 1 0-10.56-64C423.04 173.12 384 227.84 384 308.48a212.16 212.16 0 0 0 26.56 105.6 32 32 0 1 0 55.36-32 148.48 148.48 0 0 1-17.92-73.6c0-34.24 8.96-76.16 51.52-84.48z" fill="#231815" /></svg>