<svg viewBox="0 0 1024 1024"><!-- black speech bubble --><path d="M897.138 952.999c-20.093 4.317-166.864-71.461-188.563-71.461-138.861 0-251.415-94.193-251.415-210.379 0-116.195 112.554-210.39 251.415-210.39C847.412 460.77 960 554.965 960 671.159c0 66.435-36.811 125.679-94.276 164.237-6.283 4.187-6.19 12.286-2.698 22.315l34.112 95.288z" fill="#152B3C" /><path d="M708.575 460.77c-138.861 0-251.415 94.195-251.415 210.391 0 56.248 26.541 107.22 69.518 144.967 3.157-0.723 5.842-1.162 7.804-1.162 186.783 0 344.007-105.498 391.507-249.133-43.518-62.751-124.487-105.063-217.414-105.063z" fill="#030504" /></svg>