<svg viewBox="0 0 1024 1024"><!-- black icon --><path d="M182.67 365.88H768.3v179.46h73.14V145.21c0-39.96-32.52-72.46-72.48-72.46h-27.34c-29.18 0-55.04 16.71-65.89 42.61-5.68 13.57-27.89 13.55-33.54 0.02-10.84-25.89-36.7-42.62-65.89-42.62h-18.16c-29.18 0-55.04 16.71-65.89 42.61-5.68 13.57-27.89 13.55-33.54 0.02-10.84-25.89-36.7-42.62-65.89-42.62h-17.43c-29.18 0-55.04 16.71-65.89 42.61-5.68 13.57-27.89 13.55-33.54 0.02-10.84-25.89-36.7-42.62-65.89-42.62h-27.59c-39.96 0-72.46 32.5-72.46 72.46v805.14h401.2v-73.14h-328.1l-0.45-511.36z m25.8-222.26c14.29 34.05 47.36 56.05 84.25 56.05 36.91 0 69.98-22.02 82.66-53.79l15.84-2.27c14.29 34.05 47.36 56.05 84.25 56.05 36.91 0 69.98-22.02 82.66-53.79l16.57-2.27c14.29 34.05 47.36 56.05 84.25 56.05 36.91 0 69.98-22.02 82.66-53.79l26.68-0.68V292.7H182.6l-0.13-146.84 26-2.24z" fill="#0F1F3C" /></svg>