<svg viewBox="0 0 1024 1024"><!-- black green and red balls --><path d="M516.432 188.927m-124.927 0a124.927 124.927 0 1 0 249.854 0 124.927 124.927 0 1 0-249.854 0Z" fill="#152B3C" /><path d="M420.285 317.961m-124.927 0a124.927 124.927 0 1 0 249.854 0 124.927 124.927 0 1 0-249.854 0Z" fill="#0DB14B" /><path d="M517.726 214.184c-52.888 14.536-91.792 62.838-91.792 120.343s38.904 105.807 91.792 120.343c52.889-14.536 91.794-62.838 91.794-120.343s-38.905-105.806-91.794-120.343z" fill="#030504" /><path d="M600.561 317.961m-124.927 0a124.927 124.927 0 1 0 249.854 0 124.927 124.927 0 1 0-249.854 0Z" fill="#FF3B30" /></svg>