<svg viewBox="0 0 1024 1024"><!-- black and red battery --><path d="M902.487 414.609h-57.513V609.39h57.513c31.793 0 57.513-8.711 57.513-19.478V434.087c0-10.767-25.719-19.478-57.513-19.478z" fill="#152B3C" /><path d="M882.085 609.391V379.302c0-44.967-36.595-81.563-81.563-81.563H145.566c-44.968 0-81.566 36.595-81.566 81.563v265.391c0 44.969 36.598 81.568 81.566 81.568h654.956c44.968 0 81.563-36.599 81.563-81.568v-35.302z" fill="#FF3B30" /><path d="M815.09 299.212c8.298 12.771 13.235 27.925 13.235 44.253V608.853c0 44.966-36.596 81.568-81.563 81.568H91.807c-4.99 0-9.826-0.609-14.572-1.471 14.559 22.395 39.693 37.311 68.332 37.311h654.955c44.968 0 81.563-36.602 81.563-81.568V379.305c0-39.979-28.978-73.181-66.995-80.093z" fill="" /></svg>