<svg viewBox="0 0 1024 1024"><!-- black and gray document --><path fill="#D9D9D9" d="M534 352V136H232v752h560V394H576a42 42 0 0 1-42-42zm-22 424c-17.7 0-32-14.3-32-32s14.3-32 32-32 32 14.3 32 32-14.3 32-32 32zm110-228.4c.7 44.9-29.7 84.5-74.3 98.9-5.7 1.8-9.7 7.3-9.7 13.3V672c0 5.5-4.5 10-10 10h-32c-5.5 0-10-4.5-10-10v-32c.2-19.8 15.4-37.3 34.7-40.1C549 596.2 570 574.3 570 549c0-28.1-25.8-51.5-58-51.5s-58 23.4-58 51.6c0 5.2-4.4 9.4-9.8 9.4h-32.4c-5.4 0-9.8-4.1-9.8-9.5 0-57.4 50.1-103.7 111.5-103 59.3.8 107.7 46.1 108.5 101.6z"/><path d="M854.6 288.7L639.4 73.4c-6-6-14.2-9.4-22.7-9.4H192c-17.7 0-32 14.3-32 32v832c0 17.7 14.3 32 32 32h640c17.7 0 32-14.3 32-32V311.3c0-8.5-3.4-16.6-9.4-22.6zM602 137.8L790.2 326H602V137.8zM792 888H232V136h302v216a42 42 0 0 0 42 42h216v494z"/></svg>