<svg viewBox="0 0 1024 1024"><!-- black house icon --><path d="M781.7 914.7H619.1c-12.7 0-23-10.3-23-23V721.5c0-38.9-37.8-70.5-84.2-70.5s-84.2 31.6-84.2 70.5v170.2c0 12.7-10.3 23-23 23H242.3c-12.7 0-23-10.3-23-23V475.1c0-12.7 10.3-23 23-23h280.8c12.7 0 23 10.3 23 23s-10.3 23-23 23H265.3v370.8H382V721.5c0-64.2 58.3-116.4 130.1-116.4s130.1 52.2 130.1 116.4v147.3h116.7V673.1c0-12.7 10.3-23 23-23s23 10.3 23 23v218.7c-0.3 12.6-10.5 22.9-23.2 22.9z" fill="#1A1A1A" /><path d="M880.7 562.6h-99.2c-12.7 0-23-10.3-23-23s10.3-23 23-23h99.2c15.3 0 24.9-6.8 26.7-11.6 0.3-0.8 1-2.5-3-6.1L535.8 162.8c-11.1-10.1-36.5-10.1-47.6 0L119.5 499c-3.9 3.6-3.3 5.3-3 6.1 1.9 4.8 11.4 11.6 26.8 11.6h99c12.7 0 23 10.3 23 23s-10.3 23-23 23h-99c-32.6 0-59.9-16.1-69.6-40.9-7.7-19.9-2.2-41.1 14.8-56.6L457.2 129c28.6-26.1 80.8-26.1 109.4 0l368.7 336.2c17 15.5 22.6 36.7 14.8 56.6-9.5 24.7-36.8 40.8-69.4 40.8z" fill="#1A1A1A" /><path d="M788.1 396.4h-48.8c-12.7 0-23-10.3-23-23s10.3-23 23-23h48.1V236.6h-80.6v87.8c0 12.7-10.3 23-23 23s-23-10.3-23-23v-88.6c0-24.9 20.3-45.2 45.2-45.2h82.1c24.9 0 45.2 20.3 45.2 45.2v115.4c0 24.9-20.3 45.2-45.2 45.2z" fill="#1A1A1A" /></svg>