<svg viewBox="0 0 1024 1024"><!-- black yen symbol --><path fill="#333" d="M438.9 323.5a9.88 9.88 0 0 0-8.9-5.5h-46c-1.7 0-3.3.4-4.8 1.2-4.9 2.7-6.6 8.8-4 13.6l88 161.1H418c-5.5 0-10 4.5-10 10v21.3c0 5.5 4.5 10 10 10h63.1v29.7H418c-5.5 0-10 4.5-10 10v21.3c0 5.5 4.5 10 10 10h63.1V658c0 5.5 4.5 10 10 10h41.3c5.5 0 10-4.5 10-10v-51.8h63.4c5.5 0 10-4.5 10-10v-21.3c0-5.5-4.5-10-10-10h-63.4v-29.7h63.4c5.5 0 10-4.5 10-10v-21.3c0-5.5-4.5-10-10-10h-45.7l87.7-161.1c.8-1.5 1.2-3.1 1.1-4.8 0-5.5-4.5-10-10-10h-45a10 10 0 0 0-8.9 5.5l-73.2 144.3-72.9-144.3z"/></svg>