<svg viewBox="0 0 1024 1024"><!-- blue ocean --><path d="M938.666667 768c-64 0-85.333333-42.666667-85.333334-42.666667s-21.333333 42.666667-85.333333 42.666667-85.333333-42.666667-85.333333-42.666667-21.333333 42.666667-85.333334 42.666667-85.333333-42.666667-85.333333-42.666667-21.333333 42.666667-85.333333 42.666667-85.333333-42.666667-85.333334-42.666667-21.333333 42.666667-85.333333 42.666667-85.333333-42.666667-85.333333-42.666667-21.333333 42.666667-85.333334 42.666667v170.666667h853.333334v-170.666667z" fill="#90CAF9" /><path d="M938.666667 853.333333c-64 0-85.333333-42.666667-85.333334-42.666666s-21.333333 42.666667-85.333333 42.666666-85.333333-42.666667-85.333333-42.666666-21.333333 42.666667-85.333334 42.666666-85.333333-42.666667-85.333333-42.666666-21.333333 42.666667-85.333333 42.666666-85.333333-42.666667-85.333334-42.666666-21.333333 42.666667-85.333333 42.666666-85.333333-42.666667-85.333333-42.666666-21.333333 42.666667-85.333334 42.666666v85.333334h853.333334v-85.333334z" fill="#2196F3" /></svg>