<svg viewBox="0 0 1024 1024"><!-- blue circle and star --><path d="M731.56 585.06c-100.99 0-182.86 81.87-182.86 182.86s81.87 182.86 182.86 182.86c100.99 0 182.86-81.87 182.86-182.86s-81.87-182.86-182.86-182.86z m0 292.57c-60.5 0-109.71-49.22-109.71-109.71 0-60.5 49.22-109.71 109.71-109.71 60.5 0 109.71 49.22 109.71 109.71 0 60.49-49.22 109.71-109.71 109.71zM754.16 744.17l-22.6-45.74-22.61 45.74-50.54 7.34 36.58 35.61-8.64 50.28 45.21-23.74 45.2 23.74-8.63-50.28 36.57-35.61z" fill="#0F1F3C" /></svg>