<svg viewBox="0 0 1024 1024"><!-- blue computer screen and arrow --><path d="M548.58 292.57v-85.46l47.29 47.29 51.71-51.71L512.01 67.11 376.44 202.68l51.71 51.71 47.29-47.29v85.46H109.71v548.57h804.57V292.57h-365.7zM841.14 768H182.86V365.71h658.29V768z" fill="#0F1F3C" /><path d="M219.35 877.7h585.14v73.14H219.35z" fill="#0F1F3C" /><!-- blue yen symbol --><path d="M393.62 496.34v73.14h81.82v22.02h-79.18v73.14h79.18v76.24h73.14v-76.24h79.16V591.5h-79.16v-22.02h81.8v-73.14h-39.1l55.07-55.07-51.72-51.72-82.62 82.63-82.64-82.63-51.72 51.72 55.08 55.07z" fill="#0F1F3C" /></svg>