<svg viewBox="0 0 1024 1024"><!-- blue film strip --><path d="M960 192H64v640h896V192zM469.333333 789.333333v-85.333333h85.333334v85.333333h-85.333334z m170.666667 0v-85.333333h85.333333v85.333333h-85.333333z m170.666667 0v-85.333333h85.333333v85.333333h-85.333333z m-512 0v-85.333333h85.333333v85.333333h-85.333333z m-170.666667 0v-85.333333h85.333333v85.333333H128z m341.333333-469.333333v-85.333333h85.333334v85.333333h-85.333334z m170.666667 0v-85.333333h85.333333v85.333333h-85.333333z m170.666667 0v-85.333333h85.333333v85.333333h-85.333333z m-512 0v-85.333333h85.333333v85.333333h-85.333333z m-170.666667 0v-85.333333h85.333333v85.333333H128z" fill="#3F51B5" /></svg>