<svg viewBox="0 0 1024 1024"><!-- blue hand --><path d="M731.25 547.39v72.93H475.06v54.59c0 19.89 4.93 38.51 13.04 55.34h-38.49l-194.73-128c-28.84-18.98-65.64-20.57-96.07-4.18a93.73 93.73 0 0 0-49.29 82.57c0 32.05 16.09 61.54 43.04 78.88l238.79 153.77h339.9v36.57H914.1V547.39H731.25z m-318.4 292.75l-220.7-142.12a20.6 20.6 0 0 1-9.48-17.38c0-11.12 7.59-16.43 10.86-18.2 3.29-1.73 11.88-5.18 21.18 0.91l213.02 140.04h230.7v-73.14h-0.71v-0.04h-54.2c-23.98 0-44.46-15.36-52.11-36.75h179.85v146.68H412.85z m428.11 36.57h-36.57V620.53h36.57v256.18z" fill="#0F1F3C" /></svg>