<svg viewBox="0 0 1024 1024"><!-- blue computer server --><path d="M447.5 960.3l-321-110v-642l321 82z" fill="#37BBEF" /><path d="M447.5 960.3l450-240v-600l-450 170z" fill="#2481BA" /><path d="M126.5 208.3l321 82 450-170-344.4-56.6z" fill="#3ED6FF" /><path d="M400.3 348.9v80l-239-60v-80l239 60z m-239 48.3l239 60v-10l-239-60v10z m0 23l239 60v-10l-239-60v10z m0 23l239 60v-10l-239-60v10z" fill="#D4F7FF" /><path d="M175.7 308.4v34l210.2 53v-34zM175.7 363.4l210.2 53v-13.3l-210.2-53z" fill="#113B42" /><path d="M379.5 540.8c-9.4-3.4-17 1.6-17 11.2s7.6 20.1 17 23.2 17-1.9 17-11.2-7.6-19.8-17-23.2zM379.5 603.6c-3.9-1.2-7 1-7 4.9s3.1 8.1 7 9.3 7-1 7-4.9c0-3.9-3.1-8-7-9.3z" fill="#FFFFFF" /></svg>