<svg viewBox="0 0 1024 1024"><!-- blue cloth --><path d="M379.1 603h314.1v391.6H379.1z" fill="#89B7F5" /><path d="M693.2 1009.6H379.1c-8.3 0-15-6.7-15-15V603c0-8.3 6.7-15 15-15h314.1c8.3 0 15 6.7 15 15v391.6c0 8.3-6.7 15-15 15z m-299.1-30h284.1V618H394.1v361.6z" fill="#0F53A8" /><path d="M693.2 603H405.7v-41.1h226.5z" fill="#89B7F5" /><path d="M693.2 618H405.7c-8.3 0-15-6.7-15-15v-41.2c0-8.3 6.7-15 15-15h226.4c3 0 5.9 0.9 8.4 2.6l61.1 41.2c5.5 3.7 7.9 10.5 6 16.8-2 6.3-7.8 10.6-14.4 10.6z m-272.5-30h223.4l-16.6-11.2H420.7V588z" fill="#0F53A8" /><path d="M632.2 918.7H329.4V592.5c0-16.9 13.7-30.6 30.6-30.6h272.1v356.8z" fill="#B6CDEF" /><path d="M632.2 933.7H329.4c-8.3 0-15-6.7-15-15V592.5c0-25.1 20.5-45.6 45.6-45.6h272.1c8.3 0 15 6.7 15 15v356.8c0.1 8.3-6.7 15-14.9 15z m-287.8-30h272.7V576.9H360c-8.6 0-15.6 7-15.6 15.6v311.2z" fill="#0F53A8" /></svg>