<svg viewBox="0 0 1024 1024"><!-- blue document --><path d="M183 146.2h585.15v402.28h73.14V73.06H109.86v877.71h402.16v-73.14H183z" fill="#0F1F3C" /><path d="M256.14 219.34H695v73.14H256.14zM256.14 365.63h365.71v73.14H256.14zM256.14 511.91h219.43v73.14H256.14z" fill="#0F1F3C" /><!-- blue circle and line --><path d="M731.57 585.06c-100.99 0-182.86 81.87-182.86 182.86s81.87 182.86 182.86 182.86 182.86-81.87 182.86-182.86-81.87-182.86-182.86-182.86z m0 292.57c-60.5 0-109.71-49.22-109.71-109.71 0-60.5 49.22-109.71 109.71-109.71 60.5 0 109.71 49.22 109.71 109.71 0 60.49-49.21 109.71-109.71 109.71zM658.16 740.48h146.29v54.86H658.16z" fill="#0F1F3C" /></svg>