<svg viewBox="0 0 1024 1024"><!-- blue scissor --><path d="M776.4 570.2c-5.6 0-11.2 0.9-17.1 2.7L719 532.6 825.6 426c5.3-5.3 5.3-14 0-19.3-2.6-2.6-6-4-9.6-4-3.6 0-7.1 1.4-9.6 4L699.7 513.3 593.1 406.7c-2.6-2.6-6-4-9.6-4s-7.1 1.4-9.6 4c-5.3 5.3-5.3 13.9 0 19.3l106.6 106.6-40.3 40.3c-5.9-1.8-11.5-2.7-17.1-2.7-33.2 0-60.3 27-60.3 60.3 0 33.2 27 60.3 60.3 60.3 33.2 0 60.2-27 60.2-60.3 0-16.4-6.8-31.9-18.8-43.4l35.2-35.2 35.3 35.2c-12 11.4-18.8 26.9-18.8 43.4 0 33.2 27 60.3 60.3 60.3 33.2 0 60.3-27 60.3-60.3-0.2-33.2-27.2-60.3-60.4-60.3z m33 60.3c0 18.2-14.8 33-33 33s-33-14.8-33-33 14.8-33 33-33 33 14.8 33 33z m-153.4 0c0 18.2-14.8 33-33 33s-33-14.8-33-33 14.8-33 33-33 33 14.8 33 33z" fill="#6D9EE8" /></svg>