<svg viewBox="0 0 1024 1024"><!-- blue and pink bowl --><path d="M728.944 869.432V1008H299.88v-138.568" fill="#0092D2" /><path d="M1028.832 391.968c0 238.08-137.696 513.704-514.416 513.704-398.48 0-514.416-275.624-514.416-513.704h1028.832z" fill="#E5297F" /><path d="M510.128 905.48c1.496 0.032 2.792 0.192 4.288 0.192 376.72 0 514.416-275.624 514.416-513.704H510.128v513.512z" fill="#D3296E" /><path d="M798.84 391.968c0 238.08-76.128 513.704-284.424 513.704-220.32 0-284.424-275.624-284.424-513.704h568.848z" fill="#F73786" /><path d="M798.84 391.968H510.128v513.344c1.496 0.032 2.792 0.36 4.288 0.36 208.296 0 284.424-275.624 284.424-513.704z" fill="#E01E88" /></svg>