<svg viewBox="0 0 1024 1024"><!-- blue number 2 --><path d="M409.6 426.666667H192v-42.666667l102.4-108.8c8.533333-8.533333 14.933333-17.066667 19.2-23.466667 4.266667-6.4 10.666667-12.8 12.8-19.2 4.266667-6.4 6.4-10.666667 6.4-17.066666 2.133333-4.266667 2.133333-10.666667 2.133333-14.933334 0-14.933333-4.266667-25.6-10.666666-34.133333-6.4-8.533333-17.066667-12.8-29.866667-12.8-6.4 0-14.933333 2.133333-19.2 4.266667-6.4 2.133333-10.666667 6.4-14.933333 10.666666-4.266667 4.266667-6.4 10.666667-8.533334 17.066667s-2.133333 12.8-2.133333 21.333333h-64c0-14.933333 2.133333-27.733333 8.533333-40.533333 4.266667-12.8 12.8-23.466667 21.333334-34.133333 10.666667-8.533333 21.333333-17.066667 34.133333-23.466667 12.8-6.4 29.866667-8.533333 46.933333-8.533333 17.066667 0 32 2.133333 44.8 6.4 12.8 4.266667 23.466667 10.666667 32 17.066666s14.933333 17.066667 19.2 27.733334c4.266667 10.666667 6.4 23.466667 6.4 38.4 0 10.666667-2.133333 21.333333-4.266666 29.866666s-8.533333 19.2-14.933334 29.866667-12.8 19.2-21.333333 29.866667c-8.533333 10.666667-19.2 21.333333-29.866667 32l-55.466666 59.733333h136.533333V426.666667z" fill="#2196F3" /></svg>