<svg viewBox="0 0 1024 1024"><!-- blue speech bubbles with dots in them--><path d="M891.2 905c-2.6 0-5.2-0.7-7.5-2.1L691.6 787.6H318.4c-58.9 0-106.9-47.9-106.9-106.9V322.1c0-58.9 47.9-106.9 106.9-106.9h571.7c58.9 0 106.9 47.9 106.9 106.9v358.7c0 54-40.2 98.7-92.2 105.9l1 103.8c0 5.2-2.7 10.1-7.3 12.7-2.3 1.1-4.8 1.8-7.3 1.8zM318.4 244.2c-42.9 0-77.9 34.9-77.9 77.9v358.7c0 42.9 34.9 77.9 77.9 77.9h377.2c2.6 0 5.2 0.7 7.5 2.1l173.5 104.1-0.8-91.5c0-3.9 1.5-7.6 4.2-10.3 2.7-2.7 6.4-4.3 10.3-4.3 42.9 0 77.9-34.9 77.9-77.9V322.1c0-42.9-34.9-77.9-77.9-77.9H318.4z" fill="#154B8B" /><path d="M376 499.8a47.3 44.8 0 1 0 94.6 0 47.3 44.8 0 1 0-94.6 0Z" fill="#144884" /><path d="M557 499.8a47.3 44.8 0 1 0 94.6 0 47.3 44.8 0 1 0-94.6 0Z" fill="#144884" /><path d="M737.9 499.8a47.3 44.8 0 1 0 94.6 0 47.3 44.8 0 1 0-94.6 0Z" fill="#144884" /></svg>