<svg viewBox="0 0 1024 1024"><!-- blue rectangle --><path d="M640 106.666667H384c-46.933333 0-85.333333 38.4-85.333333 85.333333v640c0 46.933333 38.4 85.333333 85.333333 85.333333h256c46.933333 0 85.333333-38.4 85.333333-85.333333V192c0-46.933333-38.4-85.333333-85.333333-85.333333zM384 832V192h256v640H384z" fill="#90CAF9" /><path d="M810.666667 810.666667m-213.333334 0a213.333333 213.333333 0 1 0 426.666667 0 213.333333 213.333333 0 1 0-426.666667 0Z" fill="#43A047" /><!-- white cross --><path d="M768 682.666667h85.333333v256h-85.333333z" fill="#FFFFFF" /><path d="M682.666667 768h256v85.333333H682.666667z" fill="#FFFFFF" /></svg>