<svg viewBox="0 0 1024 1024"><!-- blue triangle pattern --><path d="M433.91 636.82l-55.33 61.61 55.33 23.9v-85.51zM191.91 632.82l-55.33 61.61 55.33 23.9v-85.51zM467.17 402.77l-55.33 61.62 55.33 23.89v-85.51zM655.17 820.77l-55.33 61.62 55.33 23.89v-85.51zM405.17 198.77l-55.33 61.62 55.33 23.89v-85.51zM275.17 250.77l-55.33 61.62 55.33 23.89v-85.51zM660.01 448.08l-55.33 61.62 55.33 23.89v-85.51zM758.04 571.14l-55.33 61.62 55.33 23.89v-85.51zM862.59 358.4l-55.33 61.62 55.33 23.89V358.4z" fill="#1B193A" /></svg>