<svg viewBox="0 0 1024 1024"><!-- blue circle arrows --><path d="M880.4 158c0-11-9-20-20-20H510c-50 0-98.5 9.8-144.2 29.1-44.1 18.7-83.7 45.4-117.7 79.4-34 34-60.7 73.6-79.4 117.7-19.3 45.7-29.1 94.2-29.1 144.2 0 11 9 20 20 20s20-9 20-20C179.6 326.2 327.8 178 510 178h281.3v54.5c0 8.9 10.7 13.3 17 7l67.1-67.1c1.6-1.6 2.5-3.4 2.8-5.3 1.4-2.7 2.2-5.8 2.2-9.1zM860.4 488.4c-11 0-20 9-20 20 0 182.2-148.2 330.4-330.4 330.4H230.3V783c0-8.9-10.7-13.3-17-7l-67.1 67.1c-1 1-1.8 2.2-2.3 3.4-2.7 3.4-4.3 7.7-4.3 12.4 0 11 9 20 20 20H510c50 0 98.5-9.8 144.2-29.1 44.1-18.7 83.7-45.4 117.7-79.4 34-34 60.7-73.6 79.4-117.7 19.3-45.7 29.1-94.2 29.1-144.2 0-11.1-8.9-20.1-20-20.1z" fill="#005BFF" /></svg>