<svg viewBox="0 0 1024 1024"><!-- blue and yellow flip flop --><path d="M856 544C760 432 680 416 600 416s-172 16-330 128h100S488 472 600 472a240 240 0 0 1 174 72z" fill="#3DBADA" /><path d="M80 558.4a22.32 22.32 0 0 1 27.84-21.68A216.64 216.64 0 0 0 160 544h704a213.12 213.12 0 0 0 54.8-7.12 20 20 0 0 1 25.2 19.28V576a32 32 0 0 1-32 32H112a32 32 0 0 1-32-32z" fill="#FFD53E" /><path d="M795.68 552a16 16 0 0 0-1.12-2C791.44 546.24 718.32 456 600 456c-115.68 0-241.84 87.2-247.2 90.88a16 16 0 0 0-4.48 5.12zM600 488c64.4 0 114.48 32 143.04 56H419.6C465.12 519.36 536 488 600 488z" fill="#34373E" /></svg>