<svg viewBox="0 0 1024 1024"><!-- blue phone --><path d="M213.3 426.7c-94.1 0-170.7-76.6-170.7-170.7S119.2 85.3 213.3 85.3 384 161.9 384 256s-76.6 170.7-170.7 170.7z m0-256c-47.1 0-85.3 38.3-85.3 85.3s38.3 85.3 85.3 85.3 85.3-38.3 85.3-85.3-38.2-85.3-85.3-85.3zM768 981.3c-94.1 0-170.7-76.6-170.7-170.7S673.9 640 768 640s170.7 76.6 170.7 170.7S862.1 981.3 768 981.3z m0-256c-47.1 0-85.3 38.3-85.3 85.3 0 47.1 38.3 85.3 85.3 85.3s85.3-38.3 85.3-85.3-38.2-85.3-85.3-85.3z" fill="#3688FF" /><path d="M746.7 981.3c-236 0-656.7-416.9-703.4-697-3.9-23.2 11.8-45.2 35.1-49.1 23.4-3.9 45.2 11.8 49.1 35.1C166.4 504.2 554.1 896 746.7 896c23.6 0 42.7 19.1 42.7 42.7s-19.2 42.6-42.7 42.6z" fill="#3688FF" /></svg>