<svg viewBox="0 0 1024 1024"><!-- blue pen --><path d="M918.139 948.436s-423.361-52.942-455.396-63.876L318.518 617.846c-2.042-3.785-4.583-7.261-7.639-10.273-18.002-18.045-17.072-48.351 2.083-67.531l211.58-212.147c18.584-18.504 49.956-19.478 67.233-2.04 3.067 3.055 6.5 5.609 10.273 7.731l266.173 144.563c16.194 47.079 75.391 267.087 88.274 449.525L734.567 719.236c18.505-31.954 14.396-73.344-12.951-100.674-32.56-32.603-85.399-32.603-117.988 0-32.601 32.603-32.56 85.441 0 118.042 27.331 27.251 68.747 31.4 100.675 12.896l213.836 198.936z" fill="#2577FF" /></svg>