<svg viewBox="0 0 1024 1024"><!-- blue water drops --><path d="M671.739 422.409m-44.263 0a44.263 44.263 0 1 0 88.526 0 44.263 44.263 0 1 0-88.526 0Z" fill="#2577FF" /><path d="M671.739 407.481m-20.004 0a20.004 20.004 0 1 0 40.008 0 20.004 20.004 0 1 0-40.008 0Z" fill="#FFFFFF" /><path d="M873.373 94.992m-28.636 0a28.636 28.636 0 1 0 57.272 0 28.636 28.636 0 1 0-57.272 0Z" fill="#2577FF" /><path d="M161.991 667.365c0-25.715 46.559-83.858 46.559-83.858s46.561 58.143 46.561 83.858c0 25.714-20.846 46.559-46.561 46.559-25.714 0-46.559-20.846-46.559-46.559z" fill="#2577FF" /></svg>