<svg viewBox="0 0 1024 1024"><!-- blue stamp --><path d="M840.67 804.62L803.07 716c12.49-15.63 19.96-35.45 19.96-57.02 0-50.5-40.93-91.43-91.43-91.43-50.49 0-91.43 40.93-91.43 91.43 0 21.63 7.52 41.51 20.08 57.16l-37.54 88.48h-74.28v146.35h365.71V804.62h-73.47zM731.61 622.41c20.17 0 36.57 16.41 36.57 36.57 0 20.17-16.41 36.57-36.57 36.57s-36.57-16.41-36.57-36.57 16.4-36.57 36.57-36.57z m-24.85 124.58a91.32 91.32 0 0 0 24.85 3.42c8.67 0 17.06-1.21 25-3.46l24.47 57.68h-98.77l24.45-57.64zM859.3 896.12h-256v-36.64h256v36.64z" fill="#0F1F3C" /></svg>