<svg viewBox="0 0 1024 1024"><!-- blue calendar --><path d="M960 224v608c0 35.3-28.7 64-64 64H128c-35.3 0-64-28.7-64-64V224c0-17.7 14.3-32 32-32h832c17.7 0 32 14.3 32 32z" fill="#3D5AFE" /><path d="M224 319.8c-17.7 0-32-14.3-32-32V160c0-17.7 14.3-32 32-32s32 14.3 32 32v127.8c0 17.7-14.3 32-32 32zM800 319.8c-17.7 0-32-14.3-32-32V160c0-17.7 14.3-32 32-32s32 14.3 32 32v127.8c0 17.7-14.3 32-32 32z" fill="#536DFE" /><path d="M660.8 704.3H224c-17.7 0-32-14.3-32-32s14.3-32 32-32h461.4c12.1-40.6 18.6-83.5 18.6-128H224c-17.7 0-32-14.3-32-32s14.3-32 32-32h475.5c-14.2-99.8-61.3-189-130-256.3H256v95.8c0 17.7-14.3 32-32 32s-32-14.3-32-32V192H96c-17.7 0-32 14.3-32 32v608c0 35.3 28.7 64 64 64h358.9c75.1-45.2 135.9-112 173.9-191.7z" fill="#536DFE" /><path d="M192 287.8c0 17.7 14.3 32 32 32s32-14.3 32-32V192h-64v95.8z" fill="#8C9EFF" /></svg>