<svg viewBox="0 0 1024 1024"><!-- blue table --><path d="M992 672H32a32 32 0 0 0-32 32v256a32 32 0 0 0 32 32h960a32 32 0 0 0 32-32v-256a32 32 0 0 0-32-32z" fill="#469FCC" /><path d="M832 992h128v32h-128zM64 992h128v32H64z" fill="#434854" /><path d="M320 800H160a32 32 0 1 0 0 64h160a32 32 0 1 0 0-64zM864 800h-160a32 32 0 1 0 0 64h160a32 32 0 1 0 0-64z" fill="#DAE2E5" /><path d="M320 864H160a31.584 31.584 0 0 1-27.104-16A30.88 30.88 0 0 0 128 864a32 32 0 0 0 32 32h160a32 32 0 0 0 32-32 30.88 30.88 0 0 0-4.896-16 31.584 31.584 0 0 1-27.104 16zM891.104 848A31.584 31.584 0 0 1 864 864h-160a31.584 31.584 0 0 1-27.104-16 30.88 30.88 0 0 0-4.896 16 32 32 0 0 0 32 32h160a32 32 0 0 0 32-32 30.88 30.88 0 0 0-4.896-16z" fill="" /></svg>