<svg viewBox="0 0 1024 1024"><!-- blue belts --><path d="M200.5 211h129v714.3h-129z" fill="#89B7F5" /><path d="M329.5 940.4h-129c-8.3 0-15-6.7-15-15V211c0-8.3 6.7-15 15-15h129c8.3 0 15 6.7 15 15v714.3c0 8.4-6.8 15.1-15 15.1z m-114-30h99V226h-99v684.4z" fill="#0F53A8" /><path d="M696.5 211h129v714.3h-129z" fill="#89B7F5" /><path d="M825.5 940.4h-129c-8.3 0-15-6.7-15-15V211c0-8.3 6.7-15 15-15h129c8.3 0 15 6.7 15 15v714.3c0 8.4-6.7 15.1-15 15.1z m-114-30h99V226h-99v684.4z" fill="#0F53A8" /><path d="M390.6 632.8c-8.3 0-15-6.7-15-15V473.1c0-8.3 6.7-15 15-15s15 6.7 15 15v144.7c0 8.3-6.7 15-15 15zM635.4 632.8c-8.3 0-15-6.7-15-15V473.1c0-8.3 6.7-15 15-15s15 6.7 15 15v144.7c0 8.3-6.8 15-15 15z" fill="#0F53A8" /></svg>