<svg viewBox="0 0 1024 1024"><!-- blue curve --><path d="M508.2 309.3c-6.6 0-12.3-4.8-13.2-11.4-1.6-12.5-15.5-123 0.7-166.6 6.5-17.5 30.5-44.6 61.5-47.3 18.4-1.6 45.3 5 69 45.2 8.7 14.8 22.4 32.1 38.2 30.3 6.9-0.8 14.5-5.2 21.4-12.5 6.6-6.9 11-14.8 12.5-19.5 6.9-22.5 2-87.8-0.5-111.1-0.8-7.1 4.6-13.5 11.9-14.3 7.3-0.7 13.9 4.4 14.6 11.6 1 9.1 9.2 89.7-0.5 121.3-5.7 18.4-27.5 47.1-56.4 50.4-1.9 0.2-3.7 0.3-5.5 0.3-27.3 0-46.9-23.2-58.8-43.5-13.4-22.7-28.1-33.6-43.6-32.3-18.9 1.6-35 20.2-38.7 30.2-11.8 32-3.5 122.3 0.7 154.5 0.9 7.1-4.2 13.6-11.5 14.5-0.7 0.1-1.2 0.2-1.8 0.2z" fill="#10457E" /></svg>