<svg viewBox="0 0 1024 1024"><!-- blue lines and magnifying glass --><path d="M255.66 219.34h438.86v73.14H255.66zM255.66 365.63h365.71v73.14H255.66zM255.66 511.91h219.43v73.14H255.66zM910.72 897.47l-56.19-56.19c17.6-26.2 27.91-57.72 27.91-91.65 0-90.89-73.68-164.57-164.57-164.57S553.3 658.74 553.3 749.63 626.98 914.2 717.87 914.2c30.4 0 58.52-8.82 82.96-23.19L859 949.18l51.72-51.71zM626.45 749.63c0-50.42 41.02-91.43 91.43-91.43s91.43 41.01 91.43 91.43c0 50.41-41.02 91.43-91.43 91.43s-91.43-41.02-91.43-91.43z" fill="#0F1F3C" /></svg>