<svg viewBox="0 0 1024 1024"><!-- blue bitcoin symbol --><path d="M542.12 630.75c10.73 0 19.46 8.73 19.46 19.48 0 10.73-8.73 19.46-19.46 19.46h-57v-38.95h57z m-57-54.86v-38.95h57c10.73 0 19.46 8.73 19.46 19.48 0 10.73-8.73 19.46-19.46 19.46h-57z m-0.54-93.8h-54.32V724.55h54.32V768H365.72V438.86h118.86v43.23z m54.86 242.46h2.68c40.98 0 74.32-33.34 74.32-74.32 0-17.87-6.6-34.07-17.15-46.91 10.55-12.83 17.15-29.03 17.15-46.9 0-40.98-33.34-74.34-74.32-74.34h-2.68v-43.23h118.85V768H539.44v-43.45z" fill="#0F1F3C" /></svg>