<svg viewBox="0 0 1024 1024"><!-- blue and purple coordinate axes --><path d="M970.613 897.67H55.454c-25.734 0-46.588 23.407-46.588 52.283v3.736c0 28.876 20.854 52.284 46.588 52.284h915.16c25.734 0 46.59-23.408 46.59-52.284v-3.736c-0.001-28.876-20.856-52.283-46.591-52.283z" fill="#C45FA0" /><path d="M66.425 15.049h-3.736c-28.876 0-52.284 20.551-52.284 45.901v901.601c0 25.353 23.407 45.9 52.284 45.9h3.736c28.876 0 52.284-20.548 52.284-45.9V60.95c0-25.35-23.408-45.901-52.284-45.901z" fill="#4A5699" /></svg>