<svg viewBox="0 0 1024 1024"><!-- blue tv --><path d="M960 1002.666667H64a42.666667 42.666667 0 0 1-42.666667-42.666667V64a42.666667 42.666667 0 0 1 42.666667-42.666667h896a42.666667 42.666667 0 0 1 42.666667 42.666667v896a42.666667 42.666667 0 0 1-42.666667 42.666667z" fill="#8680D8" /><path d="M64 64h896v682.666667H64zM896 896H597.333333a21.333333 21.333333 0 1 1 0-42.666667h298.666667a21.333333 21.333333 0 1 1 0 42.666667z" fill="#5757B2" /><path d="M661.333333 896H128a21.333333 21.333333 0 1 1 0-42.666667h533.333333a21.333333 21.333333 0 1 1 0 42.666667z" fill="#EF8EC3" /><path d="M640 960c-47.04 0-85.333333-38.293333-85.333333-85.333333s38.293333-85.333333 85.333333-85.333334 85.333333 38.293333 85.333333 85.333334-38.293333 85.333333-85.333333 85.333333z" fill="#FFFFFF" /></svg>