<svg viewBox="0 0 1024 1024"><!-- blue clothes hanger --><path d="M129.2 618c-22.1 0-41.8-13.2-50.1-33.8-8.3-20.7-3.3-44 12.8-59.3 0.5-0.5 1-0.9 1.5-1.3l404.7-295.4c5.2-3.8 12.2-3.9 17.5-0.2l413 290.4c0.5 0.4 1.1 0.8 1.5 1.2 16.4 15.1 21.8 38.4 13.8 59.2-8.1 20.8-27.7 34.4-50.1 34.5L129.5 618h-0.3z m764.4-34.5l0.1 15-0.1-15c10.2-0.1 18.6-5.8 22.3-15.3 3.6-9.3 1.5-18.8-5.5-25.7L507.1 258.8 112 547.2c-6.9 7-8.8 16.6-5.1 25.8 3.8 9.4 12.1 15 22.3 15h0.2l764.2-4.5zM517.4 197.4c-8.3 0-15-6.7-15-15s6.7-15 15-15c32.4 0 58.7-26.3 58.7-58.7S549.8 50 517.4 50c-18.2 0-35.1 8.3-46.3 22.6-5.1 6.5-14.5 7.7-21.1 2.6-6.5-5.1-7.7-14.5-2.6-21.1 16.9-21.7 42.5-34.2 70-34.2 48.9 0 88.7 39.8 88.7 88.7 0 49-39.7 88.8-88.7 88.8z" fill="#0F53A8" /><path d="M511.3 255.4c-8.3 0-15-6.7-15-15v-57.9c0-8.3 6.7-15 15-15s15 6.7 15 15v57.9c0 8.2-6.7 15-15 15z" fill="#0F53A8" /></svg>