<svg viewBox="0 0 1024 1024"><!-- blue pill --><path d="M195.2 534.4l147.2-147.2c73.6-1.6 140.8 28.8 203.2 91.2 62.4 62.4 92.8 129.6 91.2 203.2l-147.2 147.2c-81.6 81.6-212.8 81.6-294.4 0s-81.6-212.8 0-294.4z" fill="#2F4BFF" /><path d="M217.6 556.8c-68.8 68.8-68.8 180.8 0 249.6s180.8 68.8 249.6 0l339.2-339.2c68.8-68.8 68.8-180.8 0-249.6s-180.8-68.8-249.6 0L217.6 556.8z m-22.4-22.4l339.2-339.2c81.6-81.6 212.8-81.6 294.4 0s81.6 212.8 0 294.4L489.6 828.8c-81.6 81.6-212.8 81.6-294.4 0s-81.6-212.8 0-294.4z" fill="#050D42" /></svg>