<svg viewBox="0 0 1024 1024"><!-- blue s --><path d="M744.533333 620.8c-57.6-57.6-151.466667-57.6-209.066666 0l-85.333334 85.333333c-36.266667 36.266667-96 36.266667-132.266666 0-36.266667-36.266667-36.266667-96 0-132.266666l96-96-59.733334-59.733334-96 96c-70.4 70.4-70.4 183.466667 0 251.733334 70.4 70.4 183.466667 70.4 251.733334 0l85.333333-85.333334c25.6-23.466667 64-23.466667 89.6 0 23.466667 25.6 23.466667 64 0 89.6L576 878.933333l59.733333 59.733334 108.8-108.8c57.6-57.6 57.6-151.466667 0-209.066667z" fill="#37474F" /></svg>