<svg viewBox="0 0 1024 1024"><!-- blue foundation --><path d="M61.2 747.7V621.8c0-37.6 30.5-68.1 68.1-68.1h762.9c37.6 0 68.1 30.5 68.1 68.1v125.9c0 37.6-30.5 68.1-68.1 68.1H129.3c-37.6 0-68.1-30.5-68.1-68.1z" fill="#9BCFDD" /><path d="M892.2 828.8H129.3c-44.7 0-81.1-36.4-81.1-81.1V621.8c0-44.7 36.4-81.1 81.1-81.1h762.9c44.7 0 81.1 36.4 81.1 81.1v125.9c0.1 44.7-36.3 81.1-81.1 81.1zM129.3 566.6c-30.4 0-55.1 24.7-55.1 55.1v125.9c0 30.4 24.7 55.1 55.1 55.1h762.9c30.4 0 55.1-24.7 55.1-55.1V621.8c0-30.4-24.7-55.1-55.1-55.1H129.3z" fill="#154B8B" /></svg>