<svg viewBox="0 0 1024 1024"><!-- blue location --><path d="M243.073 676.639v0.031l5.982 6.327c1.499 1.589 2.93 3.179 4.487 4.737h0.064L512.091 960l258.36-272.266c0.312-0.306 0.626-0.651 0.938-0.965l4.61-4.896 4.929-5.203v-0.031l0.184-0.218c62.157-67.736 96.389-155.429 96.389-246.92C877.501 227.971 713.53 64 512.031 64c-201.567 0-365.532 163.971-365.532 365.501 0 91.427 34.226 179.121 96.383 246.92l0.191 0.218z" fill="#2577FF" /><path d="M512.031 619.934c105.239 0 190.588-85.319 190.588-190.587 0-105.243-85.35-190.592-190.588-190.592-105.307 0-190.657 85.35-190.657 190.592 0 105.268 85.351 190.587 190.657 190.587z" fill="#EEEEEE" /></svg>