<svg viewBox="0 0 1024 1024"><!-- blue books --><path d="M900.64 356.27c0.02-0.13 0.13-0.21 0.14-0.34-0.02 0.13-0.12 0.22-0.14 0.34z" fill="#FDF5F2" /><path d="M146.1 786.12c0-30.21 24.59-54.8 54.8-54.8h200.87v-73.14H310.81c-30.21 0-54.8-24.59-54.8-54.8 0-30.23 24.59-54.82 54.8-54.82h127.98v-73.14H200.76c-30.21 0-54.8-24.59-54.8-54.8s24.59-54.8 54.8-54.8h512.4c70.57 0 128-57.43 128-128s-57.43-128-128-128H310.87c-70.57 0-128 57.43-128 128 0 19.9 4.96 38.52 13.1 55.34-68.29 2.58-123.16 58.55-123.16 127.46s54.85 124.87 123.14 127.46c-8.13 16.81-13.08 35.42-13.08 55.31s4.95 38.5 13.08 55.3c-68.21 2.67-123 58.59-123 127.45 0 70.55 57.39 127.95 127.95 127.95h274.57v-73.14H200.9c-30.21-0.02-54.8-24.61-54.8-54.83z m164.77-603.17h402.29c30.25 0 54.86 24.61 54.86 54.86s-24.61 54.86-54.86 54.86H310.87c-30.25 0-54.86-24.61-54.86-54.86s24.61-54.86 54.86-54.86z" fill="#0F1F3C" /></svg>