<svg viewBox="0 0 1024 1024"><!-- blue cloud --><path d="M503.40864 315.43296m-243.75296 0a243.75296 243.75296 0 1 0 487.50592 0 243.75296 243.75296 0 1 0-487.50592 0Z" fill="#F2FAFE" /><path d="M295.31136 669.25568l-0.01024-0.03072-3.21536 0.03072C188.47744 669.25568 104.27392 586.88512 102.43072 484.57728L102.4 481.1776C102.4 377.28256 187.33056 293.0688 292.08576 293.0688c95.56992 0 174.62272 70.07232 187.77088 161.2288l4.15744-0.01024v-1.25952c0-118.2208 95.68256-214.29248 214.45632-216.19712l3.60448-0.03072c120.4224 0 218.0608 96.80896 218.0608 216.22784 0 119.41888-97.62816 216.22784-218.0608 216.22784l2.41664-0.02048v0.02048H295.3216z" fill="#DFF1FB" /></svg>