<svg viewBox="0 0 1024 1024"><!-- blue speech bubble --><path d="M114.8 561.9l-0.8 92.6 151.1-92.6h291.3c39.4 0 71.3-32.6 71.3-72.9V206c0-40.3-31.9-72.9-71.3-72.9H114.8c-39.4 0-71.3 32.6-71.3 72.9v283c0 40.3 31.9 72.9 71.3 72.9z" fill="#9ED5E4" /><path d="M114 669.1c-2.5 0-4.9-0.6-7.1-1.9-4.6-2.6-7.4-7.5-7.4-12.7l0.7-79.3C59.8 568.1 29 532.2 29 489V206c0-48.2 38.5-87.4 85.8-87.4h441.5c47.3 0 85.8 39.2 85.8 87.4v283c0 48.2-38.5 87.4-85.8 87.4H269.2l-147.6 90.5c-2.4 1.4-5 2.2-7.6 2.2z m0.8-521.5C83.5 147.6 58 173.8 58 206v283c0 32.2 25.5 58.4 56.9 58.4 3.9 0 7.6 1.5 10.3 4.3 2.7 2.7 4.2 6.5 4.2 10.3l-0.6 66.5 128.8-79c2.3-1.4 4.9-2.1 7.6-2.1h291.3c31.4 0 56.9-26.2 56.9-58.4V206c0-32.2-25.5-58.4-56.9-58.4H114.8z" fill="#154B8B" /><path d="M890.1 773.1l1.1 117.4-195.6-117.4H318.4c-51 0-92.4-41.4-92.4-92.4V322.1c0-51 41.4-92.4 92.4-92.4h571.7c51 0 92.4 41.4 92.4 92.4v358.7c0 50.9-41.3 92.3-92.4 92.3z" fill="#FAFCFC" /></svg>