<svg viewBox="0 0 1024 1024"><!-- blue calendar --><path d="M219.62 474.55h219.43v73.14H219.62z" fill="#0F1F3C" /><path d="M182.71 365.45h585.62v142.89h73.14V144.8c0-39.96-32.5-72.48-72.46-72.48h-27.36c-29.2 0-55.05 16.73-65.88 42.59-5.71 13.61-27.84 13.64-33.55 0-10.86-25.88-36.71-42.59-65.89-42.59h-18.16c-29.16 0-55.02 16.71-65.88 42.59-5.71 13.61-27.84 13.61-33.55 0-10.86-25.88-36.71-42.59-65.88-42.59h-17.45c-29.2 0-55.05 16.73-65.88 42.59-5.71 13.61-27.84 13.64-33.55 0-10.86-25.88-36.71-42.59-65.89-42.59h-27.57c-39.96 0-72.48 32.52-72.48 72.48v805.12h401.21v-73.14h-328.1l-0.44-511.33z m25.82-222.27c14.27 34.07 47.32 56.09 84.23 56.09 36.89 0 69.95-22 82.66-53.8l15.86-2.27c14.3 34.07 47.36 56.07 84.23 56.07 36.89 0 69.95-22 82.66-53.8l16.59-2.29c14.27 34.07 47.32 56.09 84.23 56.09 36.89 0 69.95-22 82.66-53.8l26.68-0.66v147.5H182.65l-0.13-146.84 26.01-2.29z" fill="#0F1F3C" /></svg>