<svg viewBox="0 0 1024 1024"><!-- blue delivery truck --><path d="M950.87 109.71H365.72V256h-139.7l-39.48 197.41L73.15 529v275.57h114.31c16.24 63.09 73.51 109.71 141.68 109.71 68.16 0 125.44-46.62 141.68-109.71h118.93c16.24 63.09 73.51 109.71 141.68 109.71 68.16 0 125.44-46.62 141.68-109.71h77.76V109.71zM329.14 841.14c-40.33 0-73.14-32.81-73.14-73.14s32.81-73.14 73.14-73.14 73.14 32.81 73.14 73.14-32.81 73.14-73.14 73.14z m402.29 0c-40.33 0-73.14-32.81-73.14-73.14s32.81-73.14 73.14-73.14 73.14 32.81 73.14 73.14-32.81 73.14-73.14 73.14z m146.29-109.71h-4.62c-16.24-63.09-73.51-109.71-141.68-109.71-68.16 0-125.44 46.62-141.68 109.71H470.82c-16.24-63.09-73.51-109.71-141.68-109.71-68.16 0-125.44 46.62-141.68 109.71h-41.17V568.14l106.04-70.7 33.66-168.3h79.73v219.43h73.14V182.86h438.86v548.57z" fill="#0F1F3C" /></svg>