<svg viewBox="0 0 1024 1024"><!-- blue phone --><path d="M563.2 723.2s85.333333-55.466667 102.4-64c17.066667-8.533333 36.266667-12.8 46.933333-4.266667 17.066667 10.666667 160 104.533333 172.8 113.066667 12.8 8.533333 17.066667 32 2.133334 55.466667-17.066667 23.466667-91.733333 117.333333-123.733334 115.2-32 0-179.2 8.533333-433.066666-243.2C76.8 441.6 85.333333 294.4 85.333333 262.4s91.733333-108.8 115.2-123.733333c23.466667-17.066667 46.933333-10.666667 55.466667 2.133333 8.533333 12.8 102.4 155.733333 113.066667 172.8 6.4 10.666667 4.266667 29.866667-4.266667 46.933333-8.533333 17.066667-64 102.4-64 102.4s14.933333 59.733333 106.666667 153.6c93.866667 91.733333 155.733333 106.666667 155.733333 106.666667z" fill="#2196F3" /></svg>