<svg viewBox="0 0 1024 1024"><!-- blue ribbon --><path d="M814.2 1016.4c-19.6 0-39.2-4.5-57.1-13.5L530.8 889.2c-11.7-5.9-25.8-5.9-37.5 0L267 1002.9c-37.2 18.7-81.3 17.9-118.1-1.9-35.3-19-58.1-52.3-62.6-91.3-0.6-4.9-0.9-9.9-0.9-15V129.4C85.3 58 143.4 0 214.7 0h594.6c71.3 0 129.4 58 129.4 129.4v765.3c0 5.1-0.3 10.1-0.9 15-4.5 39-27.4 72.2-62.6 91.3-19 10.2-40 15.4-61 15.4zM512 799.5c19.6 0 39.2 4.5 57.1 13.5l226.3 113.7c12.3 6.2 27 5.9 39.3-0.8 6.1-3.3 16.7-11.1 18.4-26 0.2-1.7 0.3-3.4 0.3-5.2V129.4c0-24.3-19.8-44-44-44H214.7c-24.3 0-44 19.8-44 44v765.3c0 1.8 0.1 3.5 0.3 5.2 1.7 15 12.3 22.8 18.4 26 12.3 6.7 27 6.9 39.3 0.8L455 813c17.8-9.1 37.4-13.5 57-13.5z" fill="#3688FF" /></svg>