<svg viewBox="0 0 1024 1024"><!-- blue mouse head --><path d="M765.866667 377.6L512 341.333333l-253.866667 36.266667c-19.2 2.133333-29.866667 25.6-17.066666 42.666667L277.333333 469.333333v106.666667c0 51.2 213.333333 149.333333 213.333334 149.333333 0 12.8 8.533333 21.333333 21.333333 21.333334s21.333333-8.533333 21.333333-21.333334c0 0 213.333333-98.133333 213.333334-149.333333v-106.666667l36.266666-49.066666c12.8-17.066667 2.133333-40.533333-17.066666-42.666667z" fill="#3F51B5" /><path d="M597.333333 458.666667a32 21.333333 90 1 0 42.666667 0 32 21.333333 90 1 0-42.666667 0Z" fill="#1A237E" /><path d="M384 458.666667a32 21.333333 90 1 0 42.666667 0 32 21.333333 90 1 0-42.666667 0Z" fill="#1A237E" /></svg>