<svg viewBox="0 0 1024 1024"><!-- blue rain drops --><path d="M257.96608 784.7424m29.63456 0l0 0q29.63456 0 29.63456 29.63456l0 93.15328q0 29.63456-29.63456 29.63456l0 0q-29.63456 0-29.63456-29.63456l0-93.15328q0-29.63456 29.63456-29.63456Z" fill="#DFF1FB" /><path d="M401.92 759.33696m29.63456 0l0 0q29.63456 0 29.63456 29.63456l0 93.15328q0 29.63456-29.63456 29.63456l0 0q-29.63456 0-29.63456-29.63456l0-93.15328q0-29.63456 29.63456-29.63456Z" fill="#DFF1FB" /><path d="M545.87392 784.7424m29.63456 0l0 0q29.63456 0 29.63456 29.63456l0 93.15328q0 29.63456-29.63456 29.63456l0 0q-29.63456 0-29.63456-29.63456l0-93.15328q0-29.63456 29.63456-29.63456Z" fill="#DFF1FB" /><path d="M689.8176 759.33696m29.63456 0l0 0q29.63456 0 29.63456 29.63456l0 93.15328q0 29.63456-29.63456 29.63456l0 0q-29.63456 0-29.63456-29.63456l0-93.15328q0-29.63456 29.63456-29.63456Z" fill="#DFF1FB" /></svg>