<svg viewBox="0 0 1024 1024"><!-- blue lamppost  --><path d="M481 19.2h39.7v980.1H481z" fill="#B6CDEF" /><path d="M520.7 1015.4H481c-8.9 0-16.2-7.2-16.2-16.2v-980c0-9 7.2-16.2 16.2-16.2h39.7c8.9 0 16.2 7.2 16.2 16.2v980.1c-0.1 8.9-7.3 16.1-16.2 16.1z m-23.6-32.3h7.4V35.3h-7.4v947.8z" fill="#0F53A8" /><path d="M455.5 627.9h90.7v371.4h-90.7z" fill="#89B7F5" /><path d="M546.2 1015.4h-90.7c-8.9 0-16.2-7.2-16.2-16.2V627.9c0-8.9 7.2-16.2 16.2-16.2h90.7c8.9 0 16.2 7.2 16.2 16.2v371.4c-0.1 8.9-7.3 16.1-16.2 16.1z m-74.6-32.3H530v-339h-58.3v339z" fill="#0F53A8" /></svg>