<svg viewBox="0 0 1024 1024"><!-- blue shield --><path d="M472.4 76.6c-49.3 38.9-144.2 109.5-285.9 115.2-31.5 1.3-57.4 26.1-58.4 57.6v421.3c0 20.8 10.1 40.4 27.2 52.4l321.4 226c21.5 14.3 49.5 14.3 71 0l321.2-226c17-12 27.2-31.5 27.2-52.3v-417-2.2c-1.1-31.4-26.9-56.1-58.2-57.4-141.8-5.9-236.6-78.4-286-117.4-22-17.4-57.6-17.5-79.5-0.2z" fill="#3D5AFE" /><path d="M704 511.9c0-182.6-109.3-339.7-266-409.5-54.1 38.3-137.8 84.7-251.7 89.3-31.4 1.2-57.2 26.2-58.3 57.6v421.3c0 20.8 10.1 40.4 27.2 52.4l282.5 198.6C594.6 851.9 704 694.7 704 511.9z" fill="#536DFE" /></svg>