<svg viewBox="0 0 1024 1024"><!-- blue puzzle piece --><path d="M903.9 547c0.4-58.5-31.8-113.9-77.1-140.1l1.1-176.6L648 200.5c-15.9-54.4-59.2-98.6-110.3-107S443 115 426.8 163.8L246.9 134v167.4c57.1 18.6 101 81.4 100.9 148.3-0.1 66.9-44 114.3-100.9 113v167.4L824 836.5l1.1-166.2c45.5-10.4 78.4-64.8 78.8-123.3z" fill="#1B9BDB" /><path d="M246.9 134l-126.8 91.1 181.8 37.7 36.3-113.5z" fill="#1B9BDB" /><path d="M344.6 199.6l116.5-86.8s27.1-23.4 66.6-20.6c38.9 2.7 76.5 27.6 99.8 64.1 17.7 27.7 20.2 44.1 20.2 44.1L520 296.7s-15-64.5-72.7-95.4c-41.5-22.3-75.5-13.6-92-6.6-6.8 2.8-10.7 4.9-10.7 4.9zM827.8 230.5L701 327l-0.9 176.6 126.7-96.7zM698.1 756.4l127.1-86.2v166.3l-128.1 95.4z" fill="#2481BA" /><path d="M729.7 742.6l119-82.2 8.5-33-124.4 91.1z" fill="#1B9BDB" /></svg>