<svg viewBox="0 0 1024 1024"><!-- blue square and magnifier --><path d="M925.88 873.8l-84.91-84.91c45.04-56.31 72.13-127.6 72.13-205.31 0-181.78-147.36-329.14-329.14-329.14-181.78 0-329.14 147.36-329.14 329.14s147.36 329.14 329.14 329.14c77.71 0 148.99-27.09 205.3-72.12l84.92 84.92 51.7-51.72z m-341.92-34.22c-141.16 0-256-114.84-256-256s114.84-256 256-256 256 114.84 256 256-114.84 256-256 256z" fill="#0F1F3C" /><path d="M182.87 183.21h658.28v108.97h73.14V110.07H109.72v804.57h182.47V841.5H182.87z" fill="#0F1F3C" /></svg>