<svg viewBox="0 0 1024 1024"><!-- blue and white rounded rectangle --><path d="M696.2 660.7H325.3c-123.3 0-224.2-100.9-224.2-224.2 0-123.3 100.9-224.2 224.2-224.2h370.9c123.3 0 224.2 100.9 224.2 224.2 0.1 123.3-100.8 224.2-224.2 224.2z" fill="#FAFCFC" /><path d="M696.2 673.7H325.3c-63.1 0-122.6-24.7-167.6-69.7C112.8 559.1 88 499.6 88 436.4s24.7-122.6 69.7-167.6c44.9-44.9 104.4-69.7 167.6-69.7h370.9c63.1 0 122.6 24.7 167.6 69.7 44.9 44.9 69.7 104.4 69.7 167.6S908.7 559.1 863.8 604s-104.4 69.7-167.6 69.7zM325.3 225.2c-56.2 0-109.2 22-149.2 62.1-40 40-62.1 93-62.1 149.2s22 109.2 62.1 149.2c40 40 93 62.1 149.2 62.1h370.9c56.2 0 109.2-22 149.2-62.1s62.1-93 62.1-149.2-22-109.2-62.1-149.2c-40-40-93-62.1-149.2-62.1H325.3z" fill="#154B8B" /></svg>