<svg viewBox="0 0 1024 1024"><!-- blue hand --><path d="M865.01 599.07c-30.39-16.39-67.2-14.82-96.07 4.18l-194.73 128h-38.49c8.11-16.83 13.04-35.45 13.04-55.34v-54.59H292.57v-72.93H109.72v402.47h182.86v-36.57h339.9l238.79-153.77c26.95-17.36 43.04-46.84 43.04-78.88a93.778 93.778 0 0 0-49.3-82.57zM219.43 877.71h-36.57V621.53h36.57v256.18z m612.22-178.67l-220.68 142.1h-318.4V694.46h179.85c-7.64 21.39-28.12 36.75-52.11 36.75h-54.2v0.04h-0.71v73.14h230.7l213.02-140.04c9.34-6.11 17.89-2.64 21.18-0.91 3.27 1.77 10.86 7.07 10.86 18.2a20.652 20.652 0 0 1-9.51 17.4z" fill="#0F1F3C" /></svg>