<svg viewBox="0 0 1024 1024"><!-- blue circular arrow --><path d="M661.333333 640l149.333334 119.466667V520.533333z" fill="#2196F3" /><path d="M810.666667 597.333333c-6.4 0-14.933333 0-21.333334 2.133334v85.333333c6.4-2.133333 14.933333-2.133333 21.333334-2.133333 70.4 0 128 57.6 128 128s-57.6 128-128 128-128-57.6-128-128c0-6.4 0-12.8 2.133333-19.2l-72.533333-57.6c-8.533333 23.466667-14.933333 49.066667-14.933334 76.8 0 117.333333 96 213.333333 213.333334 213.333333s213.333333-96 213.333333-213.333333-96-213.333333-213.333333-213.333334z" fill="#2196F3" /></svg>