<svg viewBox="0 0 1024 1024"><!-- bold lines --><path d="M670.976 653.248c0 12.288-10.048 22.4-22.4 22.4h-275.2c-12.288 0-22.4-10.048-22.4-22.4s10.112-22.4 22.4-22.4h275.2c12.352 0 22.4 10.112 22.4 22.4zM670.976 744.64c0 12.288-10.048 22.4-22.4 22.4h-275.2c-12.288 0-22.4-10.048-22.4-22.4s10.112-22.4 22.4-22.4h275.2a22.4 22.4 0 0 1 22.4 22.4zM670.976 836.032c0 12.288-10.048 22.4-22.4 22.4h-275.2c-12.288 0-22.4-10.048-22.4-22.4s10.112-22.4 22.4-22.4h275.2a22.4 22.4 0 0 1 22.4 22.4z" fill="" /></svg>