<svg viewBox="0 0 1024 1024"><!-- books --><path d="M146.65 786.29c0-30.21 24.59-54.8 54.82-54.8h200.85v-73.14h-90.96c-30.21 0-54.8-24.59-54.8-54.8s24.59-54.8 54.8-54.8h91.43v-73.14H201.33c-30.23 0-54.82-24.59-54.82-54.8 0-30.23 24.59-54.82 54.82-54.82H713.7c70.57 0 128-57.43 128-128s-57.43-128-128-128H311.42c-70.57 0-128 57.43-128 128 0 19.9 4.96 38.52 13.1 55.34-68.29 2.59-123.16 58.57-123.16 127.48 0 68.9 54.86 124.85 123.13 127.46-8.13 16.8-13.08 35.41-13.08 55.29 0 19.89 4.95 38.5 13.08 55.31-68.21 2.67-123 58.59-123 127.44 0 70.55 57.41 127.95 127.96 127.95h311.14v-73.14H201.47c-30.23-0.03-54.82-24.62-54.82-54.83z m164.77-603.18H713.7c30.25 0 54.86 24.61 54.86 54.86s-24.61 54.86-54.86 54.86H311.42c-30.25 0-54.86-24.61-54.86-54.86s24.61-54.86 54.86-54.86z" fill="#0F1F3C" /></svg>