<svg viewBox="0 0 1024 1024"><!-- bow tie --><path d="M408 592V432a24 24 0 0 1 0.72-5.6c-68.32-56-175.36-120.4-284-137.84-26.48-4.16-49.6 15.36-43.92 37.44A778.64 778.64 0 0 1 106.24 512a778.64 778.64 0 0 1-25.44 186c-5.68 22 17.44 41.6 43.92 37.44 108.56-17.36 216-81.6 284-137.84A24 24 0 0 1 408 592z" fill="#CB525F" /><path d="M408 408l208 0 0 208-208 0 0-208Z" fill="#BA1B2D" /><path d="M616 592V432a24 24 0 0 0-0.72-5.6c68.32-56 175.36-120.4 284-137.84 26.48-4.16 49.6 15.36 43.92 37.44A778.64 778.64 0 0 0 917.76 512a778.64 778.64 0 0 0 25.44 186c5.68 22-17.44 41.6-43.92 37.44-108.56-17.36-216-81.6-284-137.84A24 24 0 0 0 616 592z" fill="#CB525F" /><!-- red square --><path d="M408 408l208 0 0 208-208 0 0-208Z" fill="#953745" /></svg>