<svg viewBox="0 0 1024 1024"><!-- broken pentagon border --><path d="M960 252.736L771.008 64H86.4a22.528 22.528 0 0 0-22.4 22.4v851.2c0 12.352 10.112 22.4 22.4 22.4h851.2c12.288 0 22.4-10.048 22.4-22.4v-215.36a22.4 22.4 0 0 0-44.864 0V596.032h0.256c0 0.512-0.256 0.896-0.256 1.344a22.4 22.4 0 1 0 44.864 0c0-0.512-0.256-0.896-0.256-1.344H960v-96h-0.32c0.064-0.576 0.32-1.088 0.32-1.6a22.4 22.4 0 0 0-44.864 0c0 0.576 0.256 1.024 0.32 1.6H915.2V414.976h0.064l-0.064 0.384a22.4 22.4 0 0 0 44.8 0.064l-0.064-0.384H960V252.736z" fill="" /></svg>