<svg viewBox="0 0 1024 1024"><!-- brown and white ring --><path d="M512 448a149.333333 149.333333 0 1 1 0 298.666667 149.333333 149.333333 0 0 1 0-298.666667m0-21.333333c-94.101333 0-170.666667 76.565333-170.666667 170.666666s76.565333 170.666667 170.666667 170.666667 170.666667-76.565333 170.666667-170.666667-76.565333-170.666667-170.666667-170.666666z" fill="#5D4037" /><path d="M512 448a149.333333 149.333333 0 1 0 0 298.666667 149.333333 149.333333 0 0 0 0-298.666667z m0 234.666667a85.333333 85.333333 0 1 1 0-170.666667 85.333333 85.333333 0 0 1 0 170.666667z" fill="#FFF3E0" /></svg>