<svg viewBox="0 0 1024 1024"><!-- brown castle --><path d="M560.2 268.5V139.4h-96.4v129.1h-96.3v334.1h289V268.5z" fill="#934D10" /><path d="M769.5 361.8v43H708v-43h-51.9v43h-61.4v-43h-52v43h-61.4v-43h-51.9v43h-61.5v-43H316v43h-61.5v-43h-39v598.7h593V361.8z" fill="#B76C1A" /><path d="M632.1 553.8H391.9c-23 0-41.8 18.8-41.8 41.8v364.9h323.8V595.6c0-23-18.8-41.8-41.8-41.8z" fill="#DC8C3C" /><path d="M350.1 595.6v364.9H512V553.8H391.9c-23 0-41.8 18.8-41.8 41.8z" fill="#D67729" /><path d="M526.1 749.8h-28.2c-5.8 0-10.5-4.7-10.5-10.5v-10c0-5.8 4.7-10.5 10.5-10.5h28.2c5.8 0 10.5 4.7 10.5 10.5v10c0 5.8-4.7 10.5-10.5 10.5z" fill="#494847" /></svg>