<svg viewBox="0 0 1024 1024"><!-- brown box --><path d="M925.6 869.6H98.4c-22.4 0-40-17.6-40-40V296c0-22.4 17.6-40 40-40h826.4c22.4 0 40 17.6 40 40v533.6c0.8 21.6-17.6 40-39.2 40z" fill="#D6AB7F" /><path d="M952 314.4H72c-22.4 0-40-17.6-40-40v-80c0-22.4 17.6-40 40-40h880c22.4 0 40 17.6 40 40v80c0 22.4-17.6 40-40 40z" fill="#D6AB7F" /><path d="M632 552H392c-22.4 0-40-17.6-40-40v-26.4c0-22.4 17.6-40 40-40h240c22.4 0 40 17.6 40 40V512c0 22.4-17.6 40-40 40z" fill="#FFFFFF" /><path d="M632 560H392c-26.4 0-48-21.6-48-48v-26.4c0-26.4 21.6-48 48-48h240c26.4 0 48 21.6 48 48V512c0 26.4-21.6 48-48 48zM392 453.6c-17.6 0-32 14.4-32 32V512c0 17.6 14.4 32 32 32h240c17.6 0 32-14.4 32-32v-26.4c0-17.6-14.4-32-32-32H392z" fill="#6A576D" /></svg>