<svg viewBox="0 0 1024 1024"><!-- brown wallet --><path d="M917.333333 234.666667a42.666667 42.666667 0 0 0-42.666666-42.666667H128C92.714667 192 64 163.285333 64 128a21.333333 21.333333 0 0 0-42.666667 0v682.666667a149.333333 149.333333 0 0 0 149.333334 149.333333h704a42.666667 42.666667 0 0 0 42.666666-42.666667V234.666667z" fill="#A67C52" /><path d="M981.333333 469.333333H768c-58.816 0-106.666667 47.850667-106.666667 106.666667s47.850667 106.666667 106.666667 106.666667h213.333333a21.333333 21.333333 0 0 0 21.333334-21.333334v-170.666666a21.333333 21.333333 0 0 0-21.333334-21.333334zM85.333333 64h597.333334a42.666667 42.666667 0 0 1 42.666666 42.666667v85.333333H85.333333a64 64 0 1 1 0-128z" fill="#87613E" /></svg>