<svg viewBox="0 0 1024 1024"><!-- brown and white circle --><path d="M571.24864 83.71712c249.08288 0 451.01056 201.92256 451.01056 451.01056 0 249.08288-201.92256 451.01056-451.01056 451.01056V83.71712z" fill="#8D3F07" /><path d="M571.24864 83.71712c-249.08288 0-451.01056 201.92256-451.01056 451.01056 0 249.08288 201.92256 451.01056 451.01056 451.01056V83.71712z" fill="#9D4608" /><path d="M571.24864 144.55296c-215.48544 0-390.17472 174.68928-390.17472 390.17472s174.68928 390.17472 390.17472 390.17472V144.55296z" fill="#FFFFFF" /><!-- yellow straw --><path d="M491.55072 494.0288L252.35456 192.44032c-6.03648-7.60832-15.19104-10.73664-24.19712-10.0352a28.22656 28.22656 0 0 0-5.77536-0.60416H39.92576a28.09856 28.09856 0 0 0-28.10368 28.10368 28.09856 28.09856 0 0 0 28.10368 28.10368h176.82432l230.7584 290.94912a28.1088 28.1088 0 0 0 44.04224-34.92864z" fill="#EFEC00" /></svg>