<svg viewBox="0 0 1024 1024"><!-- brown and white book --><path d="M202.4 32c-34.4 0-61.6 28-61.6 61.6v812.8c0 34.4 28 61.6 61.6 61.6h681.6V32H202.4z" fill="#72B6D3" /><path d="M884 976.8H202.4c-38.4 0-69.6-31.2-69.6-69.6V93.6c0-38.4 31.2-69.6 69.6-69.6h681.6c4.8 0 8 3.2 8 8v936.8c0 4-4 8-8 8zM202.4 40c-29.6 0-53.6 24-53.6 53.6v812.8c0 29.6 24 53.6 53.6 53.6h673.6V40H202.4z" fill="#6A576D" /><path d="M140 914.4c-4.8 0-8-3.2-8-8V93.6c0-38.4 31.2-69.6 69.6-69.6H264c4.8 0 8 3.2 8 8v812.8c0 4.8-3.2 8-8 8h-61.6c-29.6 0-53.6 24-53.6 53.6-0.8 4.8-4 8-8.8 8zM202.4 40c-29.6 0-53.6 24-53.6 53.6v768c12.8-15.2 32-25.6 53.6-25.6H256V40h-53.6z" fill="#6A576D" /><path d="M195.2 848h686.4v116.8H195.2c-28.8 0-52.8-26.4-52.8-58.4s23.2-58.4 52.8-58.4z" fill="#FFFFFF" /></svg>