<svg viewBox="0 0 1024 1024"><!-- brown box border --><path d="M925.6 877.6H98.4c-26.4 0-48-21.6-48-48V296c0-26.4 21.6-48 48-48h826.4c26.4 0 48 21.6 48 48v533.6c0.8 26.4-20.8 48-47.2 48zM98.4 264c-17.6 0-32 14.4-32 32v533.6c0 17.6 14.4 32 32 32h826.4c17.6 0 32-14.4 32-32V296c0-17.6-14.4-32-32-32H98.4z" fill="#6A576D" /><path d="M925.6 256H98.4c-22.4 0-40 17.6-40 40v65.6c4 0.8 8.8 0.8 13.6 0.8h880c4.8 0 8.8-0.8 13.6-0.8V296c0-22.4-18.4-40-40-40z" fill="#6A576D" /><path d="M952 322.4H72c-26.4 0-48-21.6-48-48v-80c0-26.4 21.6-48 48-48h880c26.4 0 48 21.6 48 48v80c0 26.4-21.6 48-48 48zM72 162.4c-17.6 0-32 14.4-32 32v80c0 17.6 14.4 32 32 32h880c17.6 0 32-14.4 32-32v-80c0-17.6-14.4-32-32-32H72z" fill="#6A576D" /></svg>