<svg viewBox="0 0 1024 1024"><!-- brown cone --><path d="M904.758 810.512h-55.271l-221.643-664.92c-12.465-37.382-47.439-62.591-86.843-62.595-39.407 0.005-74.381 25.213-86.846 62.595l-221.64 664.919h-55.272c-13.394 0-24.25 10.857-24.25 24.25 0 13.394 10.857 24.25 24.25 24.25h727.515c13.391 0 24.25-10.857 24.25-24.25 0.001-13.392-10.859-24.249-24.25-24.249z m-621.118 0l216.528-649.581c5.854-17.577 22.308-29.435 40.833-29.433 18.523-0.002 34.976 11.856 40.831 29.43L798.36 810.511H283.64z" fill="#805D4C" /></svg>