<svg viewBox="0 0 1024 1024"><!-- chef hat --><path d="M982.866435 202.351741c0-77.998553-71.260551-141.251111-159.136804-141.251111-41.34523 0-78.880491 14.111-107.173046 37.041376-25.96424-16.36876-57.608158-26.070073-91.897888-26.070073-39.828298 0-76.128846 13.052675-104.033348 34.501395-27.904503-21.44872-64.20505-34.501395-104.033348-34.501395-29.35088 0-56.72622 7.161333-80.326869 19.47318-27.09312-19.014573-61.277018-30.444483-98.49478-30.444483-87.876253 0-159.136804 63.252558-159.136804 141.251111 0 68.261963 54.539015 125.199848 127.069556 138.393634v209.513074h643.24994V341.627313c75.917181-10.759638 133.913391-68.932236 133.913391-139.275572z" fill="#DDDDDD" /></svg>