<svg viewBox="0 0 1024 1024"><!-- chef with smile --><path d="M822.389086 679.867985m-100.717263 0a100.717263 100.717263 0 1 0 201.434526 0 100.717263 100.717263 0 1 0-201.434526 0Z" fill="#FAE1DC" /><path d="M211.347504 679.867985m-100.717263 0a100.717263 100.717263 0 1 0 201.434526 0 100.717263 100.717263 0 1 0-201.434526 0Z" fill="#FAE1DC" /><path d="M525.740586 650.940435m-337.71151 0a337.71151 337.71151 0 1 0 675.42302 0 337.71151 337.71151 0 1 0-675.42302 0Z" fill="#FAE1DC" /><path d="M424.564716 787.887691l226.058221-4.586075s0.035278 116.909636-107.067213 116.944913c-111.018293 0.035278-118.991008-112.358838-118.991008-112.358838z" fill="#ECA78C" /><path d="M424.564716 787.852413s0.952493 9.419093 3.351362 19.085128h220.131602c2.328315-11.253523 2.575258-23.635925 2.575257-23.635925l-226.058221 4.550797zM543.626279 900.352362c39.546078 0 62.22951-16.545148 74.611913-29.668378l-158.748751-3.421918c15.627933 16.545148 42.19189 33.090295 84.136838 33.090296z" fill="#FFFFFF" /></svg>