<svg viewBox="0 0 1024 1024"><!-- circle and line --><path d="M240 496h544v32H240zM512 398.4c-40 0-73.6-33.6-73.6-73.6s33.6-73.6 73.6-73.6 73.6 33.6 73.6 73.6-33.6 73.6-73.6 73.6z m0-115.2c-22.4 0-41.6 19.2-41.6 41.6s19.2 41.6 41.6 41.6c22.4 0 41.6-19.2 41.6-41.6s-19.2-41.6-41.6-41.6zM512 772.8c-40 0-73.6-33.6-73.6-73.6s32-75.2 73.6-75.2 73.6 33.6 73.6 73.6-33.6 75.2-73.6 75.2z m0-116.8c-22.4 0-41.6 19.2-41.6 41.6s19.2 41.6 41.6 41.6c22.4 0 41.6-19.2 41.6-41.6S534.4 656 512 656z" fill="#1A1718" /></svg>