<svg viewBox="0 0 1024 1024"><!-- circles and squares --><path d="M149.333333 661.333333h213.333334v213.333334H149.333333zM753.066667 411.733333l-119.466667-119.466666c-8.533333-8.533333-8.533333-21.333333 0-29.866667l119.466667-119.466667c8.533333-8.533333 21.333333-8.533333 29.866666 0l119.466667 119.466667c8.533333 8.533333 8.533333 21.333333 0 29.866667l-119.466667 119.466666c-8.533333 8.533333-21.333333 8.533333-29.866666 0z" fill="#00BCD4" /><path d="M256 277.333333m-128 0a128 128 0 1 0 256 0 128 128 0 1 0-256 0Z" fill="#3F51B5" /><path d="M768 768m-128 0a128 128 0 1 0 256 0 128 128 0 1 0-256 0Z" fill="#448AFF" /></svg>