<svg viewBox="0 0 1024 1024"><!-- circle and arrow --><path d="M365.44 256.34h-57.05c57.54-45.47 128.96-71.11 203.27-71.11 160.55 0 296.58 114.66 323.45 272.64l72.1-12.25C874.34 252.36 707.99 112.1 511.66 112.1c-93.89 0-184.01 33.48-255.5 92.6v-56.23h-73.13v181.01h182.42v-73.14zM658.2 767.73h59.92c-58.07 47.06-130.82 73.7-206.47 73.7-160.66 0-296.69-114.75-323.49-272.87l-72.1 12.21c32.76 193.42 199.13 333.79 395.59 333.79 93.97 0 184.29-33.57 255.84-92.84v53.9h73.13V694.6H658.2v73.13z" fill="#0F1F3C" /></svg>