<svg viewBox="0 0 1024 1024"><!-- circle and cross --><path d="M731.21 584.34c-100.99 0-182.86 81.87-182.86 182.86 0 100.99 81.87 182.86 182.86 182.86 100.99 0 182.86-81.87 182.86-182.86 0-100.99-81.87-182.86-182.86-182.86z m0 292.57c-60.5 0-109.71-49.22-109.71-109.71 0-60.5 49.22-109.71 109.71-109.71 60.5 0 109.71 49.22 109.71 109.71 0.01 60.49-49.21 109.71-109.71 109.71z" fill="#0F1F3C" /><path d="M752.9 694.05h-43.89v51.2h-51.2v43.89h51.2v51.2h43.89v-51.2h51.2v-43.89h-51.2z" fill="#0F1F3C" /></svg>