<svg viewBox="0 0 1024 1024"><!-- coffee cup --><path d="M512 191.58016c-157.9264 0-288.1792 119.0912-309.6064 273.7408H134.00064a44.72832 44.72832 0 0 0-44.72832 44.72832 44.72832 44.72832 0 0 0 44.72832 44.72832H202.3936C223.8208 709.4272 354.0736 828.5184 512 828.5184c172.89216 0 313.05216-142.58176 313.05216-318.46912S684.89216 191.58016 512 191.58016z" fill="#E6E4E2" /><path d="M512 510.04928m-237.14304 0a237.14304 237.14304 0 1 0 474.28608 0 237.14304 237.14304 0 1 0-474.28608 0Z" fill="#C4BCB1" /><path d="M678.21568 341.504c-0.61952-0.59392-1.30048-1.0752-1.93024-1.65888l-327.09632 343.09632c0.6144 0.59904 1.13152 1.2544 1.75104 1.84832 94.7968 90.37312 244.90496 86.78912 335.27808-8.00768 90.37824-94.7968 86.79424-244.90496-8.00256-335.27808z" fill="#928B82" /></svg>