<svg viewBox="0 0 1024 1024"><!-- colorful logo --><path d="M400.998 617.112c-54.167-72.265-46.168-154.096 21.221-212.268 63.03-54.412 156.255-33.802 209.578 32.46 22.13 27.497 68.54 22.901 91.441 0 26.914-26.917 22.073-64.009 0-91.44-89.215-110.859-259.653-132.629-373.618-47.204-118.817 89.062-151.202 262.422-60.284 383.718 21.095 28.142 55.432 42.548 88.465 23.196 27.799-16.282 44.387-60.192 23.197-88.462z" fill="#E5594F" /><path d="M628.723 433.281c30.673 40.924 38.604 71.548 34.179 119.265 0.715-5.845 0.408-4.79-0.924 3.173-1.3 6.769-3.259 13.386-5.207 19.983-4.113 13.896-2.982 9.9-9.75 22.736-11.978 22.716-23.474 34.203-45.271 51.746-27.499 22.131-22.904 68.538 0 91.441 26.914 26.913 64.011 22.075 91.439 0 110.85-89.224 132.613-259.649 47.193-373.614-21.092-28.142-55.431-42.546-88.466-23.196-27.799 16.287-44.384 60.193-23.193 88.466z" fill="#F39A2B" /></svg>