<svg viewBox="0 0 1024 1024"><!-- colorful triangles --><path d="M456.96 718.64A660.64 660.64 0 0 1 392 816.8L368 728z" fill="#3DBADA" /><path d="M424 608l-81.36 30.48A434.96 434.96 0 0 0 380.56 560zM520 184l-85.52 32a206 206 0 0 1 34.96-67.84 175.2 175.2 0 0 1 17.04-18.8z" fill="#FC9C5E" /><path d="M716.4 197.68a178.4 178.4 0 0 0-65.36-21.04L712 136zM838.8 425.92A206.4 206.4 0 0 1 776 488.8V408z" fill="#3DBADA" /><path d="M664 404.88L640 472l-45.44-60.56a298.56 298.56 0 0 0 69.44-6.56z" fill="#FC9C5E" /><path d="M400 408v78.32a410.56 410.56 0 0 1-86.32-52.96z" fill="#3DBADA" /></svg>