<svg viewBox="0 0 1024 1024"><!-- cup and pencils --><path d="M732.8 414.4l40-318.4-19.248-35.488L721.6 1.6l-29.248 31.168L648 80l-41.6 334.4h-27.2V88L516.88 0.128 516.8 0l-0.08 0.112L454.4 88v326.4H424V88L372.8 19.312 358.4 0l-21.904 30.88L296 88v328h-64l63.36 559.92L300.8 1024h424l5.376-48.768L792 414.4h-59.2z m-48-324.8L715.2 56l22.4 40-52.8-6.4z m-9.6 32l62.4 6.4-35.2 286.4H640l35.2-292.8zM516.8 56L544 92.8h-54.4L516.8 56z m-32 68.8h62.4v289.6h-62.4V124.8z m-126.4-70.4l27.2 36.8h-54.4l27.2-36.8zM328 124.8h62.4V416H328V124.8zM696 992H329.6l-48-432H744l-48 432zM276.8 526.4l-9.6-80h488l-9.6 80H276.8z" fill="" /></svg>