<svg viewBox="0 0 1024 1024"><!-- double arrows --><path d="M292.1 685.5c-7 0-14.1-1.8-20.5-5.2-13.6-7.5-22.1-21.8-22.1-37.4V381.2c0-15.6 8.5-29.9 22.1-37.4 13.6-7.5 30.3-7 43.5 1.4L520.2 476c12.3 7.8 19.7 21.4 19.7 36 0 14.6-7.4 28.1-19.7 36L315 678.8c-7 4.4-15 6.7-22.9 6.7zM334.7 459v106l83.2-53-83.2-53z" fill="#5F6379" /><path d="M505.4 685.5c-7 0-14.1-1.8-20.5-5.2-13.6-7.5-22.1-21.8-22.1-37.4V381.2c0-15.6 8.5-29.9 22.1-37.4 13.6-7.5 30.3-7 43.5 1.4L733.5 476c12.3 7.8 19.7 21.4 19.7 36 0 14.6-7.4 28.1-19.7 36L528.3 678.8c-6.9 4.4-14.9 6.7-22.9 6.7zM548.1 459v106l83.2-53-83.2-53z" fill="#5F6379" /><path d="M731.9 672c-23.6 0-42.7-19.1-42.7-42.7V394.7c0-23.6 19.1-42.7 42.7-42.7s42.7 19.1 42.7 42.7v234.7c0 23.5-19.1 42.6-42.7 42.6z" fill="#5F6379" /></svg>