<svg viewBox="0 0 1024 1024"><!-- earth --><path d="M512 350.7m-186.4 0a186.4 186.4 0 1 0 372.8 0 186.4 186.4 0 1 0-372.8 0Z" fill="#25A0C8" /><path d="M580.7 177.4c-2.6 1.4-5.1 2.9-7.6 4.5-20.7 13.4-34.8 36.1-27.1 56.7 7.7 20.8 33.5 32.8 50.9 49.3 25.2 23.8 30.5 63.2 3.7 85.9-9.2 7.8-21.3 13.2-29.5 21.6-20.6 21.4-7.4 55 19 71.7 14.9 9.4 32.5 14.7 51 18.1 35.3-33.9 57.3-81.6 57.3-134.4 0-78.7-48.7-146-117.7-173.4zM392.3 373.3c-2.9-28.6 26.7-56.4 15.5-82.9-9.3-21.9-39.2-24.6-62.6-20.3l-1.5 0.3c-11.7 24.4-18.2 51.6-18.2 80.4 0 72.9 41.8 136 102.8 166.6 3.1-2.1 6.1-4.5 8.8-7.2 18.6-19 17.5-51.8 2-73.4-15.5-21.8-44.1-36.8-46.8-63.5z" fill="#AFD555" /></svg>