<svg viewBox="0 0 1024 1024"><!-- euro sign in a circle --><path fill="#333" d="M512 64C264.6 64 64 264.6 64 512s200.6 448 448 448 448-200.6 448-448S759.4 64 512 64zm0 820c-205.4 0-372-166.6-372-372s166.6-372 372-372 372 166.6 372 372-166.6 372-372 372z"/><path fill="#E6E6E6" d="M512 140c-205.4 0-372 166.6-372 372s166.6 372 372 372 372-166.6 372-372-166.6-372-372-372zm117.1 581.1c0 3.8-2.7 7-6.4 7.8-15.9 3.4-34.4 5.1-55.3 5.1-109.8 0-183-58.8-200.2-158H337c-4.4 0-8-3.6-8-8v-27.2c0-4.4 3.6-8 8-8h26.1v-36.9c0-4.4 0-8.7.3-12.8H337c-4.4 0-8-3.6-8-8v-27.2c0-4.4 3.6-8 8-8h31.8C388.5 345.7 460.7 290 567.4 290c20.9 0 39.4 1.9 55.3 5.4 3.7.8 6.3 4 6.3 7.8V346a8 8 0 0 1-9.6 7.8c-14.6-2.9-31.8-4.4-51.7-4.4-65.3 0-110.4 33.5-127.6 90.4h128.3c4.4 0 8 3.6 8 8V475c0 4.4-3.6 8-8 8H432.5c-.3 4.4-.3 9.1-.3 13.8v36h136.4c4.4 0 8 3.6 8 8V568c0 4.4-3.6 8-8 8H438c15.3 62 61.3 98.6 129.8 98.6 19.9 0 37.1-1.3 51.8-4.1 4.9-1 9.5 2.8 9.5 7.8v42.8z"/></svg>