<svg viewBox="0 0 1024 1024"><!-- five white dots --><path d="M677.25824 177.34656m-36.71552 0a36.71552 36.71552 0 1 0 73.43104 0 36.71552 36.71552 0 1 0-73.43104 0Z" fill="#FFFFFF" /><path d="M823.55712 312.07424m-36.71552 0a36.71552 36.71552 0 1 0 73.43104 0 36.71552 36.71552 0 1 0-73.43104 0Z" fill="#FFFFFF" /><path d="M882.29376 514.50368m-36.71552 0a36.71552 36.71552 0 1 0 73.43104 0 36.71552 36.71552 0 1 0-73.43104 0Z" fill="#FFFFFF" /><path d="M819.87072 724.11648m-36.71552 0a36.71552 36.71552 0 1 0 73.43104 0 36.71552 36.71552 0 1 0-73.43104 0Z" fill="#FFFFFF" /><path d="M677.25824 850.0224m-36.71552 0a36.71552 36.71552 0 1 0 73.43104 0 36.71552 36.71552 0 1 0-73.43104 0Z" fill="#FFFFFF" /></svg>