<svg viewBox="0 0 1024 1024"><!-- focus --><path d="M795.4 488.4H760c-4.7-59.5-30-114.7-72.7-157.4s-98.1-68.1-157.7-72.7v-36.6c0-11-9-20-20-20s-20 9-20 20v36.7c-59.3 4.7-114.5 30.1-157 72.6-42.6 42.6-68 97.9-72.7 157.4H226c-11 0-20 9-20 20s9 20 20 20h34c4.7 59.5 30 114.7 72.7 157.4 42.5 42.5 97.7 67.9 157 72.6v35.5c0 11 9 20 20 20s20-9 20-20v-35.4c59.6-4.6 115-30 157.7-72.7 42.6-42.6 68-97.9 72.7-157.4h35.4c11 0 20-9 20-20s-9-20-20.1-20zM529.7 718.3v-51.9c0-11-9-20-20-20s-20 9-20 20v51.8c-100.1-9.6-180-89.6-189.5-189.8h52.6c11 0 20-9 20-20s-9-20-20-20h-52.6c9.5-100.2 89.4-180.2 189.5-189.8v50.3c0 11 9 20 20 20s20-9 20-20v-50.3c100.5 9.3 180.7 89.5 190.2 189.9h-49.5c-11 0-20 9-20 20s9 20 20 20h49.5c-9.5 100.4-89.8 180.5-190.2 189.8z" fill="#005BFF" /></svg>