<svg viewBox="0 0 1024 1024"><!-- four blue dots --><path d="M208 624c-44.8 0-80-35.2-80-80s35.2-80 80-80 80 35.2 80 80-35.2 80-80 80z m0-32c27.2 0 48-20.8 48-48s-20.8-48-48-48-48 20.8-48 48 20.8 48 48 48zM528 960c-44.8 0-80-35.2-80-80s35.2-80 80-80 80 35.2 80 80-35.2 80-80 80z m0-32c27.2 0 48-20.8 48-48s-20.8-48-48-48-48 20.8-48 48 20.8 48 48 48zM528 224c-44.8 0-80-35.2-80-80s35.2-80 80-80 80 35.2 80 80-35.2 80-80 80z m0-32c27.2 0 48-20.8 48-48s-20.8-48-48-48-48 20.8-48 48 20.8 48 48 48zM816 624c-44.8 0-80-35.2-80-80s35.2-80 80-80 80 35.2 80 80-35.2 80-80 80z m0-32c27.2 0 48-20.8 48-48s-20.8-48-48-48-48 20.8-48 48 20.8 48 48 48z" fill="#2F4BFF" /></svg>