<svg viewBox="0 0 1024 1024"><!-- four blue rain drops --><path d="M355.0208 713.3184a27.52512 27.52512 0 0 1 16.45568 35.26656l-34.95936 96.0512a27.51488 27.51488 0 1 1-51.72224-18.82112l34.95936-96.0512a27.51488 27.51488 0 0 1 35.2768-16.44544zM485.7856 715.68384a27.51488 27.51488 0 0 1 16.44544 35.2768l-61.8496 169.9328a27.51488 27.51488 0 1 1-51.72224-18.82112l61.8496-169.94304a27.52512 27.52512 0 0 1 35.2768-16.44544zM619.44832 715.68384a27.51488 27.51488 0 0 1 16.44544 35.2768L574.0544 920.8832a27.51488 27.51488 0 1 1-51.712-18.82112l61.8496-169.94304a27.52512 27.52512 0 0 1 35.26656-16.44544zM729.11872 714.26048a27.51488 27.51488 0 0 1 16.44544 35.2768l-45.71136 125.60384a27.52512 27.52512 0 0 1-51.72224-18.82112l45.7216-125.61408a27.51488 27.51488 0 0 1 35.26656-16.44544z" fill="#DFF1FB" /></svg>