<svg viewBox="0 0 1024 1024"><!-- four stars --><path d="M605.866667 91.733333l17.066666 40.533334 44.8 4.266666-34.133333 27.733334 10.666667 44.8-38.4-23.466667-38.4 23.466667 10.666666-44.8-34.133333-27.733334 44.8-4.266666zM768 164.266667l14.933333 38.4 40.533334 2.133333-29.866667 25.6 8.533333 40.533333-34.133333-21.333333-34.133333 21.333333 8.533333-40.533333-29.866667-25.6 40.533334-2.133333zM418.133333 91.733333l-17.066666 40.533334-44.8 4.266666 34.133333 27.733334-10.666667 44.8 38.4-23.466667 38.4 23.466667-10.666666-44.8 34.133333-27.733334-44.8-4.266666zM256 164.266667l-14.933333 38.4-40.533334 2.133333 29.866667 25.6-8.533333 40.533333 34.133333-21.333333 34.133333 21.333333-8.533333-40.533333 29.866667-25.6-40.533334-2.133333z" fill="#3F51B5" /></svg>