<svg viewBox="0 0 1024 1024"><!-- gray lines --><path d="M611.5 484.005V314.527c0-12.22-9.908-22.125-22.125-22.125-12.22 0-22.125 9.905-22.125 22.125v169.477c0 12.217 9.905 22.125 22.125 22.125 12.217 0.001 22.125-9.907 22.125-22.124M478.75 484.005V314.527c0-12.22-9.908-22.125-22.125-22.125-12.22 0-22.125 9.905-22.125 22.125v169.477c0 12.217 9.905 22.125 22.125 22.125 12.217 0.001 22.125-9.907 22.125-22.124M235.375 638.88h575.25c12.217 0 22.125-9.908 22.125-22.125 0-12.22-9.908-22.125-22.125-22.125h-575.25c-12.22 0-22.125 9.905-22.125 22.125 0 12.217 9.905 22.125 22.125 22.125" fill="#a0928b" /></svg>