<svg viewBox="0 0 1024 1024"><!-- gray circle --><path d="M514.80064 517.48352m-485.03808 0a485.03808 485.03808 0 1 0 970.07616 0 485.03808 485.03808 0 1 0-970.07616 0Z" fill="#C8C6C4" /><!-- white computer mouse --><path d="M777.24672 581.79584c0 51.23584-19.95264 99.40992-56.192 135.63904l-6.30272 6.30272c-74.78272 74.79296-196.48512 74.79296-271.27808 0L308.53632 588.8c-36.22912-36.224-56.18688-84.39296-56.18688-135.63392s19.95264-99.40992 56.18688-135.63904l6.30272-6.30272c74.79296-74.79296 196.49024-74.79296 271.2832 0l134.93248 134.93248c36.23936 36.22912 56.192 84.39808 56.192 135.63904z" fill="#FFFFFF" /><path d="M448.04096 435.82976c-8.48384 9.27744-22.52288 10.24512-31.35488 2.16576l-32.85504-30.04416c-8.832-8.07936-9.11872-22.14912-0.63488-31.42144 8.48384-9.27744 22.52288-10.24512 31.35488-2.16576l32.85504 30.04416c8.832 8.07424 9.11872 22.144 0.63488 31.42144z" fill="#928B82" /></svg>