<svg viewBox="0 0 1024 1024"><!-- gray broken circle --><path d="M219.4 621.7c-60.6 0-109.7 49.1-109.7 109.7s49.1 109.7 109.7 109.7S329.1 792 329.1 731.4 280 621.7 219.4 621.7z m0 146.3c-20.2 0-36.6-16.4-36.6-36.6 0-20.2 16.4-36.6 36.6-36.6 20.2 0 36.6 16.4 36.6 36.6 0 20.2-16.4 36.6-36.6 36.6zM804.6 621.7c-60.6 0-109.7 49.1-109.7 109.7S744 841.1 804.6 841.1 914.3 792 914.3 731.4s-49.1-109.7-109.7-109.7z m0 146.3c-20.2 0-36.6-16.4-36.6-36.6 0-20.2 16.4-36.6 36.6-36.6s36.6 16.4 36.6 36.6c-0.1 20.2-16.5 36.6-36.6 36.6zM512 365.7c60.6 0 109.7-49.1 109.7-109.7S572.6 146.3 512 146.3 402.3 195.4 402.3 256 451.4 365.7 512 365.7z m0-146.3c20.2 0 36.6 16.4 36.6 36.6s-16.4 36.6-36.6 36.6-36.6-16.4-36.6-36.6 16.4-36.6 36.6-36.6z" fill="#0F1F3C" /></svg>