<svg viewBox="0 0 1024 1024"><!-- gray eyes icon --><path d="M426.7 1024H213.3c-70.6 0-128-57.4-128-128V682.7h213.4c70.6 0 128 57.4 128 128V1024z m-256-256v128c0 23.5 19.1 42.6 42.6 42.6h128v-128c0-23.5-19.1-42.6-42.6-42.6h-128zM810.7 1024H597.3V810.6c0-70.6 57.4-128 128-128h213.4V896c0 70.6-57.4 128-128 128z m-128-85.3h128c23.5 0 42.6-19.1 42.6-42.6V768h-128c-23.5 0-42.6 19.1-42.6 42.6v128.1zM448 355.6H277.3c-23.6 0-42.7-19.1-42.7-42.7s19.1-42.7 42.7-42.7H448c23.6 0 42.7 19.1 42.7 42.7s-19.1 42.7-42.7 42.7zM661.3 533.3h-384c-23.6 0-42.7-19.1-42.7-42.7s19.1-42.7 42.7-42.7h384c23.6 0 42.7 19.1 42.7 42.7s-19.1 42.7-42.7 42.7z" fill="#5F6379" /></svg>