<svg viewBox="0 0 1024 1024"><!-- gray computer mouse --><path d="M597.333333 981.333333h-170.666666c-117.824 0-213.333333-95.509333-213.333334-213.333333V256c0-117.824 95.509333-213.333333 213.333334-213.333333h170.666666c117.824 0 213.333333 95.509333 213.333334 213.333333v512c0 117.824-95.509333 213.333333-213.333334 213.333333z" fill="#444444" /><path d="M597.333333 1002.666667h-170.666666c-129.386667 0-234.666667-105.28-234.666667-234.666667V256C192 126.613333 297.28 21.333333 426.666667 21.333333h170.666666c129.386667 0 234.666667 105.28 234.666667 234.666667v512c0 129.386667-105.28 234.666667-234.666667 234.666667zM426.666667 64c-105.877333 0-192 86.144-192 192v512c0 105.856 86.122667 192 192 192h170.666666c105.877333 0 192-86.144 192-192V256c0-105.856-86.122667-192-192-192h-170.666666z" fill="#444444" /></svg>