<svg viewBox="0 0 1024 1024"><!-- gray drum --><path d="M727.36 880.192l-33.408 27.84-52.352-62.72 33.344-27.84zM366.912 817.472l33.408 27.84-52.352 62.72-33.472-27.84z" fill="#C2C7E5" /><path d="M521.664 671.424m-224.96 0a224.96 224.96 0 1 0 449.92 0 224.96 224.96 0 1 0-449.92 0Z" fill="#526C78" /><path d="M521.664 914.176a242.944 242.944 0 0 1-242.688-242.752 242.944 242.944 0 0 1 242.688-242.688 242.944 242.944 0 0 1 242.688 242.688 242.944 242.944 0 0 1-242.688 242.752z m0-449.856a207.36 207.36 0 0 0-207.168 207.104c0 114.24 92.928 207.168 207.168 207.168s207.232-92.928 207.232-207.168a207.424 207.424 0 0 0-207.232-207.104z" fill="#263137" /></svg>