<svg viewBox="0 0 1024 1024"><!-- gray curves --><path d="M781.8 543.2c-14.1 0-27.9-7-36.1-19.8-60.1-94.8-141.6-177.3-235.7-238.6-19.7-12.9-25.3-39.3-12.4-59 12.9-19.7 39.3-25.3 59.1-12.4 104.2 67.9 194.5 159.3 261.1 264.4 12.6 19.9 6.7 46.3-13.2 58.9-7.1 4.4-15 6.5-22.8 6.5zM945.2 485.7c-14.7 0-29-7.6-36.9-21.2-81.8-140.8-199-259.2-338.9-342.5-20.2-12.1-26.9-38.2-14.8-58.5 12-20.2 38.2-26.9 58.5-14.8 152.4 90.7 280 219.7 369 372.9 11.8 20.4 4.9 46.5-15.5 58.3-6.7 4-14.1 5.8-21.4 5.8z" fill="#5F6379" /></svg>