<svg viewBox="0 0 1024 1024"><!-- gray house --><path d="M826.9 931.9H271.8V473c0-17.7 14.3-32 32-32h523.1v490.9z" fill="#CCCCCC" /><path d="M933.3 920.6h-80.1V448.2c0-11-9-20-20-20s-20 9-20 20v472.4H599.5c0.2-2.2 0.2-4.5 0.2-6.7V696.8c0-17.2-4.7-33.5-13.1-46-9.1-13.4-22.1-21.2-35.7-21.2h-75.3c-13.5 0-26.5 7.7-35.7 21.2-8.5 12.5-13.1 28.8-13.1 46v217.1c0 2.3 0.1 4.5 0.2 6.7H211V448.2c0-11-9-20-20-20s-20 9-20 20v472.4H91.3c-10.7 0-19.4 8.7-19.4 19.4s8.7 19.4 19.4 19.4h841.9c10.7 0 19.4-8.7 19.4-19.4s-8.7-19.4-19.3-19.4z" fill="#666666" /></svg>