<svg viewBox="0 0 1024 1024"><!-- gray castle and star --><path d="M468.2 292.3l-10.6 65 55.5-30.7h0.2l55.5 30.7-10.6-65c0-0.1 0-0.2 0.1-0.2l44.9-46-62.1-9.5c-0.1 0-0.1-0.1-0.2-0.1l-27.8-59.1-27.8 59.1c0 0.1-0.1 0.1-0.2 0.1l-62.1 9.5 44.9 46c0.3 0 0.4 0.1 0.3 0.2zM179.4 403.8h664.1c30.3 0 55-24.7 55-55V117c0-30.3-24.7-55-55-55h-89.6v71h-72.5V62H550v71h-72.5V62H346.1v71h-72.5V62h-94.2c-30.3 0-55 24.7-55 55v231.8c0 30.3 24.7 55 55 55z m-15-286.8c0-8.3 6.7-15 15-15h54.2v71h152.5v-71h51.4v71H590v-71h51.4v71h152.5v-71h49.6c8.3 0 15 6.7 15 15v231.8c0 8.3-6.7 15-15 15H179.4c-8.3 0-15-6.7-15-15V117z" fill="#666666" /></svg>