<svg viewBox="0 0 1024 1024"><!-- gray big castle --><path d="M521.3 321l-20-0.1 0.7-245.8c0-5.5 4.5-10 10-10s10 4.5 10 10l-0.7 245.9z" fill="#8a8a8a" /><path d="M63.2 960.7v-614c0-14.8 12-26.7 26.7-26.7l136.1 0.2c14.7 0 26.7 12 26.7 26.7v101.3h153.8V346.9c0-14.8 12-26.7 26.7-26.7h146.5c14.8 0 26.7 12 26.7 26.7v101.3h159.7l1.5-101.9c0.2-14.6 12.1-26.3 26.7-26.3h138.2c14.7 0 26.7 11.9 26.7 26.7l1 612.9-897 1.1z" fill="#8a8a8a" /><path d="M620 959.6H403.4v-211c0-59.8 48.5-108.3 108.3-108.3S620 688.8 620 748.6v211z" fill="#2c2c2c" /></svg>