<svg viewBox="0 0 1024 1024"><!-- gray globe --><path d="M534.2 513.7c280.4-20 266.3-457.8-42.6-448.2-39.1 4.7-44.7 8.5-67.3 15.7-55.9 23.1-103.7 72.9-125.6 130C241.1 361 348 527 534.2 513.7z m143.5-141.2l2.2 6.7c-18.9 21.1-31.3 60.3-62.8 69.5v11.2h-13.5c-9.9 7.6-23 20.3-26.9 33.6h-2.2c-20.4-20.5 16.5-43.6 6.7-78.4-3.8-13.4-18.5-18.7-24.7-33.6 1.1-18.2 8.5-31.9 13.5-44.8 17.5-28 103.3 28.1 107.7 35.8zM356.9 137.2c27.2-17.8 60.4-34.2 105.4-33.6v-2.2c-4.6-4.9-3-4.3-11.2-6.7l33.7-4.5 24.7 20.2c16-9.1 20.6-10.6 42.6-6.7v2.2c-4.6 8.1-6.8 11.6-15.7 15.7-2.2 4.5-4.5 9-6.7 13.4l24.7 15.7c9.6-1.6 9.5 4.4 11.2 15.7 9.5-0.3 13.5-4.1 15.7-17.9 2.4-8-2.2-13.1-6.7-20.2 36.4 5.4 59.3 28.5 74 58.3l-4.5 4.5-6.7-2.2v-11.2h-20.2c3 7.5 6 14.9 9 22.4-4.6 7.6-45.6 35.6-53.8 38.1v22.4L532 244.9c-3.7 1.5-7.5 3-11.2 4.5-4.5 9-4.2 17.2-2.2 29.1 1.5 2.2 3 4.5 4.5 6.7 5.2-2.2 10.5-4.5 15.7-6.7v17.9c7.5 1.5 15 3 22.4 4.5 5.5 5.7 4.4 13 11.2 17.9-23 4.1-129.8-74.7-139.1-94.1-15.7-32.5 8.8-56.7-24.7-71.7-23.8-10.2-43 4.9-58.3 9l6.6-24.8z" fill="#666666" /></svg>