<svg viewBox="0 0 1024 1024"><!-- gray clock hands --><path d="M470.24128 512a41.75872 40.6272 0 1 0 83.51744 0 41.75872 40.6272 0 1 0-83.51744 0Z" fill="#5B5144" /><path d="M528.7168 472.93952c0 8.9856-7.48544 16.26624-16.7168 16.26624-9.23136 0-16.7168-7.28064-16.7168-16.26624V253.35808c0-8.9856 7.48544-16.26624 16.7168-16.26624 9.23136 0 16.7168 7.28064 16.7168 16.26624v219.58144zM476.83584 532.25984c7.03488-5.82144 17.5872-4.992 23.56736 1.85344a15.96416 15.96416 0 0 1-1.90464 22.92736l-101.88288 84.3008c-7.03488 5.82144-17.5872 4.992-23.56736-1.85344a15.96416 15.96416 0 0 1 1.90464-22.92736l101.88288-84.3008z" fill="#5B5144" /></svg>