<svg viewBox="0 0 1024 1024"><!-- gray contents --><path d="M341.3 277.3c-23.6 0-42.7-19.1-42.7-42.7V85.3c0-23.6 19.1-42.7 42.7-42.7S384 61.8 384 85.3v149.3c0 23.6-19.1 42.7-42.7 42.7zM682.7 277.3c-23.6 0-42.7-19.1-42.7-42.7V85.3c0-23.6 19.1-42.7 42.7-42.7s42.7 19.1 42.7 42.7v149.3c-0.1 23.6-19.2 42.7-42.7 42.7zM810.7 490.7H213.3c-23.6 0-42.7-19.1-42.7-42.7s19.1-42.7 42.7-42.7h597.3c23.6 0 42.7 19.1 42.7 42.7s-19.1 42.7-42.6 42.7zM810.7 704H213.3c-23.6 0-42.7-19.1-42.7-42.7s19.1-42.7 42.7-42.7h597.3c23.6 0 42.7 19.1 42.7 42.7S834.2 704 810.7 704z" fill="#5F6379" /></svg>