<svg viewBox="0 0 1024 1024"><!-- gray and white chart --><path d="M670.1 857.7H206.2c-27.6 0-50-22.4-50-50V331.1c0-27.6 22.4-50 50-50H670c27.6 0 50 22.4 50 50v476.6c0.1 27.7-22.3 50-49.9 50z" fill="#FFFFFF" /><path d="M669 299.3H205.1c-16.5 0-30 13.5-30 30v75.9H699v-75.9c0-16.5-13.5-30-30-30z" fill="#E6E6E6" /><path d="M537.3 369.2H393.1c-9.9 0-17.9-8-17.9-17.9 0-9.9 8-17.9 17.9-17.9h144.2c9.9 0 17.9 8 17.9 17.9 0 9.9-8 17.9-17.9 17.9z" fill="#FFFFFF" /><path d="M320.4 802.3h-82.1c-16.6 0-30-13.4-30-30V454.4h112.1v347.9zM636.2 802.3H355V454.4h311.3v317.9c-0.1 16.6-13.5 30-30.1 30z" fill="#E6E6E6" /><path d="M230.2 351.3m-18.7 0a18.7 18.7 0 1 0 37.4 0 18.7 18.7 0 1 0-37.4 0Z" fill="#FFFFFF" /><path d="M290.6 351.3m-18.7 0a18.7 18.7 0 1 0 37.4 0 18.7 18.7 0 1 0-37.4 0Z" fill="#FFFFFF" /></svg>