<svg viewBox="0 0 1024 1024"><!-- gray building --><path d="M839.1 936.1h-510V674.6c0-10.4 8.5-18.9 18.9-18.9h491.1v280.4zM246 932.1h-51.4V717.5c0-8.4 6.8-15.2 15.2-15.2H246v229.8z" fill="#CCCCCC" /><path d="M940 924.1h-21.3V654.9c0-15.4-14.4-27.9-32-27.9h-89v-24c0-15.4-14.4-27.9-32-27.9H266c-17.6 0-32 12.5-32 27.9v24h-91.1c-17.6 0-32 12.5-32 27.9v269.2H83.6c-7 0-13.2 3.2-16.6 8-2.2 2.5-3.5 5.5-3.5 8.9v1.1c0 3.3 1.3 6.4 3.5 8.9 3.5 4.8 9.6 8 16.6 8H940c10.8 0 19.6-7.6 19.6-16.9V941c0-9.3-8.8-16.9-19.6-16.9zM798 661.9h60.8c11 0 19.8 8.9 19.8 19.8v240.6H798V661.9zM274 610h483.7v313.4H274V610z m-108.2 51.9h65.7v260.4h-80.6V676.8c0-8.2 6.7-14.9 14.9-14.9z" fill="#666666" /></svg>