<svg viewBox="0 0 1024 1024"><!-- gray ring --><path d="M511.3 960.7c-247.5 0-448.1-200.6-448.1-448.1S263.8 64.4 511.3 64.4s448.1 200.6 448.1 448.1-200.6 448.2-448.1 448.2z" fill="#5E676F" /><path d="M511.3 904.7c216.6 0 392.1-175.6 392.1-392.1S727.8 120.4 511.3 120.4 119.1 296 119.1 512.6s175.6 392.1 392.2 392.1z" fill="#FFFFFF" /><path d="M511.3 848.7c-185.6 0-336.1-150.5-336.1-336.1S325.7 176.5 511.3 176.5 847.4 327 847.4 512.6 696.9 848.7 511.3 848.7z" fill="#5E676F" /><path d="M511.3 820.7c170.2 0 308.1-137.9 308.1-308.1S681.4 204.5 511.3 204.5 203.2 342.4 203.2 512.6s137.9 308.1 308.1 308.1z" fill="#FFFFFF" /></svg>