<svg viewBox="0 0 1024 1024"><!-- gray smartphone --><path d="M128 768V170.666667c0-46.933333 38.4-85.333333 85.333333-85.333334h298.666667c46.933333 0 85.333333 38.4 85.333333 85.333334v597.333333c0 46.933333-38.4 85.333333-85.333333 85.333333H213.333333c-46.933333 0-85.333333-38.4-85.333333-85.333333z" fill="#37474F" /><path d="M512 149.333333H213.333333c-12.8 0-21.333333 8.533333-21.333333 21.333334v533.333333c0 12.8 8.533333 21.333333 21.333333 21.333333h298.666667c12.8 0 21.333333-8.533333 21.333333-21.333333V170.666667c0-12.8-8.533333-21.333333-21.333333-21.333334z" fill="#BBDEFB" /><path d="M298.666667 768h128v42.666667h-128z" fill="#78909C" /></svg>