<svg viewBox="0 0 1024 1024"><!-- gray top and bottom --><path d="M671.584 768h-480a128 128 0 0 0-128 128v96a32 32 0 0 0 32 32h672a32 32 0 0 0 32-32v-96a128 128 0 0 0-128-128zM799.584 64a32 32 0 0 0-32-32h-672a32 32 0 0 0-32 32v64h736V64zM319.584 0h192v32h-192z" fill="#434854" /><!-- small black rectangle --><path d="M319.584 0h192v32h-192z" fill="" /><!-- gray icon --><path d="M959.584 256h-174.432l14.432-128h-736l64 608c1.984 16 15.008 32 32 32h544c16 0 23.008-12.256 27.488-32l10.816-96h174.336c17.696 0 28.672-10.656 32-32l43.328-320c3.392-17.984-14.272-32-31.968-32z m-84.64 288h-122.208l21.632-192h121.248l-20.672 192z" fill="#EAEAEA" /><!-- blue trapezoid --><path d="M164.928 736h533.664l52.992-512h-640z" fill="#469FCC" /><!-- some black lines --><path d="M335.584 352h160a16 16 0 0 0 0-32h-160a16 16 0 0 0 0 32zM495.584 416h-160a16 16 0 0 0 0 32h160a16 16 0 0 0 0-32zM495.584 512h-160a16 16 0 0 0 0 32h160a16 16 0 0 0 0-32zM495.584 608h-160a16 16 0 0 0 0 32h160a16 16 0 0 0 0-32z" fill="" /></svg>