<svg viewBox="0 0 1024 1024"><!-- gray speech bubble --><path fill="#D8D8D8" d="M775.3 248.9a369.62 369.62 0 0 0-119-80A370.2 370.2 0 0 0 512.1 140h-1.7c-99.7.4-193 39.4-262.8 109.9-69.9 70.5-108 164.1-107.6 263.8.3 60.3 15.3 120.2 43.5 173.1l4.5 8.4V836h140.8l8.4 4.5c52.9 28.2 112.8 43.2 173.1 43.5h1.7c99 0 192-38.2 262.1-107.6 70.4-69.8 109.5-163.1 110.1-262.7.2-50.6-9.5-99.6-28.9-145.8a370.15 370.15 0 0 0-80-119zM312 560a48.01 48.01 0 0 1 0-96 48.01 48.01 0 0 1 0 96zm200 0a48.01 48.01 0 0 1 0-96 48.01 48.01 0 0 1 0 96zm200 0a48.01 48.01 0 0 1 0-96 48.01 48.01 0 0 1 0 96z"/></svg>