<svg viewBox="0 0 1024 1024"><!-- green house --><path d="M242.3 475.1v416.7h162.6V721.5c0-51.4 48.2-93.7 107.1-93.7 58.9 0 107.1 42.3 107.1 93.7v170.2h162.6V475.1H242.3zM683.8 324.4v-88.6c0-12.3 9.9-22.2 22.2-22.2h82.1c12.3 0 22.2 9.9 22.2 22.2v115.4c0 12.3-9.9 22.2-22.2 22.2h-48.8" fill="#00B36A" /><path d="M404.9 883.5c-68.7-58-120.5-135-162.6-217.9v226.2h162.6v-8.3z" fill="#009957" /><path d="M104 482l377.9-344.5c16.6-15.1 43.6-15.1 60.2 0L920 482c25.7 23.4 2.3 57.6-39.3 57.6H143.3c-41.6 0.1-64.9-34.2-39.3-57.6z" fill="#00B36A" /></svg>