<svg viewBox="0 0 1024 1024"><!-- green leaf --><path d="M597.333333 640c0 93.866667-85.333333 170.666667-85.333333 170.666667s-85.333333-76.8-85.333333-170.666667 85.333333-170.666667 85.333333-170.666667 85.333333 76.8 85.333333 170.666667z" fill="#2E7D32" /><path d="M663.466667 695.466667c-42.666667 85.333333-151.466667 115.2-151.466667 115.2s-42.666667-106.666667 0-189.866667 151.466667-115.2 151.466667-115.2 42.666667 104.533333 0 189.866667z" fill="#388E3C" /><path d="M360.533333 695.466667c42.666667 85.333333 151.466667 115.2 151.466667 115.2s42.666667-106.666667 0-189.866667-151.466667-115.2-151.466667-115.2-42.666667 104.533333 0 189.866667z" fill="#43A047" /></svg>