<svg viewBox="0 0 1024 1024"><!-- green and yellow flower --><path d="M719.36 609.28l-96 11.52-70.4 65.28-84.48-46.08-96 11.52-40.96-88.32-84.48-47.36 19.2-94.72-40.96-87.04 70.4-66.56 19.2-94.72 96-11.52 70.4-66.56 84.48 47.36 96-11.52 40.96 88.32 84.48 47.36-19.2 94.72 40.96 87.04-70.4 66.56z" fill="#00B2AE" /><path d="M353.28 390.4a166.4 166.4 0 1 0 332.8 0 166.4 166.4 0 1 0-332.8 0Z" fill="#FAF1C7" /><path d="M519.68 569.6c-98.56 0-179.2-80.64-179.2-179.2s80.64-179.2 179.2-179.2 179.2 80.64 179.2 179.2c-1.28 98.56-80.64 179.2-179.2 179.2z m0-332.8c-84.48 0-153.6 69.12-153.6 153.6s69.12 153.6 153.6 153.6 153.6-69.12 153.6-153.6c-1.28-84.48-69.12-153.6-153.6-153.6z" fill="#231C1C" /></svg>