<svg viewBox="0 0 1024 1024"><!-- green arrow --><path d="M776.577087 687.485754h-142.616987l35.111076-26.332283c9.69517-7.263442 11.655911-21.019342 4.381205-30.714512-7.253204-9.652167-20.986578-11.655911-30.714512-4.381205l-111.159134 83.368838 111.159134 83.368839a21.822068 21.822068 0 0 0 13.14464 4.392468c6.674708 0 13.262387-3.031724 17.569872-8.773673 7.273681-9.69517 5.313965-23.451069-4.381205-30.714512l-35.111076-26.332283h142.616987c42.337658 0 76.791399 34.453741 76.7914 76.791399s-34.453741 76.791399-76.7914 76.7914H590.083543c-12.116659 0-21.940839 9.82418-21.940839 21.940838s9.82418 21.940839 21.940839 21.940839h186.493544c66.539236 0 120.672053-54.132817 120.672053-120.672053s-54.132817-120.674101-120.672053-120.6741z" fill="#22C67F" /></svg>