<svg viewBox="0 0 1024 1024"><!-- green plus sign --><path d="M710.4 460.8H595.2c-6.4 0-6.4-6.4-6.4-6.4s0-6.4 6.4-6.4H704c6.4 0 6.4 6.4 6.4 6.4v6.4z" fill="#17A09A" /><path d="M652.8 518.4c-6.4 0-12.8-6.4-12.8-12.8V396.8c0-6.4 6.4-6.4 6.4-6.4 6.4 0 6.4 6.4 6.4 6.4v108.8c6.4 6.4 6.4 12.8 0 12.8z" fill="#17A09A" /><path d="M569.6 371.2h-51.2c-6.4 0-12.8-6.4-12.8-12.8s6.4-6.4 12.8-6.4h51.2l6.4 6.4-6.4 12.8z" fill="#17A09A" /><path d="M544 390.4c-6.4 0-12.8 0-12.8-6.4v-51.2c0-6.4 6.4-6.4 6.4-6.4l6.4 6.4V384c6.4 6.4 0 6.4 0 6.4z" fill="#17A09A" /></svg>