<svg viewBox="0 0 1024 1024"><!-- green document with scroll --><path d="M655.5 279.8c-19 0-34.4 15.4-34.4 34.4v52.5l-362.3 0.3v-52.5c0-19 15.4-34.4 34.4-34.4l1.8-0.3h360.5z" fill="#CDE9E3" /><path d="M365.7 758.2c-19 0-34.4-15.4-34.4-34.4V314.3c0-19-15.4-34.4-34.4-34.4h362.3c19 0 34.4 15.4 34.4 34.4v357" fill="#CDE9E3" /><path d="M369.3 758.2c19 0 34.4-15.4 34.4-34.4v-52.5H766v52.5c0 19-15.4 34.4-34.4 34.4H369.3z" fill="#CDE9E3" /><path d="M613.9 366.8H411c-4 0-7.2 3.2-7.2 7.2s3.2 7.2 7.2 7.2h202.9c4 0 7.2-3.2 7.2-7.2s-3.2-7.2-7.2-7.2zM613.9 410.3H411c-4 0-7.2 3.2-7.2 7.2s3.2 7.2 7.2 7.2h202.9c4 0 7.2-3.2 7.2-7.2s-3.2-7.2-7.2-7.2zM613.9 453.8H411c-4 0-7.2 3.2-7.2 7.2s3.2 7.2 7.2 7.2h202.9c4 0 7.2-3.2 7.2-7.2s-3.2-7.2-7.2-7.2zM613.9 497.2H411c-4 0-7.2 3.2-7.2 7.2s3.2 7.2 7.2 7.2h202.9c4 0 7.2-3.2 7.2-7.2 0-3.9-3.2-7.2-7.2-7.2zM613.9 540.7H411c-4 0-7.2 3.2-7.2 7.2s3.2 7.2 7.2 7.2h202.9c4 0 7.2-3.2 7.2-7.2 0-3.9-3.2-7.2-7.2-7.2zM613.9 584.2H411c-4 0-7.2 3.2-7.2 7.2s3.2 7.2 7.2 7.2h202.9c4 0 7.2-3.2 7.2-7.2s-3.2-7.2-7.2-7.2z" fill="#211F1E" /></svg>