<svg viewBox="0 0 1024 1024"><!-- green square --><path d="M328.64 860.032a0.64 0.64 0 0 1-0.64-0.64v-108.992a0.64 0.64 0 0 1 0.64-0.64h94.72a0.64 0.64 0 0 1 0.64 0.64v108.992a0.64 0.64 0 0 1-0.64 0.64h-94.72zM328.64 726.144a0.64 0.64 0 0 1-0.64-0.64V616.512a0.64 0.64 0 0 1 0.64-0.64h94.72a0.64 0.64 0 0 1 0.64 0.64v108.992a0.64 0.64 0 0 1-0.64 0.64h-94.72zM328.64 592.128a0.64 0.64 0 0 1-0.64-0.64V482.56a0.64 0.64 0 0 1 0.64-0.64h94.72a0.64 0.64 0 0 1 0.64 0.64v108.928a0.64 0.64 0 0 1-0.64 0.64h-94.72z" fill="#06EA00" /></svg>