<svg viewBox="0 0 1024 1024"><!-- green cloud --><path d="M761.2 416.4c-21.3 0-41.8 4-60.8 11.2-9.8-113.2-99.4-201.9-208.5-201.9-105.8 0-193.3 83.4-207.4 191.6-5.9-0.6-11.9-1-18-1C167.3 416.3 87 501.7 87 607c0 105.3 78.2 191.1 177.4 191.1 1.7 0 8.6-0.3 11.5-0.5h-1.3v-0.2c3.4 0 3.1 0.1 1.3 0.2l446.5 0.6c13 0 24.8-0.6 38.8-0.6 99.2 0 179.5-85.4 179.5-190.7 0-105.1-80.4-190.5-179.5-190.5z" fill="#00B36A" /><path d="M108.1 517.2c-13.5 26.8-21.2 57.4-21.2 89.9 0 105.3 78.2 191.1 177.4 191.1 1.7 0 8.6-0.3 11.5-0.5h-1.3v-0.2c3.4 0 3.1 0.1 1.3 0.2l446.5 0.6c6 0 11.7-0.1 17.4-0.2l1.7-2.4c-369.7-0.1-568.5-40.8-633.3-278.5z" fill="#009957" /></svg>