<svg viewBox="0 0 1024 1024"><!-- green ring --><path d="M505.6 736C384 736 281.6 640 281.6 518.4S384 294.4 505.6 294.4s224 102.4 224 224-102.4 217.6-224 217.6z m0-428.8C390.4 307.2 300.8 396.8 300.8 512c0 115.2 89.6 204.8 204.8 204.8 115.2 0 204.8-89.6 204.8-204.8 0-108.8-89.6-204.8-204.8-204.8z" fill="#17A09A" /><path d="M512 864C320 864 160 704 160 512S320 166.4 512 166.4s352 160 352 352S704 864 512 864zM512 185.6c-185.6 0-332.8 147.2-332.8 332.8s147.2 332.8 332.8 332.8 332.8-147.2 332.8-332.8S697.6 185.6 512 185.6z" fill="#17A09A" /></svg>