<svg viewBox="0 0 1024 1024"><!-- green and red lines --><path d="M700.2 514.5H200.5c-16.6 0-30 13.4-30 30s13.4 30 30 30h499.7c16.6 0 30-13.4 30-30s-13.5-30-30-30zM668.4 689.8h-74c-16.6 0-30 13.4-30 30s13.4 30 30 30h74c16.6 0 30-13.4 30-30s-13.4-30-30-30zM479.3 689.8H200.5c-16.6 0-30 13.4-30 30s13.4 30 30 30h278.8c16.6 0 30-13.4 30-30s-13.4-30-30-30z" fill="#33CC99" /><path d="M897.9 369.2H205c-33.8 0-61.4-27.6-61.4-61.4s27.6-61.4 61.4-61.4h692.9c33.8 0 61.4 27.6 61.4 61.4s-27.6 61.4-61.4 61.4z" fill="#FFB89A" /></svg>