<svg viewBox="0 0 1024 1024"><!-- green and orange steeple --><path d="M661.333333 320c0-123.733333-149.333333-192-149.333333-192s-149.333333 64-149.333333 192h298.666666z" fill="#009688" /><path d="M362.666667 320h298.666666v298.666667H362.666667z" fill="#E89419" /><path d="M618.666667 448h-42.666667v-64c0-12.8 8.533333-21.333333 21.333333-21.333333s21.333333 8.533333 21.333334 21.333333v64zM533.333333 448h-42.666666v-64c0-12.8 8.533333-21.333333 21.333333-21.333333s21.333333 8.533333 21.333333 21.333333v64zM448 448h-42.666667v-64c0-12.8 8.533333-21.333333 21.333334-21.333333s21.333333 8.533333 21.333333 21.333333v64zM725.333333 832h-42.666666v-64c0-12.8 8.533333-21.333333 21.333333-21.333333s21.333333 8.533333 21.333333 21.333333v64z" fill="#805A26" /></svg>