<svg viewBox="0 0 1024 1024"><!-- green stars --><path d="M582.4 422.4h-51.2c-6.4 0-6.4-6.4-6.4-6.4 0-6.4 6.4-6.4 6.4-6.4h51.2c6.4 0 6.4 6.4 6.4 6.4 0 6.4 0 6.4-6.4 6.4z" fill="#17A09A" /><path d="M556.8 448c-6.4 0-6.4-6.4-6.4-6.4v-51.2c0-6.4 0-6.4 6.4-6.4s6.4 0 6.4 6.4v44.8c0 6.4 0 12.8-6.4 12.8zM710.4 332.8h-57.6c-6.4 0-6.4-6.4-6.4-6.4 0-6.4 6.4-6.4 6.4-6.4h57.6c6.4 0 6.4 6.4 6.4 6.4 6.4 0 0 6.4-6.4 6.4z" fill="#17A09A" /><path d="M684.8 358.4c-6.4 0-6.4-6.4-6.4-6.4v-57.6c0-6.4 6.4-6.4 6.4-6.4 6.4 0 6.4 6.4 6.4 6.4v51.2c0 6.4 0 12.8-6.4 12.8z" fill="#17A09A" /><path d="M710.4 569.6h-51.2c-6.4 0-6.4-6.4-6.4-6.4 0-6.4 6.4-6.4 6.4-6.4h51.2c6.4 0 6.4 6.4 6.4 6.4s0 6.4-6.4 6.4z" fill="#17A09A" /><path d="M684.8 588.8c-6.4 0-6.4-6.4-6.4-6.4v-51.2c0-6.4 6.4-6.4 6.4-6.4 6.4 0 6.4 6.4 6.4 6.4v51.2c0 6.4 0 6.4-6.4 6.4z" fill="#17A09A" /><path d="M377.6 768h-44.8c-6.4 0-6.4-6.4-6.4-6.4 0-6.4 6.4-6.4 6.4-6.4h44.8c6.4 0 6.4 6.4 6.4 6.4 6.4 0 0 6.4-6.4 6.4z" fill="#17A09A" /><path d="M358.4 787.2c-6.4 0-6.4-6.4-6.4-6.4v-44.8c0-6.4 6.4-6.4 6.4-6.4 6.4 0 6.4 6.4 6.4 6.4v44.8c0 6.4-6.4 6.4-6.4 6.4z" fill="#17A09A" /></svg>