<svg viewBox="0 0 1024 1024"><!-- green rectangle --><path d="M824.267618 954.509927H196.888029c-38.753036 0-70.283584-31.531572-70.283585-70.294847V141.41085c0-38.764298 31.531572-70.294847 70.283585-70.294847h627.378565c38.753036 0 70.283584 31.531572 70.283584 70.294847v742.80423c0.001024 38.763275-31.530549 70.294847-70.28256 70.294847zM196.888029 116.62361c-13.665797 0-24.775977 11.121442-24.775978 24.78724v742.80423c0 13.665797 11.11018 24.78724 24.775978 24.78724h627.378565c13.665797 0 24.775977-11.121442 24.775977-24.78724V141.41085c0-13.665797-11.11018-24.78724-24.775977-24.78724H196.888029z" fill="#22C67F" /></svg>