<svg viewBox="0 0 1024 1024"><!-- green briefcase --><path d="M865.62337 243.363207H679.002864v-62.207176c0-34.30323-27.903947-62.207177-62.207177-62.207177H430.17518c-34.30323 0-62.207177 27.903947-62.207176 62.207177v62.207176H160.611771c-34.30323 0-62.207177 27.903947-62.207176 62.207177v539.126818c0 34.30323 27.903947 62.207177 62.207176 62.207177h705.011599c34.30323 0 62.207177-27.903947 62.207177-62.207177v-539.126818c0-34.30323-27.903947-62.207177-62.207177-62.207177z m-456.183915-62.207176c0-11.430656 9.30507-20.735726 20.735725-20.735726h186.620507c11.430656 0 20.735726 9.30507 20.735725 20.735726v62.207176H409.439455v-62.207176z m476.919641 663.541171c0 11.430656-9.30507 20.735726-20.735726 20.735726H160.611771c-11.430656 0-20.735726-9.30507-20.735725-20.735726V421.281712l372.745452 176.561858 373.737598-157.359912v404.213544z m0-449.222519l-372.745453 156.94831L139.876046 375.388101v-69.818741c0-11.430656 9.30507-20.735726 20.735725-20.735725h705.011599c11.430656 0 20.735726 9.30507 20.735726 20.735725v89.905323z" fill="#22C67F" /><path d="M513.117059 492.190891m-41.471451 0a41.471451 41.471451 0 1 0 82.942902 0 41.471451 41.471451 0 1 0-82.942902 0Z" fill="#74E8AE" /></svg>