<svg viewBox="0 0 1024 1024"><!-- green glasses --><path d="M870.4 404.8H619.2c-27.2 0-48 20.8-48 48v116.8c0 27.2 20.8 48 48 48h251.2c27.2 0 48-20.8 48-48v-116.8c0-25.6-20.8-48-48-48zM403.2 404.8H152c-27.2 0-48 20.8-48 48v116.8c0 27.2 20.8 48 48 48h251.2c27.2 0 48-20.8 48-48v-116.8c0-25.6-20.8-48-48-48z" fill="#9DE8F7" /><path d="M950.4 457.6v-4.8c0-44.8-35.2-80-80-80H619.2c-44.8 0-80 35.2-80 80v4.8h-54.4v-4.8c0-44.8-35.2-80-80-80H152c-44.8 0-80 35.2-80 80v4.8H0v32h72v80c0 44.8 35.2 80 80 80h251.2c44.8 0 80-35.2 80-80v-80h54.4v80c0 44.8 35.2 80 80 80h251.2c44.8 0 80-35.2 80-80v-80H1024v-32h-73.6z m-499.2 112c0 27.2-20.8 48-48 48H152c-27.2 0-48-20.8-48-48v-116.8c0-27.2 20.8-48 48-48h251.2c27.2 0 48 22.4 48 48v116.8z m467.2 0c0 27.2-20.8 48-48 48H619.2c-27.2 0-48-20.8-48-48v-116.8c0-27.2 20.8-48 48-48h251.2c27.2 0 48 22.4 48 48v116.8z" fill="" /></svg>