<svg viewBox="0 0 1024 1024"><!-- green and yellow building --><path d="M512 384m-170.666667 0a170.666667 170.666667 0 1 0 341.333334 0 170.666667 170.666667 0 1 0-341.333334 0Z" fill="#009688" /><path d="M341.333333 384h341.333334v128H341.333333z" fill="#E89419" /><path d="M85.333333 512h853.333334v362.666667H85.333333z" fill="#FFB74D" /><path d="M661.333333 725.333333h85.333334v106.666667h-85.333334zM533.333333 725.333333h85.333334v106.666667h-85.333334zM405.333333 725.333333h85.333334v106.666667h-85.333334zM789.333333 725.333333h85.333334v106.666667h-85.333334zM277.333333 725.333333h85.333334v106.666667h-85.333334zM149.333333 725.333333h85.333334v106.666667H149.333333zM661.333333 576h85.333334v106.666667h-85.333334zM533.333333 576h85.333334v106.666667h-85.333334zM405.333333 576h85.333334v106.666667h-85.333334zM618.666667 512h-85.333334v-64c0-23.466667 19.2-42.666667 42.666667-42.666667s42.666667 19.2 42.666667 42.666667v64zM490.666667 512h-85.333334v-64c0-23.466667 19.2-42.666667 42.666667-42.666667s42.666667 19.2 42.666667 42.666667v64zM789.333333 576h85.333334v106.666667h-85.333334zM277.333333 576h85.333334v106.666667h-85.333334zM149.333333 576h85.333334v106.666667H149.333333z" fill="#B07424" /></svg>