<svg viewBox="0 0 1024 1024"><!-- green ring --><path d="M582.8 465.5c-13.3 0-24.6 8.7-28.5 20.7h-0.1c-2 6.4-4.6 12.7-7.7 18.7l0.2 0.1c-2.3 4.2-3.6 9.1-3.6 14.3 0 16.6 13.4 30 30 30 13 0 24-8.2 28.2-19.8 3.6-7.3 6.7-14.8 9.3-22.6 1.4-3.5 2.2-7.3 2.2-11.4 0-16.5-13.4-30-30-30z" fill="#33CC99" /><path d="M512 552.5c-6.8 0-13 2.3-18.1 6.1-17.9 9.6-38 14.6-58.8 14.6-33.4 0-64.8-13-88.4-36.6-23.6-23.6-36.6-55-36.6-88.4s13-64.8 36.6-88.4c23.6-23.6 55-36.6 88.4-36.6s64.8 13 88.4 36.6c15.6 15.6 26.6 34.7 32.2 55.4v0.2h0.1c2.9 13.5 14.9 23.7 29.3 23.7 16.6 0 30-13.4 30-30 0-3.5-0.6-6.8-1.7-9.9-21.5-78.4-93.2-136-178.4-136-102.2 0-185 82.8-185 185s82.8 185 185 185c33.6 0 65-8.9 92.1-24.6l-0.1-0.2c8.9-5.2 14.9-14.9 14.9-25.9 0.1-16.6-13.3-30-29.9-30z" fill="#33CC99" /></svg>