<svg viewBox="0 0 1024 1024"><!-- green eye --><path d="M484.482058 379.829715a70.700306 70.700306 0 0 0-45.410338 18.200586l-278.496808 252.010942 375.431103-10.364791a70.706449 70.706449 0 0 0 45.422625-18.212872L859.913162 369.4639l-375.431104 10.365815z m65.381221 206.71528a23.657894 23.657894 0 0 1-15.167837 6.09007l-248.092534 6.848769 184.033149-166.532901a23.616939 23.616939 0 0 1 15.15555-6.078807l248.092534-6.848769-184.020862 166.521638z" fill="#22C67F" /><path d="M510.243013 509.753596m-57.361128 0a57.361128 57.361128 0 1 0 114.722255 0 57.361128 57.361128 0 1 0-114.722255 0Z" fill="#74E8AE" /></svg>