<svg viewBox="0 0 1024 1024"><!-- green hat --><path d="M1003.82127 491.380301H13.229063c-0.670273 0-1.234713-0.56444-1.234713-1.234712v-53.374858c0-0.670273 0.56444-1.234713 1.234713-1.234713h990.592207c0.670273 0 1.234713 0.56444 1.234712 1.234713v53.374858c0 0.670273-0.56444 1.234713-1.234712 1.234712z" fill="#63BCBC" /><path d="M743.191098 129.609536H271.425087c-18.379578 0-28.92755 14.040445-33.407793 36.40638L191.204051 440.369036c0 20.03762 15.028215 36.40638 33.407793 36.40638h565.357219c18.379578 0 33.407793-16.404038 33.407793-36.40638l-46.777965-274.35312c-3.10442-20.778448-15.028215-36.40638-33.407793-36.40638z" fill="#63BCBC" /></svg>