<svg viewBox="0 0 1024 1024"><!-- green stars --><path d="M512 76.8l17.066667 42.666667 44.8 2.133333-34.133334 29.866667 10.666667 42.666666L512 170.666667l-38.4 23.466666 10.666667-42.666666-34.133334-29.866667 44.8-2.133333zM682.666667 128l14.933333 38.4 40.533333 2.133333-29.866666 25.6 8.533333 40.533334-34.133333-21.333334-34.133334 21.333334 8.533334-40.533334-29.866667-25.6 40.533333-2.133333zM341.333333 128l14.933334 38.4 40.533333 2.133333-29.866667 25.6 8.533334 40.533334-34.133334-21.333334-34.133333 21.333334 8.533333-40.533334-29.866666-25.6 40.533333-2.133333z" fill="#2E7D32" /></svg>