<svg viewBox="0 0 1024 1024"><!-- green document --><path d="M173.2158 863.008367V160.915865c0-12.095157 9.845681-21.940839 21.940838-21.940838h570.450542c12.095157 0 21.940839 9.845681 21.940839 21.940838v416.867743H831.428672V160.915865c0-36.295711-29.525781-65.821492-65.821492-65.821492H195.156638c-36.295711 0-65.821492 29.524757-65.821492 65.821492v702.092502c0 36.295711 29.524757 65.821492 65.821492 65.821492h263.284945v-43.880653H195.156638c-12.095157 0-21.940839-9.845681-21.940838-21.940839z" fill="#22C67F" /><path d="M239.037292 270.618011h285.224759v43.880653H239.037292zM655.905035 248.677172h87.761306v87.761307h-87.761306zM239.037292 490.022302h504.629049v43.880653H239.037292zM239.037292 709.425568h241.344105V753.306222H239.037292z" fill="#74E8AE" /></svg>