<svg viewBox="0 0 1024 1024"><!-- grey squares --><path d="M249.6 294.4c0-25.6 19.2-44.8 44.8-44.8h166.4c32 0 51.2 19.2 51.2 44.8v166.4c0 32-19.2 51.2-44.8 51.2H294.4c-25.6 0-44.8-19.2-44.8-44.8V294.4zM556.8 345.6c0-25.6 19.2-51.2 44.8-51.2h121.6c25.6 0 51.2 19.2 51.2 51.2v121.6c0 25.6-19.2 51.2-51.2 51.2H601.6c-25.6 0-44.8-25.6-44.8-51.2V345.6zM556.8 608c0-25.6 19.2-51.2 51.2-51.2h121.6c25.6 0 51.2 19.2 51.2 44.8v64l-108.8 108.8h-64c-25.6 0-44.8-19.2-44.8-51.2V608z" fill="#BFBFBF" /><path d="M294.4 601.6c0-25.6 19.2-51.2 51.2-51.2h121.6c25.6 6.4 44.8 25.6 44.8 51.2v121.6c0 25.6-19.2 51.2-51.2 51.2H339.2c-25.6 0-51.2-19.2-51.2-51.2V601.6z" fill="#BFBFBF" /></svg>