<svg viewBox="0 0 1024 1024"><!-- grey letter T --><path d="M725.3 384c-23.6 0-42.7-19.1-42.7-42.7V320H341.3v21.3c0 23.6-19.1 42.7-42.7 42.7S256 364.9 256 341.3v-64c0-23.6 19.1-42.7 42.7-42.7h426.7c23.6 0 42.7 19.1 42.7 42.7v64c-0.1 23.6-19.2 42.7-42.8 42.7z" fill="#5F6379" /><path d="M512 789.3c-23.6 0-42.7-19.1-42.7-42.7V277.3c0-23.6 19.1-42.7 42.7-42.7s42.7 19.1 42.7 42.7v469.3c0 23.6-19.1 42.7-42.7 42.7z" fill="#5F6379" /><path d="M618.7 789.3H405.3c-23.6 0-42.7-19.1-42.7-42.7s19.1-42.7 42.7-42.7h213.3c23.6 0 42.7 19.1 42.7 42.7s-19.1 42.7-42.6 42.7z" fill="#5F6379" /></svg>