<svg viewBox="0 0 1024 1024"><!-- grey arrow icon  --><path d="M731.9 685.5c-8 0-16-2.2-22.9-6.7L503.8 548c-12.3-7.8-19.7-21.4-19.7-36 0-14.6 7.4-28.1 19.7-36L709 345.2c13.1-8.4 29.8-8.9 43.5-1.4 13.6 7.5 22.1 21.8 22.1 37.4v261.6c0 15.6-8.5 29.9-22.1 37.4-6.4 3.5-13.5 5.3-20.6 5.3zM606.1 512l83.2 53V459l-83.2 53z" fill="#5F6379" /><path d="M518.6 685.5c-8 0-16-2.2-22.9-6.7L290.5 548c-12.3-7.8-19.7-21.4-19.7-36 0-14.6 7.4-28.1 19.7-36l205.2-130.8c13.1-8.4 29.8-8.9 43.5-1.4 13.6 7.5 22.1 21.8 22.1 37.4v261.6c0 15.6-8.5 29.9-22.1 37.4-6.5 3.5-13.6 5.3-20.6 5.3zM392.8 512l83.2 53V459l-83.2 53z" fill="#5F6379" /><path d="M292.1 672c-23.6 0-42.7-19.1-42.7-42.7V394.7c0-23.6 19.1-42.7 42.7-42.7s42.7 19.1 42.7 42.7v234.7c-0.1 23.5-19.2 42.6-42.7 42.6z" fill="#5F6379" /></svg>