<svg viewBox="0 0 1024 1024"><!-- grey woman icon --><path d="M314.8 512.1h390.5c-0.3-80.9-49.9-150.3-120.4-179.5 9.8-6 18.8-13.2 26.8-21.4 6.8 6.8 16.3 11.1 26.8 11.1 20.9 0 37.8-16.9 37.8-37.8 0-17.7-12.1-32.5-28.5-36.7 0.5-1.8 0.9-3.6 1.3-5.5 12.1-6.3 20.3-19 20.3-33.5 0-14.7-8.4-27.4-20.6-33.7C634.1 112.8 580 66.6 515.6 66.6c-63.7 0-117.3 45.2-132.7 106.6-12.2 6.3-20.5 19-20.5 33.6 0 14.1 7.7 26.4 19.1 32.9 0.5 2.5 1.1 4.9 1.7 7.3-18.3 2.7-32.4 18.4-32.4 37.4 0 20.9 16.9 37.8 37.8 37.8 11.5 0 21.8-5.1 28.7-13.2 7.4 7.9 15.6 14.8 24.6 20.8-73.9 27.6-126.8 98.7-127.1 182.3z m110.8-73.5l54.1-93.7c0.6-1.1 2.1-1.5 3.2-0.9l31.2 18c0.4 0.2 0.7 0.5 0.9 0.9 0.2-0.4 0.5-0.7 0.9-0.9l31.2-18c1.1-0.7 2.6-0.3 3.2 0.9l54.1 93.7c0.6 1.1 0.3 2.6-0.9 3.2l-31.2 18c-1.1 0.6-2.6 0.3-3.2-0.9L515 365.2l-54.1 93.7c-0.6 1.1-2.1 1.5-3.2 0.9l-31.2-18c-1.2-0.7-1.6-2.1-0.9-3.2z" fill="#666666" /></svg>