<svg viewBox="0 0 1024 1024"><!-- grey star and squares --><path d="M466.7 255.3l-10.6 65 55.5-30.7h0.2l55.5 30.7-10.6-65c0-0.1 0-0.2 0.1-0.2l44.9-46-62.1-9.5c-0.1 0-0.1-0.1-0.2-0.1l-27.8-59.1-27.6 59c0 0.1-0.1 0.1-0.2 0.1l-62.1 9.5 44.9 46c0.1 0.1 0.2 0.2 0.1 0.3z" fill="#666666" /><path d="M403.8 407.1h52.5v52.5h-52.5zM403.8 523.1h52.5v52.5h-52.5zM403.8 639.1h52.5v52.5h-52.5zM204.4 407.1h52.5v52.5h-52.5zM204.4 523.1h52.5v52.5h-52.5zM204.3 639.1h52.5v52.5h-52.5zM567.8 407.1h52.5v52.5h-52.5zM567.8 523.1h52.5v52.5h-52.5zM567.8 639.1h52.5v52.5h-52.5zM765.8 407.1h52.5v52.5h-52.5zM765.8 523.1h52.5v52.5h-52.5zM765.8 639.1h52.5v52.5h-52.5z" fill="#666666" /></svg>