<svg viewBox="0 0 1024 1024"><!-- grey building --><path d="M323.1 923.1h-126V381c0-12.1 10.9-22 24.4-22h101.6v564.1zM684.8 296.1h133.5v627H684.8zM684.8 923.1h-292V154c0-17.6 14.3-31.9 31.9-31.9h260.1v801z" fill="#CCCCCC" /><path d="M935.2 918.4H911V337.6c0-30-24.7-54.4-55-54.4H717.7V91.7c0-30.5-24.7-55.3-55-55.3H361.5c-30.3 0-55 24.8-55 55.3v191.4H168.3c-30.3 0-55 24.4-55 54.4v580.8H89.7c-14.8 0-26.9 8.8-26.9 19.6v0.9c0 10.8 12.1 19.6 26.9 19.6h845.5c14.8 0 26.9-8.8 26.9-19.6v-0.8c0-10.8-12.1-19.6-26.9-19.6zM718.4 323.1H856c8.3 0 15 6.5 15 14.4v580.1H718.4V323.1zM346.5 91.7c0-8.5 6.7-15.3 15-15.3h301.3c8.3 0 15 6.9 15 15.3v825.1h-53.2V815.2c0-13.6-12.6-24.7-28.1-24.7H428.3c-15.5 0-28.1 11.1-28.1 24.7v101.6h-53.8V91.7h0.1zM153.3 337.6c0-8 6.7-14.4 15-14.4h137.6v594.5H153.3V337.6z" fill="#666666" /></svg>