<svg viewBox="0 0 1024 1024"><!-- grey hat --><path d="M768 704H256a254.688 254.688 0 0 1-64-8.416V928a32 32 0 0 0 32 32h576a32 32 0 0 0 32-32v-232.416A254.688 254.688 0 0 1 768 704z" fill="#EAEAEA" /><path d="M792.928 193.248A287.68 287.68 0 0 1 800 256a286.4 286.4 0 0 1-53.888 167.328c13.984-31.648 21.888-66.56 21.888-103.328a256 256 0 0 0-512 0c0 36.768 7.904 71.68 21.888 103.328A286.4 286.4 0 0 1 224 256c0-21.568 2.56-42.528 7.072-62.752A256 256 0 0 0 256 704h512a256 256 0 0 0 24.928-510.752z" fill="#EAEAEA" /></svg>