<svg viewBox="0 0 1024 1024"><!-- grey curves --><path d="M500.6 653.5c37.1 58.4 34.2 76.3 1.9 108.6-41.2 41.2-46.4 73.4-1.9 143.4 4.2 6.5 12.8 8.4 19.3 4.3 6.5-4.2 8.4-12.8 4.3-19.3-37.1-58.4-34.2-76.3-1.9-108.6 41.2-41.2 46.4-73.4 1.9-143.4-4.2-6.5-12.8-8.4-19.3-4.3-6.5 4.1-8.5 12.8-4.3 19.3zM276.6 653.5c37.1 58.4 34.2 76.3 1.9 108.6-41.2 41.2-46.4 73.4-1.9 143.4 4.2 6.5 12.8 8.4 19.3 4.3 6.5-4.2 8.4-12.8 4.3-19.3-37.1-58.4-34.2-76.3-1.9-108.6 41.2-41.2 46.4-73.4 1.9-143.4-4.2-6.5-12.8-8.4-19.3-4.3-6.5 4.1-8.4 12.8-4.3 19.3zM726.5 762.1c-41.2 41.2-46.4 73.4-1.9 143.4 4.2 6.5 12.8 8.4 19.3 4.3 6.5-4.2 8.4-12.8 4.3-19.3-37.1-58.4-34.2-76.3-1.9-108.6 41.2-41.2 46.4-73.4 1.9-143.4-4.2-6.5-12.8-8.4-19.3-4.3-6.5 4.2-8.4 12.8-4.3 19.3 37.1 58.4 34.2 76.3 1.9 108.6z" fill="#5E676F" /></svg>