<svg viewBox="0 0 1024 1024"><!-- grey document --><path d="M515.1 920.6H228V104.2h567.7v339.6c0 11 9 20 20 20s20-9 20-20V96c0-17.5-14.3-31.8-31.8-31.8H219.7C202.2 64.2 188 78.4 188 96v832.9c0 17.5 14.3 31.8 31.8 31.8h295.4c11 0 20-9 20-20s-9-20.1-20.1-20.1zM749 384.6c0-11-9-20-20-20H283c-11 0-20 9-20 20s9 20 20 20h446c11 0 20-9 20-20zM541 522.1c0-11-6.9-20-15.2-20H278.3c-8.4 0-15.2 9-15.2 20s6.9 20 15.2 20h247.4c8.4 0 15.3-9 15.3-20zM278.3 640.6c-8.4 0-15.2 9-15.2 20s6.9 20 15.2 20h168.6c8.4 0 15.2-9 15.2-20s-6.9-20-15.2-20H278.3z" fill="#666666" /><path d="M726.8 300.1h-429c-14.8 0-26.8-12-26.8-26.8v-81.4c0-14.8 12-26.8 26.8-26.8h429c14.8 0 26.8 12 26.8 26.8v81.4c0 14.8-12 26.8-26.8 26.8z" fill="#CCCCCC" /></svg>