<svg viewBox="0 0 1024 1024"><!-- grey desk --><path d="M890.1 881H212.8c-12.8 0-23.2-10.4-23.2-23.2v-74.2h700.5V881zM927.1 664.6H162.8c-10.6 0-19.2-8.6-19.2-19.2v-32.5H927l0.1 51.7z" fill="#CCCCCC" /><path d="M910.2 577.9H114c-27 0-49 22-49 49v118c0 24.6 18.3 45.1 42 48.5v113.4c0 29.9 24.3 54.1 54.1 54.1H863c29.9 0 54.1-24.3 54.1-54.1V793.3c23.7-3.4 42-23.8 42-48.5v-118c0.1-26.9-21.9-48.9-48.9-48.9z m-33 328.9c0 7.8-6.3 14.1-14.1 14.1H161.2c-7.8 0-14.1-6.3-14.1-14.1V794.9h730.1v111.9z m42-161.9c0 4.9-4 9-9 9H114c-4.9 0-9-4-9-9v-118c0-4.9 4-9 9-9h796.2c4.9 0 9 4 9 9v118z" fill="#666666" /><path d="M670.4 664.6H373.2c-5.5 0-10 4.5-10 10v20c0 5.5 4.5 10 10 10h297.2c5.5 0 10-4.5 10-10v-20c0-5.5-4.5-10-10-10z" fill="#666666" /></svg>