<svg viewBox="0 0 1024 1024"><!-- grey stars --><path d="M725.333333 106.666667c-35.285333 0-64-28.714667-64-64a21.333333 21.333333 0 1 0-42.666666 0c0 35.285333-28.714667 64-64 64a21.333333 21.333333 0 1 0 0 42.666666c35.285333 0 64 28.714667 64 64a21.333333 21.333333 0 1 0 42.666666 0c0-35.285333 28.714667-64 64-64a21.333333 21.333333 0 1 0 0-42.666666zM981.333333 362.666667c-35.285333 0-64-28.714667-64-64a21.333333 21.333333 0 1 0-42.666666 0c0 35.285333-28.714667 64-64 64a21.333333 21.333333 0 1 0 0 42.666666c35.285333 0 64 28.714667 64 64a21.333333 21.333333 0 1 0 42.666666 0c0-35.285333 28.714667-64 64-64a21.333333 21.333333 0 1 0 0-42.666666z" fill="#C6C6C6" /></svg>