<svg viewBox="0 0 1024 1024"><!-- grey man icon --><path d="M307.2 513.3h411.5c11.2 0 20.3-9.5 20.3-21.1l-67.7-198c0-11.6-9.1-21.1-20.3-21.1H524.7c52.7-6.3 93.6-51.1 93.6-105.4 0-58.7-47.5-106.2-106.2-106.2S405.9 109 405.9 167.7c0 54.4 40.9 99.2 93.6 105.4H374.9c-11.2 0-20.3 9.5-20.3 21.1l-67.7 198c0 11.6 9.1 21.1 20.3 21.1zM480 314.4c0-7.2 7.1-13 15.7-13h30.5c8.6 0 15.7 5.9 15.7 13l-13.1 31.1 13.1 99.7c0 7.2-20.1 45.5-28.8 45.5h-4.4c-8.6 0-28.8-38.4-28.8-45.5L493.1 345 480 314.4z" fill="#666666" /></svg>