<svg viewBox="0 0 1024 1024"><!-- light --><path d="M692.9 599.2h-93V364.5h93c26.9 0 48.8 21.9 48.8 48.8v137.1c0 26.9-21.8 48.8-48.8 48.8z m-44.1-48.8H693V413.3h-44.2v137.1zM810.3 458.6h46.5c12.8 0 23.2 10.4 23.2 23.2 0 12.8-10.4 23.2-23.2 23.2h-46.5c-12.8 0-23.2-10.4-23.2-23.2 0-12.8 10.4-23.2 23.2-23.2zM825 577.9l40.2 23.2c11.1 6.4 14.9 20.6 8.5 31.7-6.4 11.1-20.6 14.9-31.7 8.5l-40.2-23.2c-11.1-6.4-14.9-20.6-8.5-31.7 6.4-11.1 20.6-14.9 31.7-8.5zM801.8 345.5l40.2-23.2c11.1-6.4 25.3-2.6 31.7 8.5 6.4 11.1 2.6 25.3-8.5 31.7L825 385.7c-11.1 6.4-25.3 2.6-31.7-8.5-6.4-11.1-2.6-25.3 8.5-31.7z" fill="#333333" /></svg>