<svg viewBox="0 0 1024 1024"><!-- many blue circles --><path d="M640 528c-88 0-160-72-160-160s72-160 160-160 160 72 160 160-72 160-160 160zM160 880c-17.6 0-32-14.4-32-32s14.4-32 32-32 32 14.4 32 32-14.4 32-32 32z m400-64c-17.6 0-32-14.4-32-32s14.4-32 32-32 32 14.4 32 32-14.4 32-32 32z m80 0c-17.6 0-32-14.4-32-32s14.4-32 32-32 32 14.4 32 32-14.4 32-32 32z m-224 0c-17.6 0-32-14.4-32-32s14.4-32 32-32 32 14.4 32 32-14.4 32-32 32z m0 112c-17.6 0-32-14.4-32-32s14.4-32 32-32 32 14.4 32 32-14.4 32-32 32z m83.2-745.6c12.8 12.8 12.8 32 0 44.8-12.8 12.8-32 12.8-44.8 0-12.8-12.8-12.8-32 0-44.8 12.8-12.8 33.6-12.8 44.8 0zM416 704c-44.8 0-80-35.2-80-80s35.2-80 80-80 80 35.2 80 80-35.2 80-80 80z m224-544c-17.6 0-32-14.4-32-32s14.4-32 32-32 32 14.4 32 32-14.4 32-32 32zM320 400c-17.6 0-32-14.4-32-32s14.4-32 32-32 32 14.4 32 32-14.4 32-32 32z m-16 128c-17.6 0-32-14.4-32-32s14.4-32 32-32 32 14.4 32 32-14.4 32-32 32z m-24 240c-17.6 0-32-14.4-32-32s14.4-32 32-32 32 14.4 32 32-14.4 32-32 32z" fill="#2F4BFF" /></svg>