<svg viewBox="0 0 1024 1024"><!-- many black lines --><path d="M432 768h208v32H432v104c0 9.6-6.4 16-16 16s-16-6.4-16-16V672c0-9.6 6.4-16 16-16s16 6.4 16 16v96z m96-416c9.6 0 16 6.4 16 16s-6.4 16-16 16H336c-9.6 0-16-6.4-16-16s6.4-16 16-16h192z m352 0c9.6 0 16 6.4 16 16s-6.4 16-16 16h-96c-9.6 0-16-6.4-16-16s6.4-16 16-16h96zM624 160c0-9.6 6.4-16 16-16s16 6.4 16 16v112c0 9.6-6.4 16-16 16s-16-6.4-16-16v-112z m-67.2 102.4c6.4 6.4 6.4 16 0 22.4-6.4 6.4-16 6.4-22.4 0l-67.2-67.2c-6.4-6.4-6.4-16 0-22.4 6.4-6.4 16-6.4 22.4 0l67.2 67.2z m24 182.4c6.4-6.4 16-4.8 22.4 1.6 6.4 6.4 4.8 16-1.6 22.4l-432 392c-6.4 6.4-16 4.8-22.4-1.6s-4.8-16 1.6-22.4l432-392z m-169.6 136l-22.4 22.4-96-96 22.4-22.4 96 96zM640 112c9.6 0 16 6.4 16 16s-6.4 16-16 16h-96c-9.6 0-16-6.4-16-16s6.4-16 16-16h96z" fill="#050D42" /></svg>