<svg viewBox="0 0 1024 1024"><!-- music note icon --><path d="M691.2 318.56v-8.16l-257.6 52.8V608c-14.4-8-32-14.4-51.2-14.4-43.2 0-78.4 27.2-78.4 62.4 0 33.6 35.2 62.4 78.4 62.4s78.4-27.2 78.4-62.4v-190.4l200-32v144c-12.8-8-28.8-12.8-48-12.8-43.2 0-78.4 27.2-78.4 62.4 0 33.6 35.2 62.4 78.4 62.4s78.4-27.2 78.4-62.4V318.56z" fill="#FFFFFF" /><path d="M684.8 280l-257.6 52.8-25.6 3.2v225.6c-6.4-1.6-12.8-1.6-19.2-1.6-60.8 0-110.4 43.2-110.4 94.4s49.6 94.4 110.4 94.4 110.4-43.2 110.4-94.4v-161.6l136-20.8v62.4c-4.8 0-11.2-1.6-16-1.6-60.8 0-110.4 43.2-110.4 94.4s49.6 94.4 110.4 94.4c51.2 0 94.4-28.8 107.2-68.8 3.2-12.8 3.2-33.6 3.2-33.6V272l-38.4 8z m-72 409.6c-43.2 0-78.4-28.8-78.4-62.4 0-35.2 35.2-62.4 78.4-62.4 19.2 0 35.2 4.8 48 12.8v-144l-200 32V656c0 35.2-35.2 62.4-78.4 62.4S304 689.6 304 656c0-35.2 35.2-62.4 78.4-62.4 19.2 0 36.8 6.4 51.2 14.4V363.2l257.6-52.8v316.8c0 35.2-35.2 62.4-78.4 62.4z" fill="" /></svg>