<svg viewBox="0 0 1024 1024"><!-- orange smartphones --><path d="M426.666667 853.333333V256c0-46.933333 38.4-85.333333 85.333333-85.333333h298.666667c46.933333 0 85.333333 38.4 85.333333 85.333333v597.333333c0 46.933333-38.4 85.333333-85.333333 85.333334H512c-46.933333 0-85.333333-38.4-85.333333-85.333334z" fill="#E38939" /><path d="M810.666667 234.666667H512c-12.8 0-21.333333 8.533333-21.333333 21.333333v533.333333c0 12.8 8.533333 21.333333 21.333333 21.333334h298.666667c12.8 0 21.333333-8.533333 21.333333-21.333334V256c0-12.8-8.533333-21.333333-21.333333-21.333333z" fill="#FFF3E0" /><path d="M661.333333 874.666667m-32 0a32 32 0 1 0 64 0 32 32 0 1 0-64 0Z" fill="#A6642A" /></svg>