<svg viewBox="0 0 1024 1024"><!-- orange circle --><path d="M675.876 533.004h-23.125c-0.009 38.286-15.521 72.841-40.698 98.052-25.211 25.176-59.767 40.686-98.052 40.698-38.286-0.012-72.841-15.521-98.055-40.698-25.176-25.211-40.686-59.767-40.695-98.052 0.009-38.288 15.519-72.844 40.695-98.055 25.213-25.176 59.769-40.688 98.055-40.698 38.286 0.009 72.841 15.521 98.052 40.698 25.176 25.211 40.688 59.767 40.698 98.055h46.25c-0.046-102.069-82.933-184.956-185-185-102.067 0.044-184.956 82.931-185 185 0.044 102.067 82.933 184.954 185 184.998 102.067-0.044 184.954-82.931 185-184.998h-23.125z" fill="#FF9966" /></svg>