<svg viewBox="0 0 1024 1024"><!-- orange crescent moon --><path d="M550.8096 870.4c-109.59872 0-203.13088-38.8096-280.7808-116.48C192.38912 676.20864 153.6 582.56384 153.6 472.97536c0-78.848 22.272-151.83872 66.72384-219.31008 44.58496-67.3792 102.79936-117.01248 174.67392-149.05344 4.52608-3.46112 9.13408-2.83648 13.66016 1.6896 5.70368 3.46112 7.46496 8.52992 5.16096 15.44192-18.19648 43.50976-27.35104 87.35744-27.35104 131.9424 0 101.66272 36.2496 188.7232 108.75904 261.26336 72.48896 72.51968 159.50848 108.8 261.12 108.8 55.9104 0 104.448-8.52992 145.54112-25.67168 4.52608-3.51232 9.05216-2.92864 13.59872 1.60768 5.66272 3.47136 7.44448 8.54016 5.12 15.45216-29.63456 77.68064-77.85472 139.61216-144.6912 185.86624C709.19168 847.26784 634.14272 870.4 550.83008 870.4z" fill="#FA870B" /></svg>