<svg viewBox="0 0 1024 1024"><!-- orange stripe --><path d="M494.874 137.136v96.5c0 13.322 10.801 24.125 24.125 24.125 13.322 0 24.125-10.803 24.125-24.125v-96.5c0-13.324-10.803-24.125-24.125-24.125-13.325 0-24.125 10.8-24.125 24.125M463.682 805.569l168.875-168.875c9.421-9.423 9.421-24.697 0-34.12-9.423-9.421-24.697-9.421-34.12 0L429.563 771.449c-9.421 9.423-9.421 24.697 0 34.12 9.423 9.421 24.696 9.421 34.119 0M439.557 684.944l193-193c9.421-9.423 9.421-24.697 0-34.12-9.423-9.421-24.697-9.421-34.12 0l-193 193c-9.421 9.423-9.421 24.697 0 34.12 9.424 9.421 24.697 9.421 34.12 0M422.499 354.261h193c13.322 0 24.125-10.803 24.125-24.125 0-13.324-10.803-24.125-24.125-24.125h-193c-13.324 0-24.125 10.801-24.125 24.125 0 13.321 10.8 24.125 24.125 24.125" fill="#FF9966" /></svg>