<svg viewBox="0 0 1024 1024"><!-- orange document --><path d="M716.8 179.2a51.2 51.2 0 0 1 51.2 51.2v281.6h-51.2V230.4H256v563.2h281.6v51.2H256a51.2 51.2 0 0 1-51.2-51.2V230.4a51.2 51.2 0 0 1 51.2-51.2z" fill="#ED892D" /><path d="M586.112 472.3968h-233.3696a19.9424 19.9424 0 0 1 0-39.8848h233.3696a19.9424 19.9424 0 1 1 0 39.8848z m0 105.088h-233.3696a19.9424 19.9424 0 0 1 0-39.8848h233.3696a19.9424 19.9424 0 1 1 0 39.8848z m-76.8 102.4h-156.5696a19.9424 19.9424 0 0 1 0-39.8848h156.5696a19.9424 19.9424 0 1 1 0 39.8848z m-76.8-307.2h-79.7696a19.9424 19.9424 0 0 1 0-39.8848h79.7696a19.9424 19.9424 0 1 1 0 39.8848z" fill="#F5C280" /></svg>