<svg viewBox="0 0 1024 1024"><!-- orange strips --><path d="M443.999 277.003h194.004c13.391 0 24.25-10.857 24.25-24.25s-10.859-24.25-24.25-24.25H443.999c-13.394 0-24.25 10.857-24.25 24.25s10.856 24.25 24.25 24.25M686.504 374.005H395.498c-13.394 0-24.25 10.857-24.25 24.25 0 13.394 10.857 24.25 24.25 24.25h291.006c13.391 0 24.25-10.857 24.25-24.25s-10.859-24.25-24.25-24.25M783.506 665.011h-485.01c-13.394 0-24.25 10.857-24.25 24.25s10.857 24.25 24.25 24.25h485.01c13.391 0 24.25-10.857 24.25-24.25s-10.859-24.25-24.25-24.25M346.997 568.009h388.008c13.391 0 24.25-10.857 24.25-24.25s-10.859-24.25-24.25-24.25H346.997c-13.394 0-24.25 10.857-24.25 24.25s10.856 24.25 24.25 24.25" fill="#FF9966" /></svg>