<svg viewBox="0 0 1024 1024"><!-- orange and pink envelope --><path d="M900.408 899.088c0 48.744-39.536 88.224-88.248 88.224H239.656c-48.712 0-88.192-39.488-88.192-88.224V108.48c0-48.744 39.48-88.256 88.192-88.256h572.504c48.712 0 88.248 39.512 88.248 88.256v790.608z" fill="#F6B246" /><path d="M239.712 20.224c-48.712 0-88.256 39.512-88.256 88.256v790.608c0 48.744 39.536 88.224 88.256 88.224h572.504" fill="#F5A517" /><path d="M525.728 343.256c179.504 0 330.52-85.608 374.68-201.824V108.48c0-48.744-39.536-88.256-88.248-88.256H239.656c-48.712 0-88.192 39.512-88.192 88.256v34.368c44.832 115.48 195.376 200.408 374.264 200.408z" fill="#E6246B" /></svg>