<svg viewBox="0 0 1024 1024"><!-- orange simle face --><path d="M384 618.666667h256v234.666666H384z" fill="#FF9800" /><path d="M512 627.2c-81.066667 0-85.333333-55.466667-85.333333-55.466667V405.333333h170.666666v166.4s-4.266667 55.466667-85.333333 55.466667z" fill="#FF9800" /><path d="M661.333333 330.666667m-32 0a32 32 0 1 0 64 0 32 32 0 1 0-64 0Z" fill="#FFA726" /><path d="M362.666667 330.666667m-32 0a32 32 0 1 0 64 0 32 32 0 1 0-64 0Z" fill="#FFA726" /><path d="M597.333333 533.333333s-27.733333 42.666667-85.333333 42.666667-85.333333-42.666667-85.333333-42.666667h-170.666667c0 168.533333 72.533333 234.666667 72.533333 234.666667h366.933334S768 661.333333 768 533.333333h-170.666667zM320 853.333333h384v85.333334H320z" fill="#FFB74D" /></svg>