<svg viewBox="0 0 1024 1024"><!-- orange and brown church --><path d="M512 426.666667L128 597.333333v298.666667h768V597.333333l-384-170.666666z" fill="#E89419" /><path d="M725.333333 896H298.666667V533.333333l213.333333-85.333333 213.333333 85.333333z" fill="#FFB74D" /><path d="M832 746.666667h-42.666667v-64c0-12.8 8.533333-21.333333 21.333334-21.333334s21.333333 8.533333 21.333333 21.333334v64zM234.666667 746.666667H192v-64c0-12.8 8.533333-21.333333 21.333333-21.333334s21.333333 8.533333 21.333334 21.333334v64zM618.666667 896H405.333333v-149.333333c0-59.733333 46.933333-106.666667 106.666667-106.666667s106.666667 46.933333 106.666667 106.666667v149.333333z" fill="#805A26" /></svg>