<svg viewBox="0 0 1024 1024"><!-- orange belt--><path d="M464.853333 529.706667L285.226667 77.013333a485.76 485.76 0 0 1 128-45.44l146.56 462.933334 179.626666 452.693333a485.76 485.76 0 0 1-128 45.44z" fill="#FDCA89" /><path d="M398.08 56.746667l140.586667 444.16v2.986666l171.946666 433.066667a463.786667 463.786667 0 0 1-85.333333 30.72l-140.16-444.586667v-2.986666l-172.8-432.853334a463.786667 463.786667 0 0 1 85.333333-30.72M426.666667 7.04a508.373333 508.373333 0 0 0-168.746667 60.16l186.24 469.333333L597.333333 1016.96a508.373333 508.373333 0 0 0 168.746667-60.16l-186.24-469.333333L426.666667 7.04z" fill="#5C2D51" /></svg>