<svg viewBox="0 0 1024 1024"><!-- orange document --><path d="M715.52 177.92a53.76 53.76 0 0 1 53.632 49.92l0.128 3.84v85.2736a26.88 26.88 0 0 1-53.6064 2.9184l-0.1536-2.9184V231.68h-432.64v509.44h112.4864a26.88 26.88 0 0 1 2.944 53.6064l-2.944 0.1536H282.88a53.76 53.76 0 0 1-53.632-49.92l-0.128-3.84V231.68a53.76 53.76 0 0 1 49.92-53.632l3.84-0.128h432.64z" fill="#EF8919" /><path d="M537.6 318.72v53.76h-179.2v-53.76zM460.8 421.12v53.76h-102.4v-53.76zM460.8 536.32v53.76h-102.4v-53.76z" fill="#F6C37B" /></svg>