<svg viewBox="0 0 1024 1024"><!-- orange head --><path d="M661.333333 226.133333c0-125.866667-298.666667-83.2-298.666666 0V341.333333c0 83.2 66.133333 149.333333 149.333333 149.333334s149.333333-66.133333 149.333333-149.333334v-115.2z" fill="#FFB74D" /><path d="M512 85.333333c-104.533333 0-170.666667 83.2-170.666667 187.733334v32l42.666667 36.266666v-85.333333l196.266667-68.266667L640 256v85.333333l42.666667-36.266666v-32c0-68.266667-17.066667-136.533333-102.4-153.6L563.2 85.333333H512z" fill="#FFCC80" /><path d="M576 341.333333m-21.333333 0a21.333333 21.333333 0 1 0 42.666666 0 21.333333 21.333333 0 1 0-42.666666 0Z" fill="#FF9800" /><path d="M448 341.333333m-21.333333 0a21.333333 21.333333 0 1 0 42.666666 0 21.333333 21.333333 0 1 0-42.666666 0Z" fill="#FF9800" /></svg>