<svg viewBox="0 0 1024 1024"><!-- pink S --><path d="M356.266667 601.6c0-81.066667-155.733333-46.933333-155.733334-172.8 0-14.933333 8.533333-102.4 117.333334-102.4s115.2 96 115.2 113.066667h-74.666667c0-8.533333 0-53.333333-42.666667-53.333334-38.4 0-40.533333 36.266667-40.533333 42.666667 0 64 157.866667 42.666667 157.866667 172.8 0 42.666667-23.466667 102.4-113.066667 102.4-100.266667 0-128-72.533333-128-121.6h74.666667c0 10.666667-4.266667 59.733333 53.333333 59.733333 38.4 2.133333 36.266667-34.133333 36.266667-40.533333z" fill="#E1BEE7" /></svg>