<svg viewBox="0 0 1024 1024"><!-- pink flower --><path d="M535.50592 521.90208l304.47104 0.21504s47.05792 78.72512-2.3552 173.59872c-44.48768 85.41696-146.04288 87.296-146.04288 87.296l-156.07296-261.10976zM493.1072 521.90208l-304.47104 0.21504s-47.05792 78.72512 2.3552 173.59872c44.48768 85.41696 146.04288 87.296 146.04288 87.296l156.07296-261.10976zM517.18656 529.47456l147.18464 266.53184s-46.11584 79.2832-153.04704 81.9712c-96.27648 2.41664-147.07712-85.54496-147.07712-85.54496l152.93952-262.95808z" fill="#FFFFFF" /><path d="M535.50592 501.3248l304.47104-0.21504s47.05792-78.72512-2.3552-173.59872c-44.48768-85.41696-146.04288-87.296-146.04288-87.296l-156.07296 261.10976z" fill="#F9949E" /><path d="M493.1072 501.3248l-304.47104-0.21504s-47.05792-78.72512 2.3552-173.59872c44.48768-85.41696 146.04288-87.296 146.04288-87.296L493.1072 501.3248zM517.18656 493.75232l147.18464-266.53184s-46.11584-79.2832-153.04704-81.9712c-96.27648-2.41664-147.07712 85.54496-147.07712 85.54496l152.93952 262.95808z" fill="#FFFFFF" /></svg>