<svg viewBox="0 0 1024 1024"><!-- pink clips --><path d="M 244.637 366.365 h -9.46631 c -18.6899 0 -34.1029 -15.2917 -34.1029 -34.1029 V 101.55 c 0 -18.6899 15.2917 -34.1029 34.1029 -34.1029 h 9.46631 c 18.6899 0 34.1029 15.2917 34.1029 34.1029 V 332.383 c 0 18.6899 -15.4131 33.9817 -34.1029 33.9817 Z M 787.493 366.365 h -9.46631 c -18.6899 0 -34.1029 -15.2917 -34.1029 -34.1029 V 101.55 c 0 -18.6899 15.2917 -34.1029 34.1029 -34.1029 h 9.46631 c 18.6899 0 34.1029 15.2917 34.1029 34.1029 V 332.383 c -0.121363 18.6899 -15.4131 33.9817 -34.1029 33.9817 Z" fill="#ff8882" /></svg>