<svg viewBox="0 0 1024 1024"><!-- pink money symbol --><path d="M618.272 598.376H433.592a30.104 30.104 0 1 1 0-60.216h184.68c16.64 0 30.104 13.464 30.104 30.104s-13.464 30.112-30.104 30.112zM618.272 698.208H433.592a30.104 30.104 0 1 1 0-60.216h184.68a30.088 30.088 0 0 1 30.104 30.104 30.088 30.088 0 0 1-30.104 30.112z" fill="#E6246B" /><path d="M525.936 862.08a30.096 30.096 0 0 1-30.104-30.112V569.68a30.096 30.096 0 0 1 30.104-30.104 30.08 30.08 0 0 1 30.104 30.104v262.288a30.096 30.096 0 0 1-30.104 30.112z" fill="#E6246B" /><path d="M503.152 592.792a30.08 30.08 0 0 1-25.872-14.672l-46.48-77.792a30.104 30.104 0 0 1 10.408-41.272 30.064 30.064 0 0 1 41.272 10.408l46.48 77.792a30.088 30.088 0 0 1-25.808 45.536z" fill="#E6246B" /><path d="M548.776 592.792a30.096 30.096 0 0 1-25.808-45.536l46.48-77.792a30.064 30.064 0 0 1 41.272-10.408 30.088 30.088 0 0 1 10.408 41.272l-46.48 77.792a30.088 30.088 0 0 1-25.872 14.672z" fill="#E6246B" /></svg>