<svg viewBox="0 0 1024 1024"><!-- pink heart --><path d="M 294.507 188.16 c 0 -67.9467 55.04 -122.987 122.987 -122.987 c 37.5467 0 71.1467 16.8533 93.6533 43.3067 c 22.6133 -26.4533 56.2133 -43.3067 93.6533 -43.3067 c 67.9467 0 122.987 55.04 122.987 122.987 c 0 35.6267 -16.4267 65.4933 -39.4667 90.24 L 510.72 449.28 L 336 280.32 c -22.1867 -23.1467 -41.4933 -55.4667 -41.4933 -92.16 Z" fill="#d1525c" /><path d="M 510.72 449.28 L 336 280.32 c -22.1867 -23.1467 -41.4933 -55.4667 -41.4933 -92.16 c 0 -67.9467 55.04 -122.987 122.987 -122.987 c 37.5467 0 71.1467 16.8533 93.6533 43.3067 l -0.426667 340.8 Z" fill="#db6574" /></svg>