<svg viewBox="0 0 1024 1024"><!-- pink bow --><path d="M815.6 381.3l-261.9 49.2v-59.6l174.6-159.3-25.9 124.1z" fill="#FF6EA9" /><path d="M728.3 211.6L553.7 370.9v59.6l261.9-49.2-113.2-45.6 25.9-124.1z m130.2 173.8l-302.1 56.8h-14.8v-68h6v-12.1h-2.3l202.4-184.9-31.4 150.9 142.2 57.3z" fill="#CE1B6D" /><path d="M541.6 365.6l3.8-3.4h2.3v12.1h-6.1z" fill="#CE1B6D" /><path d="M545.4 362.2l-3.8 3.4v8.7h-79.1v-8.7l-3.7-3.4z" fill="#CE1B6D" /><path d="M462.5 374.3h79.1v68h-79.1z" fill="#FF6EA9" /><path d="M456.5 374.3v-12.1h2.3l3.7 3.4v8.7z" fill="#CE1B6D" /><path d="M450.4 370.9v59.6l-262-49.2 113.3-45.6-26-124.1z" fill="#FF6EA9" /><path d="M188.4 381.3l262 49.2v-59.6L275.7 211.6l26 124.2-113.3 45.5z m259.4 61l-302.3-56.8 142.3-57.2-31.6-150.9 202.5 184.9h-2.3v12.1h6v68h-14.6z" fill="#CE1B6D" /></svg>