<svg viewBox="0 0 1024 1024"><!-- pink document border --><path d="M848.457143 972.8H219.428571c-36.571429 0-73.142857-21.942857-73.142857-73.142857V109.714286v-7.314286c14.628571-36.571429 36.571429-58.514286 73.142857-58.514286h424.228572c7.314286 0 14.628571 0 21.942857 7.314286l241.371429 219.428571c7.314286 7.314286 7.314286 14.628571 7.314285 21.942858v614.4c0 36.571429-29.257143 65.828571-65.828571 65.828571zM204.8 117.028571v782.628572c0 14.628571 7.314286 14.628571 14.628571 14.628571h629.028572c7.314286 0 7.314286 0 7.314286-7.314285V307.2l-219.428572-204.8H219.428571s-7.314286 0-14.628571 14.628571z" fill="#D72822" /><path d="M899.657143 299.885714H636.342857V73.142857z" fill="#D72822" /></svg>