<svg viewBox="0 0 1024 1024"><!-- purple drink icon --><path d="M750 375v-20h-37a205 205 0 0 0-81-153l10-103a10 10 0 1 0-20-2l-9 92a201 201 0 0 0-103-28c-109 0-198 86-203 194h-36v20h324l-4 37H301l85 535h249l50-334h1v-7l29-194H612l4-37zM618 927H418l-58-314h54c3 16 13 30 29 41s42 20 68 20 50-7 68-20 26-25 29-41h57zM433 603c0-13 8-25 21-35s35-16 57-16 42 6 57 16 21 22 21 35-8 25-21 35-35 16-57 16-42-6-57-16-21-22-21-35z m259-171l-24 161h-60c-3-16-13-30-29-41s-42-20-68-20-50 7-68 20-26 25-29 41h-58l-30-161z m1-77h-76l13-130a184 184 0 0 1 63 130z m-366 0c5-97 85-174 183-174a181 181 0 0 1 101 31l-14 143z" fill="#5546CB" /></svg>