<svg viewBox="0 0 1024 1024"><!-- purple and orange camera icon --><path d="M826 266h-40l-15-59H653l-15 59H198a51 51 0 0 0-51 51v430a51 51 0 0 0 51 51h628a51 51 0 0 0 51-51V317a51 51 0 0 0-51-51z m-157-39h86l10 37H660z m-471 59h628a31 31 0 0 1 31 31v63H166v-63a31 31 0 0 1 32-31z m628 492H198a31 31 0 0 1-31-31V400h691v347a31 31 0 0 1-32 31z" fill="#5546CB" /><path d="M528 443c-81 0-148 66-148 148s66 148 148 148 148-66 148-148-67-148-148-148z m0 264a116 116 0 1 1 116-117 116 116 0 0 1-116 116z" fill="#FFFFFF" /><path d="M528 423c-92 0-168 75-168 168s75 168 168 168 168-75 168-168-76-168-168-168z m0 315c-81 0-148-66-148-148s66-148 148-148 148 66 148 148-67 148-148 148z" fill="#5546CB" /><path d="M528 494a96 96 0 1 0 96 96 96 96 0 0 0-96-96z m43 81a18 18 0 1 1 18-18 18 18 0 0 1-18 18z" fill="#FF8859" /><path d="M528 474a116 116 0 1 0 116 116 116 116 0 0 0-116-116z m0 212a96 96 0 1 1 96-96 96 96 0 0 1-96 96z" fill="#5546CB" /><path d="M571 558m-18 0a18 18 0 1 0 36 0 18 18 0 1 0-36 0Z" fill="#FFFFFF" /><path d="M755 227h-86l-9 37h105l-10-37z" fill="#AFBCF3" /></svg>