<svg viewBox="0 0 1024 1024"><!-- purple music note --><path d="M703.90625 865.90625l-39.9375-15.65625 148.6875-380.0625c6.84375-17.53125-2.4375-37.3125-20.34375-43.125l-260.0625-84.9375c-16.6875-5.4375-34.6875 3.1875-40.875 19.59375L361.8125 704.46875l-61.40625-23.15625 181.875-481.125c6.09375-16.21875 23.8125-24.84375 40.40625-19.78125l389.0625 120.1875c18.1875 5.625 27.84375 25.5 20.90625 43.3125l-199.125 509.0625c-4.6875 11.71875-17.90625 17.53125-29.625 12.9375z" fill="#360682" /><path d="M241.0625 658.15625m-129.375 0a129.375 129.375 0 1 0 258.75 0 129.375 129.375 0 1 0-258.75 0Z" fill="#360682" /><path d="M614.375 802.90625m-129.375 0a129.375 129.375 0 1 0 258.75 0 129.375 129.375 0 1 0-258.75 0Z" fill="#360682" /></svg>