<svg viewBox="0 0 1024 1024"><!-- purple and white icon --><path d="M570.586 425.432l24.738-36.87 60.536 40.617-24.738 36.87z" fill="#514DDF" /><path d="M385.8 810.1c1.1-4.9 3-9.7 6-14.2a43.93 43.93 0 0 1 60.9-12c6.4 4.3 11 10 14.3 16.4a88.04 88.04 0 0 1-81.2 9.8z" fill="#FFFFFF" /><path d="M490.1 777c-1.3 1.9-2.7 3.7-4.1 5.5a68.49 68.49 0 0 0-19.2-19.5 69.13 69.13 0 0 0-95.8 18.8c-3.4 5-5.9 10.3-7.8 15.7l-18.1-12.1c-40.2-27.1-51-81.6-24-121.9l173.3-258.2 169 113.4L490.1 777z" fill="#FFFFFF" /></svg>