<svg viewBox="0 0 1024 1024"><!-- red arrows --><path d="M526.628571 716.8L124.342857 446.171429c-14.628571-7.314286-21.942857-29.257143-7.314286-36.571429 7.314286-14.628571 21.942857-14.628571 36.571429-7.314286L533.942857 658.285714l394.971429-256c14.628571-7.314286 29.257143-7.314286 36.571428 7.314286s7.314286 29.257143-7.314285 36.571429L526.628571 716.8z" fill="#D72822" /><path d="M526.628571 877.714286L124.342857 607.085714c-14.628571-7.314286-21.942857-21.942857-7.314286-36.571428 7.314286-14.628571 21.942857-14.628571 36.571429-7.314286l380.342857 256 394.971429-256c14.628571-7.314286 29.257143-7.314286 36.571428 7.314286 7.314286 14.628571 7.314286 29.257143-7.314285 36.571428L526.628571 877.714286z" fill="#D72822" /></svg>