<svg viewBox="0 0 1024 1024"><!-- red bubbles --><path d="M535.7 558.5c-14.1 0-25.5-11.4-25.5-25.5s11.4-25.5 25.5-25.5 25.5 11.4 25.5 25.5c0 14-11.4 25.5-25.5 25.5z m0-43c-9.6 0-17.5 7.8-17.5 17.5 0 9.6 7.8 17.5 17.5 17.5s17.5-7.8 17.5-17.5-7.9-17.5-17.5-17.5zM458.1 417.6c-21.3 0-38.6-17.3-38.6-38.6s17.3-38.6 38.6-38.6 38.6 17.3 38.6 38.6-17.3 38.6-38.6 38.6z m0-69.2c-16.9 0-30.6 13.7-30.6 30.6s13.7 30.6 30.6 30.6 30.6-13.7 30.6-30.6-13.7-30.6-30.6-30.6zM566.7 107.3c-11.4 0-20.7-9.3-20.7-20.7s9.3-20.7 20.7-20.7 20.7 9.3 20.7 20.7-9.2 20.7-20.7 20.7z m0-33.4c-7 0-12.7 5.7-12.7 12.7s5.7 12.7 12.7 12.7 12.7-5.7 12.7-12.7-5.7-12.7-12.7-12.7zM540.5 299.5c-16.7 0-30.3-13.6-30.3-30.3s13.6-30.3 30.3-30.3 30.3 13.6 30.3 30.3-13.6 30.3-30.3 30.3z m0-52.6c-12.3 0-22.3 10-22.3 22.3s10 22.3 22.3 22.3 22.3-10 22.3-22.3-10-22.3-22.3-22.3z" fill="#CE0202" /></svg>