<svg viewBox="0 0 1024 1024"><!-- red cd icon --><path d="M512 1002.666667a490.666667 490.666667 0 1 1 490.666667-490.666667 490.666667 490.666667 0 0 1-490.666667 490.666667z" fill="#F05071" /><path d="M512 42.666667A469.333333 469.333333 0 1 1 42.666667 512 469.333333 469.333333 0 0 1 512 42.666667m0-42.666667a512 512 0 1 0 512 512A512 512 0 0 0 512 0z" fill="#5C2D51" /><path d="M512 704a192 192 0 1 1 192-192 192 192 0 0 1-192 192z" fill="#9FDBAD" /><path d="M512 341.333333a170.666667 170.666667 0 1 1-170.666667 170.666667 170.666667 170.666667 0 0 1 170.666667-170.666667m0-42.666666a213.333333 213.333333 0 1 0 213.333333 213.333333 213.333333 213.333333 0 0 0-213.333333-213.333333z" fill="#5C2D51" /><path d="M512 512m-90.666667 0a90.666667 90.666667 0 1 0 181.333334 0 90.666667 90.666667 0 1 0-181.333334 0Z" fill="#FFFFFF" /><path d="M512 442.666667A69.333333 69.333333 0 1 1 442.666667 512 69.333333 69.333333 0 0 1 512 442.666667m0-42.666667A112 112 0 1 0 624 512 112 112 0 0 0 512 400z" fill="#5C2D51" /></svg>