<svg viewBox="0 0 1024 1024"><!-- red and grey factory building --><path d="M768 0v480l-352-160v160L64 320v704h896V0z" fill="#EAEAEA" /><path d="M768 0h192v64h-192zM768 128h192v64h-192zM768 256h192v64h-192zM416 374.464L89.44 225.056a29.952 29.952 0 0 0-39.744 14.784l-15.008 32.768a30.08 30.08 0 0 0 14.816 39.744L416 480v-105.536zM768 374.464L441.44 225.056a29.952 29.952 0 0 0-39.744 14.784l-15.008 32.736a30.08 30.08 0 0 0 14.816 39.744L768 480v-105.536z" fill="#EF4D4D" /><path d="M352 576h128v128h-128zM160 576h128v128H160zM544 576h128v128h-128z" fill="#469FCC" /><path d="M160 576h128v32H160zM352 576h128v32h-128zM544 576h128v32h-128z" fill="" /><path d="M416 318.976v32L768 512v-32zM64 350.304l352 161.024v-32L64 318.304z" fill="" /><path d="M768 0h96v1024h-96z" fill="" /></svg>