<svg viewBox="0 0 1024 1024"><!-- red capsule --><path d="M906.533839 213.164944l77.298753 562.90171a216.019545 216.019545 0 0 1-428.029819 58.695734l-77.298753-562.90171a216.019545 216.019545 0 1 1 428.029819-58.695734z m39.611601 568.033578l-77.298753-562.901711a178.043726 178.043726 0 1 0-352.815887 48.111258l77.298754 562.90171a178.011652 178.011652 0 1 0 352.815886-47.630145z" fill="#892127" /><path d="M731.248491 523.963666l-128.296686 17.640794-67.195389 9.141139-38.328635-282.252709a196.935413 196.935413 0 0 1 143.211176-216.661029 55.969429 55.969429 0 0 0 39.771972 101.194011 129.258911 129.258911 0 0 1 145.616739 110.495521l33.196768 241.999624z" fill="#892127" /></svg>