<svg viewBox="0 0 1024 1024"><!-- red pill capsule --><path d="M231.051786 1024A216.179916 216.179916 0 0 1 15.032241 807.980455V239.786506a216.019545 216.019545 0 0 1 432.039091 0v568.033578a216.179916 216.179916 0 0 1-216.019546 216.179916z m0-962.225146a178.172023 178.172023 0 0 0-178.011652 178.011652v568.033578a178.011652 178.011652 0 1 0 356.023304 0V239.786506a178.172023 178.172023 0 0 0-178.011652-178.011652z" fill="#892127" /><path d="M231.051786 523.963666H33.956002v284.016789a196.935413 196.935413 0 0 0 171.276076 195.171334 55.969429 55.969429 0 0 1 25.659338-105.684396 129.258911 129.258911 0 0 0 129.258911-129.258911V523.963666h-129.258911z" fill="#892127" /></svg>