<svg viewBox="0 0 1024 1024"><!-- red and blue line --><path d="M941.26 682.74H328.964c-28.867 0-52.263 23.399-52.263 52.268v3.734c0 28.863 23.396 52.269 52.263 52.269H941.26c28.869 0 52.269-23.405 52.269-52.269v-3.734c-0.001-28.868-23.4-52.268-52.269-52.268z" fill="#4A5699" /><path d="M709.781 458.729H328.964c-28.867 0-52.263 23.4-52.263 52.269v3.734c0 28.873 23.396 52.269 52.263 52.269h380.817c28.866 0 52.271-23.396 52.271-52.269v-3.734c0.001-28.869-23.405-52.269-52.271-52.269z" fill="#E5594F" /></svg>