<svg viewBox="0 0 1024 1024"><!-- red ecg --><path d="M432.4 674.1l-53.6-156.6-47.1 96.9c-5.2 10.6-20.4 10.5-25.4-0.2l-26.7-56.9c-3.3-7-0.3-15.4 6.8-18.7l1.7-0.8c7-3.3 15.4-0.3 18.7 6.8l12.5 26.6 49.4-101.6c5.5-11.3 21.9-10.3 26 1.6l47.5 138.7 56.1-262c3.1-14.5 23.7-14.9 27.4-0.5l54.9 215.4 45.4-92.9c5.2-10.6 20.2-10.5 25.3 0.1L700 571.5l21.5-44.4c3.4-7 11.8-9.9 18.8-6.5l1.7 0.8c7 3.4 9.9 11.8 6.5 18.8l-35.9 74.1c-5.1 10.6-20.2 10.6-25.3 0l-48.8-101.7-50 102.3c-5.7 11.8-23 10-26.3-2.7l-48.9-191.5-53.9 251.7c-3 14-22.4 15.2-27 1.7z" fill="#FF0000" /></svg>