<svg viewBox="0 0 1024 1024"><!-- red roof --><path d="M362.666667 298.666667v234.666666h298.666666V298.666667H362.666667z m85.333333 170.666666h-42.666667v-106.666666c0-12.8 8.533333-21.333333 21.333334-21.333334s21.333333 8.533333 21.333333 21.333334v106.666666z m85.333333 0h-42.666666v-106.666666c0-12.8 8.533333-21.333333 21.333333-21.333334s21.333333 8.533333 21.333333 21.333334v106.666666z m85.333334 0h-42.666667v-106.666666c0-12.8 8.533333-21.333333 21.333333-21.333334s21.333333 8.533333 21.333334 21.333334v106.666666z" fill="#E89419" /><path d="M661.333333 298.666667c0-123.733333-149.333333-170.666667-149.333333-170.666667s-149.333333 42.666667-149.333333 170.666667h298.666666zM512 405.333333L128 576v42.666667l384-170.666667 384 170.666667v-42.666667z" fill="#D84315" /></svg>