<svg viewBox="0 0 1024 1024"><!-- red wave --><path d="M639.9 327v16.2c35.5 5.5 68.1 22.1 94 48C766.2 423.5 784 466.4 784 512c0 45.6-17.8 88.5-50.1 120.8-25.9 25.9-58.5 42.4-94 48V697c90.5-13 160-90.9 160-185s-69.5-172-160-185z" fill="#E73B37" /><path d="M723.8 215.2v16.4c15 3.6 29.7 8.5 44 14.5 34.4 14.5 65.2 35.3 91.7 61.8s47.3 57.3 61.8 91.7C936.4 435.2 944 473 944 512c0 38.9-7.6 76.7-22.7 112.3-14.5 34.4-35.3 65.2-61.8 91.7s-57.3 47.3-91.7 61.8c-14.3 6.1-29 10.9-44 14.5v16.4C859.1 777.7 960 656.6 960 512S859.1 246.2 723.8 215.2zM277.5 386.8h16v250h-16z" fill="#E73B37" /></svg>