<svg viewBox="0 0 1024 1024"><!-- red map pin --><path d="M809.3 362c0-164.2-133.1-297.3-297.3-297.3S214.7 197.8 214.7 362c0 50.6 12.7 98.2 34.9 139.9h-1.3l262.4 457.4 262.5-454.6h-0.3c23.2-42.3 36.4-91 36.4-142.7z" fill="#F15322" /><path d="M809.3 362c0-164.2-133.1-297.3-297.3-297.3-13.6 0-26.9 0.9-40 2.7 145.3 19.5 257.3 144 257.3 294.6 0 51.7-13.2 100.3-36.5 142.7h0.3L470.9 889.8l39.9 69.5 262.5-454.6h-0.3c23.1-42.3 36.3-91 36.3-142.7z" fill="#FF8564" /><path d="M553.1 222m-25 0a25 25 0 1 0 50 0 25 25 0 1 0-50 0Z" fill="#FFFDFD" /></svg>