<svg viewBox="0 0 1024 1024"><!-- rounded rectangle background --><path d="M910.4 843.8H174.6c-27.4 0-49.7-22.3-49.7-49.7V298.2c0-27.4 22.3-49.7 49.7-49.7h735.8c27.4 0 49.7 22.3 49.7 49.7v495.9c0 27.4-22.3 49.7-49.7 49.7z" fill="#A7B8C6" /><path d="M272.1 193.8H118.7c-22.8 0-41.2 18.5-41.2 41.2v512.7c0 22.8 18.5 41.2 41.2 41.2h752.7c22.8 0 41.2-18.5 41.2-41.2V235c0-22.8-18.5-41.2-41.2-41.2H272.1z" fill="#FFFFFF" /><path d="M871.4 802.5H118.7c-30.2 0-54.8-24.6-54.8-54.8V235c0-30.2 24.6-54.8 54.8-54.8h752.7c30.2 0 54.8 24.6 54.8 54.8v512.7c0 30.3-24.6 54.8-54.8 54.8zM118.7 207.3c-15.3 0-27.7 12.4-27.7 27.7v512.7c0 15.3 12.4 27.7 27.7 27.7h752.7c15.3 0 27.7-12.4 27.7-27.7V235c0-15.3-12.4-27.7-27.7-27.7H118.7z" fill="#3E3A39" /></svg>