<svg viewBox="0 0 1024 1024"><!-- semi-circles --><path d="M844.48 354.56a32 32 0 0 0-16.64 41.92A48.32 48.32 0 0 1 832 416c0 60.48-126.4 128-307.52 128S192 473.92 192 416a39.36 39.36 0 0 1 4.48-17.92 32 32 0 1 0-57.28-28.48A103.68 103.68 0 0 0 128 416c0 118.72 205.76 192 396.48 192C736 608 896 525.44 896 416a112.64 112.64 0 0 0-9.28-44.48 32 32 0 0 0-42.24-16.96z" fill="#231815" /><path d="M844.48 546.56a32 32 0 0 0-16.64 41.92A48.32 48.32 0 0 1 832 608c0 60.48-126.4 128-307.52 128S192 665.92 192 608a39.36 39.36 0 0 1 4.48-17.92 32 32 0 1 0-57.28-28.48A103.68 103.68 0 0 0 128 608c0 118.72 205.76 192 396.48 192C736 800 896 717.44 896 608a112.64 112.64 0 0 0-9.28-44.48 32 32 0 0 0-42.24-16.96z" fill="#231815" /></svg>