<svg viewBox="0 0 1024 1024"><!-- several lines and circle  --><path d="M637.3 456.5c-38.7 0-70-31.4-70-70s31.4-70 70-70c38.7 0 70 31.4 70 70s-31.3 70-70 70zM427.2 722.6c0-7.7 6.4-14 13.8-14h140.5c7.6 0 13.8 6.5 13.8 14 0 7.7-6.4 14-13.8 14H441c-7.6 0-13.8-6.5-13.8-14zM343.2 638.6c0-7.7 6.4-14 14-14h308.1c7.7 0 14 6.5 14 14 0 7.7-6.4 14-14 14H357.2c-7.7 0-14-6.5-14-14zM287.2 554.6c0-7.7 6.3-14 13.9-14h420.3c7.7 0 13.9 6.5 13.9 14 0 7.7-6.3 14-13.9 14H301.1c-7.7 0-13.9-6.5-13.9-14zM287.2 470.5c0-7.7 6.2-14 14.3-14H525c7.9 0 14.3 6.5 14.3 14 0 7.7-6.2 14-14.3 14H301.5c-7.9 0-14.3-6.4-14.3-14zM343.2 386.5c0-7.7 6.4-14 13.8-14h140.5c7.6 0 13.8 6.5 13.8 14 0 7.7-6.4 14-13.8 14H357c-7.6 0-13.8-6.5-13.8-14zM427.2 302.5c0-7.7 6-14 13.7-14h84.6c7.6 0 13.7 6.5 13.7 14 0 7.7-6 14-13.7 14H441c-7.6 0-13.8-6.5-13.8-14z" fill="#5E676F" /><path d="M637.3 428.5c23.2 0 42-18.8 42-42s-18.8-42-42-42-42 18.8-42 42 18.8 42 42 42z" fill="#FFFFFF" /></svg>