<svg viewBox="0 0 1024 1024"><!-- several yellow squares --><path d="M426.3 426.3H128V189.7c0-34 27.7-61.7 61.7-61.7h236.6v298.3z m-236.6-61.7h174.9V189.7H189.7v174.9zM395.4 896H266.9c-17.1 0-30.9-13.8-30.9-30.9 0-17.1 13.8-30.9 30.9-30.9h128.6c17.1 0 30.9 13.8 30.9 30.9-0.1 17.1-13.9 30.9-31 30.9zM158.9 779.4c-17.1 0-30.9-13.8-30.9-30.9v-120c0-17.1 13.8-30.9 30.9-30.9s30.9 13.8 30.9 30.9v120c-0.1 17.1-13.9 30.9-30.9 30.9z" fill="#FFEA00" /><path d="M896 426.3H597.7V128h236.6c34 0 61.7 27.7 61.7 61.7v236.6z m-236.6-61.7h174.9V189.7H659.4v174.9z" fill="#FFFF8D" /><path d="M834.3 896H597.7V597.7H896v236.6c0 34-27.7 61.7-61.7 61.7z m-174.9-61.7h174.9V659.4H659.4v174.9z" fill="#FFEA00" /><path d="M365.4 762.3h-72.9c-17.1 0-30.9-13.8-30.9-30.9v-72.9c0-17.1 13.8-30.9 30.9-30.9h103.7v103.7c0.1 17.2-13.7 31-30.8 31z" fill="#FFFF8D" /></svg>