<svg viewBox="0 0 1024 1024"><!-- six red dots --><path d="M319 565.7m-33 0a33 33 0 1 0 66 0 33 33 0 1 0-66 0Z" fill="#E73B37" /><path d="M510 565.7m-33 0a33 33 0 1 0 66 0 33 33 0 1 0-66 0Z" fill="#E73B37" /><path d="M701.1 565.7m-33 0a33 33 0 1 0 66 0 33 33 0 1 0-66 0Z" fill="#E73B37" /><path d="M319 693.4m-33 0a33 33 0 1 0 66 0 33 33 0 1 0-66 0Z" fill="#E73B37" /><path d="M510 693.4m-33 0a33 33 0 1 0 66 0 33 33 0 1 0-66 0Z" fill="#E73B37" /><path d="M701.1 693.4m-33 0a33 33 0 1 0 66 0 33 33 0 1 0-66 0Z" fill="#E73B37" /></svg>