<svg viewBox="0 0 1024 1024"><!-- six blue balls --><path d="M652.57 157.98m-93.37 0a93.37 93.37 0 1 0 186.74 0 93.37 93.37 0 1 0-186.74 0Z" fill="#2F6FA3" /><path d="M332.43 166.87m-93.37 0a93.37 93.37 0 1 0 186.74 0 93.37 93.37 0 1 0-186.74 0Z" fill="#2F6FA3" /><path d="M274.63 386.97m-93.37 0a93.37 93.37 0 1 0 186.74 0 93.37 93.37 0 1 0-186.74 0Z" fill="#2F6FA3" /><path d="M304.27 644.86m-93.37 0a93.37 93.37 0 1 0 186.74 0 93.37 93.37 0 1 0-186.74 0Z" fill="#2F6FA3" /><path d="M746.69 499.61m-93.37 0a93.37 93.37 0 1 0 186.74 0 93.37 93.37 0 1 0-186.74 0Z" fill="#2F6FA3" /><path d="M772.63 293.6m-93.37 0a93.37 93.37 0 1 0 186.74 0 93.37 93.37 0 1 0-186.74 0Z" fill="#2F6FA3" /></svg>