<svg viewBox="0 0 1024 1024"><!-- small speech bubble --><path d="M118.9 388.7h328.6c14.3 0 25.9 11.6 25.9 25.9v208.7c0 14.3-11.6 25.9-25.9 25.9H275.6l-52.1 50.1-54.1-50.1h-50.5c-14.3 0-25.9-11.6-25.9-25.9V414.6c0-14.3 11.6-25.9 25.9-25.9z" fill="#8CAAFF" /><path d="M223.5 699.2l-54.1-50.1h-50.5c-14.3 0-25.9-11.6-25.9-25.9V414.6c0-14.3 11.6-25.9 25.9-25.9h328.7c14.3 0 25.9 11.6 25.9 25.9v208.7c0 14.3-11.6 25.9-25.9 25.9H275.7l-52.2 50z m-91.7-88.9h52.8l38.4 35.5 37-35.5h174.6V427.5H131.8v182.8z" fill="#333333" /></svg>