<svg viewBox="0 0 1024 1024"><!-- small blue mountain --><path d="M1003.8 775.3l-639.5 1.8L682.7 355z" fill="#B6CDEF" /><path d="M364.3 792.1c-5.7 0-10.9-3.2-13.4-8.3-2.5-5.1-2-11.2 1.4-15.7L670.7 346c2.8-3.7 7.2-6 11.9-6s9.1 2.2 11.9 5.9l321.1 420.4c3.5 4.5 4.1 10.6 1.5 15.7-2.5 5.1-7.7 8.4-13.4 8.4l-639.4 1.7c0.1 0 0.1 0 0 0z m318.5-412.3L394.5 762l579-1.6-290.7-380.6z" fill="#0F53A8" /><path d="M1003.8 775.3l-152.1 0.5-169-420.8z" fill="#89B7F5" /><path d="M851.7 790.8c-6.1 0-11.6-3.7-13.9-9.4l-169-420.8c-2.8-7 0-14.9 6.5-18.6 6.5-3.7 14.8-2 19.3 3.9l321.1 420.4c3.5 4.5 4.1 10.6 1.5 15.7-2.5 5.1-7.7 8.4-13.4 8.4l-152.1 0.4z m-114-339.1l124.1 309 111.7-0.3-235.8-308.7z" fill="#0F53A8" /></svg>