<svg viewBox="0 0 1024 1024"><!-- smoke --><path d="M232.8 532.9c-6.1 0-11-4.9-11-11 0-17.9 8.1-27.3 14.7-34.9 5.6-6.5 9.3-10.7 9.3-20.4s-3.7-14-9.3-20.4c-6.5-7.5-14.7-16.9-14.7-34.9 0-17.9 8.1-27.3 14.7-34.9 5.6-6.5 9.3-10.7 9.3-20.4 0-6.1 4.9-11 11-11s11 4.9 11 11c0 17.9-8.1 27.3-14.7 34.9-5.6 6.5-9.3 10.7-9.3 20.4s3.7 14 9.3 20.4c6.5 7.5 14.7 16.9 14.7 34.9s-8.1 27.3-14.7 34.9c-5.6 6.5-9.3 10.7-9.3 20.4 0 6-4.9 11-11 11zM318.1 449.9c-6.1 0-11-4.9-11-11 0-17.9 8.1-27.3 14.7-34.9 5.6-6.5 9.3-10.7 9.3-20.4s-3.7-14-9.3-20.4c-6.5-7.5-14.7-16.9-14.7-34.9 0-17.9 8.1-27.3 14.7-34.9 5.6-6.5 9.3-10.7 9.3-20.4 0-6.1 4.9-11 11-11s11 4.9 11 11c0 17.9-8.1 27.3-14.7 34.9-5.6 6.5-9.3 10.7-9.3 20.4s3.7 14 9.3 20.4c6.5 7.5 14.7 16.9 14.7 34.9 0 17.9-8.1 27.3-14.7 34.9-5.6 6.5-9.3 10.7-9.3 20.4 0 6.1-4.9 11-11 11z" fill="#86878E" /></svg>