<svg viewBox="0 0 1024 1024"><!-- snowflakes --><path d="M430.02 539.4m-25.45 0a25.45 25.45 0 1 0 50.9 0 25.45 25.45 0 1 0-50.9 0Z" fill="#FFFFFF" /><path d="M600.88 496.54m-25.45 0a25.45 25.45 0 1 0 50.9 0 25.45 25.45 0 1 0-50.9 0Z" fill="#FFFFFF" /><path d="M523.55 689.29m-25.45 0a25.45 25.45 0 1 0 50.9 0 25.45 25.45 0 1 0-50.9 0Z" fill="#FFFFFF" /><path d="M259.77 775.3m-25.45 0a25.45 25.45 0 1 0 50.9 0 25.45 25.45 0 1 0-50.9 0Z" fill="#FFFFFF" /><path d="M414.63 844.23m-25.45 0a25.45 25.45 0 1 0 50.9 0 25.45 25.45 0 1 0-50.9 0Z" fill="#FFFFFF" /><path d="M720.33 754m-25.45 0a25.45 25.45 0 1 0 50.9 0 25.45 25.45 0 1 0-50.9 0Z" fill="#FFFFFF" /></svg>