<svg viewBox="0 0 1024 1024"><!-- some brown dots --><path d="M140.8 588.288h32.576v32.576H140.8zM206.464 588.288h32.64v32.576h-32.64zM272.128 588.288h32.704v32.576h-32.704zM337.856 588.288h32.576v32.576h-32.576zM666.304 588.288h32.704v32.576h-32.704zM732.032 588.288h32.64v32.576h-32.64zM797.76 588.288h32.576v32.576h-32.576zM863.36 588.288H896v32.576h-32.64zM403.584 588.288h32.576v32.576h-32.576zM469.248 588.288h32.64v32.576h-32.64zM534.848 588.288h32.704v32.576h-32.704zM600.64 588.288h32.576v32.576h-32.576z" fill="#775548" /></svg>