<svg viewBox="0 0 1024 1024"><!-- some blue dots --><path d="M590.4 433.6c-12.8 12.8-32 12.8-44.8 0-12.8-12.8-12.8-32 0-44.8 12.8-12.8 32-12.8 44.8 0 12.8 11.2 12.8 32 0 44.8z m136 67.2c-12.8 12.8-32 12.8-44.8 0s-12.8-32 0-44.8 32-12.8 44.8 0 12.8 32 0 44.8z m17.6-176c-9.6 9.6-24 9.6-33.6 0-9.6-9.6-9.6-24 0-33.6 9.6-9.6 24-9.6 33.6 0s9.6 24 0 33.6z m62.4-16c-6.4 6.4-16 6.4-22.4 0-6.4-6.4-6.4-16 0-22.4 6.4-6.4 16-6.4 22.4 0 6.4 4.8 6.4 16 0 22.4zM704 251.2c-6.4 6.4-16 6.4-22.4 0s-6.4-16 0-22.4 16-6.4 22.4 0c6.4 6.4 6.4 16 0 22.4z m-22.4 158.4c-6.4 6.4-16 6.4-22.4 0-6.4-6.4-6.4-16 0-22.4 6.4-6.4 16-6.4 22.4 0 6.4 6.4 6.4 16 0 22.4z m-124.8-100.8c-6.4 6.4-16 6.4-22.4 0-6.4-6.4-6.4-16 0-22.4 6.4-6.4 16-6.4 22.4 0 6.4 4.8 6.4 16 0 22.4z m107.2-17.6c-16 16-41.6 16-56 0s-16-41.6 0-56 41.6-16 56 0 16 40 0 56z" fill="#2F4BFF" /></svg>