<svg viewBox="0 0 1024 1024"><!-- some blue cloud --><path d="M279.42912 917.07392v-0.04096l-3.47136 0.04096C164.33152 917.07392 73.6256 828.28288 71.71072 718.0288L71.68 714.50624c0-111.872 91.46368-202.55744 204.288-202.55744 102.912 0 188.04736 75.45856 202.20928 173.6192h4.47488v-1.36192c0-127.31392 103.04512-230.76864 230.94272-232.82688l3.8912-0.03072C847.17568 451.34848 952.32 555.60192 952.32 684.20608c0 128.6144-105.14432 232.8576-234.83392 232.8576l2.60096-0.02048v0.03072H279.43936z" fill="#DFF1FB" /><path d="M334.1824 315.86304m42.3424 0l423.3728 0q42.3424 0 42.3424 42.3424l0-0.01024q0 42.3424-42.3424 42.3424l-423.3728 0q-42.3424 0-42.3424-42.3424l0 0.01024q0-42.3424 42.3424-42.3424Z" fill="#DFF1FB" /><path d="M495.06304 163.45088m42.3424 0l220.14976 0q42.3424 0 42.3424 42.3424l0-0.01024q0 42.3424-42.3424 42.3424l-220.14976 0q-42.3424 0-42.3424-42.3424l0 0.01024q0-42.3424 42.3424-42.3424Z" fill="#FFFFFF" /></svg>