<svg viewBox="0 0 1024 1024"><!-- tall building --><path d="M224 96h576v928H224z" fill="#EAEAEA" /><path d="M288 96h64v672H288zM416 96h64v672h-64zM544 96h64v672h-64zM672 96h64v672h-64z" fill="#469FCC" /><path d="M288 832h64v192H288zM416 832h64v192h-64zM544 832h64v192h-64zM672 832h64v192h-64z" fill="#434854" /><path d="M864 65.984c0 16.576-13.44 30.016-30.016 30.016H190.016A30.016 30.016 0 0 1 160 65.984V30.016C160 13.44 173.44 0 190.016 0h644c16.544 0 29.984 13.44 29.984 30.016v35.968z" fill="#EF4D4D" /><path d="M224 96h64v32H224zM352 96h64v32h-64zM480 96h64v32h-64zM608 96h64v32h-64zM736 96h64v32h-64z" fill="" /><path d="M288 96h64v32H288zM416 96h64v32h-64zM544 96h64v32h-64zM672 96h64v32h-64z" fill="" /></svg>