<svg viewBox="0 0 1024 1024"><!-- target --><path d="M682.666667 341.333333m-213.333334 0a213.333333 213.333333 0 1 0 426.666667 0 213.333333 213.333333 0 1 0-426.666667 0Z" fill="#FFFFFF" /><path d="M682.666667 586.666667c-135.274667 0-245.333333-110.058667-245.333334-245.333334S547.392 96 682.666667 96 928 206.058667 928 341.333333 817.941333 586.666667 682.666667 586.666667z m0-426.666667c-99.989333 0-181.333333 81.344-181.333334 181.333333s81.344 181.333333 181.333334 181.333334 181.333333-81.344 181.333333-181.333334-81.344-181.333333-181.333333-181.333333z" fill="#444444" /><path d="M682.666667 341.333333m-85.333334 0a85.333333 85.333333 0 1 0 170.666667 0 85.333333 85.333333 0 1 0-170.666667 0Z" fill="#E86C60" /></svg>