<svg viewBox="0 0 1024 1024"><!-- the green circle --><path d="M512 511.9m-379.4 0a379.4 379.4 0 1 0 758.8 0 379.4 379.4 0 1 0-758.8 0Z" fill="#00B36A" /><path d="M512 891.4c100 0 190.9-38.8 258.6-102C434.2 838 251 713.2 140.8 433.5c-5.4 25.3-8.2 51.6-8.2 78.5 0 209.5 169.9 379.4 379.4 379.4z" fill="#009957" /><path d="M512 925.5C283.9 925.5 98.5 740 98.5 512 98.5 283.9 284 98.5 512 98.5S925.5 284 925.5 512c0 18.6-1.2 37.3-3.7 55.6-2.5 18.7-19.8 31.8-38.4 29.3-18.7-2.5-31.8-19.7-29.3-38.4 2-15.3 3.1-30.9 3.1-46.4 0-190.3-154.9-345.2-345.2-345.2S166.9 321.7 166.9 512s154.9 345.2 345.2 345.2c40.2 0 79.5-6.8 116.9-20.3 17.7-6.4 37.3 2.9 43.7 20.6 6.4 17.7-2.9 37.3-20.6 43.7-44.9 16.1-92 24.3-140.1 24.3z" fill="#1A1A1A" /></svg>