<svg viewBox="0 0 1024 1024"><!-- the sun --><path d="M512 512m-277.333333 0a277.333333 277.333333 0 1 0 554.666666 0 277.333333 277.333333 0 1 0-554.666666 0Z" fill="#EFD358" /><path d="M85.333333 533.333333H42.666667a21.333333 21.333333 0 1 1 0-42.666666h42.666666a21.333333 21.333333 0 1 1 0 42.666666zM209.066667 230.4a21.269333 21.269333 0 0 1-15.082667-6.250667l-29.866667-29.866666a21.333333 21.333333 0 1 1 30.165334-30.165334l29.866666 29.866667A21.333333 21.333333 0 0 1 209.066667 230.4zM512 106.666667a21.333333 21.333333 0 0 1-21.333333-21.333334V42.666667a21.333333 21.333333 0 1 1 42.666666 0v42.666666a21.333333 21.333333 0 0 1-21.333333 21.333334zM814.933333 230.4a21.333333 21.333333 0 0 1-15.082666-36.416l29.866666-29.866667a21.333333 21.333333 0 1 1 30.165334 30.165334l-29.866667 29.866666a21.269333 21.269333 0 0 1-15.082667 6.250667zM981.333333 533.333333h-42.666666a21.333333 21.333333 0 1 1 0-42.666666h42.666666a21.333333 21.333333 0 1 1 0 42.666666z" fill="#EFD358" /></svg>