<svg viewBox="0 0 1024 1024"><!-- three green lines --><path d="M913.385 283.49H351.807c-16.494 0-29.867-13.373-29.867-29.867s13.373-29.867 29.867-29.867h561.578c16.494 0 29.867 13.373 29.867 29.867s-13.373 29.867-29.867 29.867zM913.385 533.304H351.807c-16.494 0-29.867-13.373-29.867-29.867s13.373-29.867 29.867-29.867h561.578c16.494 0 29.867 13.373 29.867 29.867 0 16.493-13.373 29.867-29.867 29.867zM930.133 800.238H368.564c-16.494 0-29.867-13.373-29.867-29.867s13.373-29.867 29.867-29.867h561.569c16.494 0 29.867 13.373 29.867 29.867s-13.373 29.867-29.867 29.867z" fill="#0DB14B" /></svg>