<svg viewBox="0 0 1024 1024"><!-- three yellow dots --><path d="M373.76 533.76m-51.2 0a51.2 51.2 0 1 0 102.4 0 51.2 51.2 0 1 0-102.4 0Z" fill="#F2E5CA" /><path d="M373.76 597.76c-35.84 0-64-28.16-64-64s28.16-64 64-64 64 28.16 64 64-28.16 64-64 64z m0-102.4c-21.76 0-38.4 16.64-38.4 38.4s16.64 38.4 38.4 38.4 38.4-16.64 38.4-38.4-17.92-38.4-38.4-38.4z" fill="#231C1C" /><path d="M552.96 533.76m-51.2 0a51.2 51.2 0 1 0 102.4 0 51.2 51.2 0 1 0-102.4 0Z" fill="#F2E5CA" /><path d="M552.96 597.76c-35.84 0-64-28.16-64-64s28.16-64 64-64 64 28.16 64 64-28.16 64-64 64z m0-102.4c-21.76 0-38.4 16.64-38.4 38.4s16.64 38.4 38.4 38.4 38.4-16.64 38.4-38.4-17.92-38.4-38.4-38.4z" fill="#231C1C" /><path d="M732.16 533.76m-51.2 0a51.2 51.2 0 1 0 102.4 0 51.2 51.2 0 1 0-102.4 0Z" fill="#F2E5CA" /><path d="M732.16 597.76c-35.84 0-64-28.16-64-64s28.16-64 64-64 64 28.16 64 64-28.16 64-64 64z m0-102.4c-21.76 0-38.4 16.64-38.4 38.4s16.64 38.4 38.4 38.4 38.4-16.64 38.4-38.4-17.92-38.4-38.4-38.4z" fill="#231C1C" /></svg>