<svg viewBox="0 0 1024 1024"><!-- two yellow lights --><path d="M166.016 204.992a76.8 75.712 0 1 0 153.6 0 76.8 75.712 0 1 0-153.6 0Z" fill="#E2C447" /><path d="M242.816 300.352a96 96 0 0 1-96.32-95.296 96 96 0 0 1 96.32-95.488c53.184 0 96.512 42.816 96.512 95.488a96 96 0 0 1-96.512 95.296z m0-151.424a56.64 56.64 0 0 0-57.024 56.128c0 30.784 25.536 56 57.024 56a56.768 56.768 0 0 0 57.216-56c0-30.976-25.6-56.128-57.216-56.128z" fill="#DF8C28" /><path d="M213.952 272.32h57.984v67.392h-57.984z" fill="#DF8C28" /><path d="M710.72 204.992a76.672 75.712 0 1 0 153.344 0 76.672 75.712 0 1 0-153.344 0Z" fill="#E2C447" /><path d="M787.392 300.352a96 96 0 0 1-96.448-95.296c0-52.672 43.264-95.488 96.448-95.488s96.384 42.816 96.384 95.488c0 52.544-43.2 95.296-96.384 95.296z m0-151.424a56.704 56.704 0 0 0-57.152 56.128c0 30.784 25.6 56 57.152 56a56.64 56.64 0 0 0 57.024-56 56.704 56.704 0 0 0-57.024-56.128z" fill="#DF8C28" /><path d="M758.4 272.32h57.984v67.392h-57.984z" fill="#DF8C28" /></svg>