<svg viewBox="0 0 1024 1024"><!-- two towers with red roof--><path d="M682.666667 341.333333h128v554.666667h-128zM213.333333 341.333333h128v554.666667h-128z" fill="#FFB74D" /><path d="M768 853.333333h-42.666667V640c0-12.8 8.533333-21.333333 21.333334-21.333333s21.333333 8.533333 21.333333 21.333333v213.333333zM298.666667 853.333333h-42.666667V640c0-12.8 8.533333-21.333333 21.333333-21.333333s21.333333 8.533333 21.333334 21.333333v213.333333zM768 533.333333h-42.666667v-128c0-12.8 8.533333-21.333333 21.333334-21.333333s21.333333 8.533333 21.333333 21.333333v128zM298.666667 533.333333h-42.666667v-128c0-12.8 8.533333-21.333333 21.333333-21.333333s21.333333 8.533333 21.333334 21.333333v128z" fill="#805A26" /><path d="M746.666667 85.333333l-64 256h128z" fill="#C62828" /><path d="M277.333333 85.333333l-64 256h128z" fill="#C62828" /></svg>