<svg viewBox="0 0 1024 1024"><!-- two number 0 --><path d="M768 362.666667h-106.666667l-42.666666-42.666667 42.666666-42.666667h106.666667l42.666667 42.666667zM768 746.666667h-106.666667l-42.666666-42.666667 42.666666-42.666667h106.666667l42.666667 42.666667zM789.333333 640V384l42.666667-42.666667 42.666667 42.666667v256l-42.666667 42.666667zM554.666667 640V384l42.666666-42.666667 42.666667 42.666667v256l-42.666667 42.666667zM362.666667 362.666667h-106.666667l-42.666667-42.666667 42.666667-42.666667h106.666667l42.666666 42.666667zM362.666667 746.666667h-106.666667l-42.666667-42.666667 42.666667-42.666667h106.666667l42.666666 42.666667zM384 640V384l42.666667-42.666667 42.666666 42.666667v256l-42.666666 42.666667zM149.333333 640V384l42.666667-42.666667 42.666667 42.666667v256l-42.666667 42.666667z" fill="#2962FF" /></svg>