<svg viewBox="0 0 1024 1024"><!-- two squares --><path d="M859 159.3c-15.4-12.3-35.5-19-56.7-19H363.6c-21.2 0-41.4 6.8-56.7 19-16.4 13.1-25.9 31.7-25.9 51v49h-75.9c-38.6 0-70 31.4-70 70v476.6c0 38.6 31.4 70 70 70H669c38.6 0 70-31.4 70-70v-49h63.3c21.2 0 41.4-6.8 56.7-19 16.4-13.1 25.9-31.7 25.9-51V210.3c0-19.3-9.5-37.9-25.9-51zM699 405.2H175.1v-75.9c0-16.5 13.5-30 30-30H669c16.5 0 30 13.5 30 30v75.9z m0 400.7c0 16.5-13.5 30-30 30H205.1c-16.5 0-30-13.5-30-30V425.2H699v380.7z m145.9-119c0 16.3-19.5 30-42.6 30H739V329.3c0-38.6-31.4-70-70-70H321v-49c0-16.3 19.5-30 42.6-30h438.7c23.1 0 42.6 13.7 42.6 30v476.6z" fill="#005BFF" /></svg>