<svg viewBox="0 0 1024 1024"><!-- two curved arrows --><path d="M784.74 810.05l17.06 17.05c-38.48-7.76-73.21-29.64-96.75-61.39 23.54-31.75 58.26-53.63 96.75-61.39l-16.56 16.55 38.69 38.69 86.32-86.3-86.87-86.87-38.69 38.69L807.6 648c-52.36 6.32-100.78 32-135.44 71.41C632 674.14 573.6 647.2 512.04 647.2h-40.89v54.73h40.89c50.18 0 97.53 24.07 127.32 63.78-29.79 39.71-77.13 63.78-127.32 63.78h-40.89v54.73h40.89c61.56 0 119.95-26.94 160.12-72.21 34.65 39.41 83.07 65.09 135.44 71.41l-23.89 23.89 38.7 38.69 87.85-87.85-86.81-86.8-38.71 38.7z" fill="#0F1F3C" /></svg>