<svg viewBox="0 0 1024 1024"><!-- two paper documents--><path d="M520.595517 372.190507h133.853553L520.595517 238.336954z" fill="#98C4D8" /><path d="M493.825012 372.190507V238.336954H226.117907v588.954197h428.331163V398.961012H493.825012zM681.219575 131.253908V265.10746h133.853553z" fill="#98C4D8" /><path d="M654.44907 265.10746V131.253908H386.741965v80.312541h144.939159l7.843985 7.840913 133.853553 133.853553 7.840913 7.842961V720.209129h133.853553V291.877966H654.44907z" fill="#98C4D8" /><path d="M493.825012 345.418977h133.852528l-133.852528-133.852528z" fill="#EFD9A0" /><path d="M467.054506 345.418977v-133.852528H199.347401v588.954197h428.330139V372.190507H467.054506zM654.44907 104.483402v133.853552h133.852528z" fill="#EFD9A0" /><path d="M627.67754 238.336954V104.483402H359.971459v80.311517h144.939159l7.843985 7.841938 133.853553 133.852528 7.840914 7.843986V693.437599h133.852528V265.10746H627.67754z" fill="#EFD9A0" /></svg>