<svg viewBox="0 0 1024 1024"><!-- two blue square --><path d="M493.726774 631.942788H275.104089c-11.376333 0-20.599644 9.223312-20.599644 20.599644v208.654486c0 11.377055 9.223312 20.600367 20.599644 20.600367h218.622685c11.376333 0 20.599644-9.223312 20.599645-20.600367V652.542432c0-11.377055-9.223312-20.599644-20.599645-20.599644zM748.895911 142.203437H530.273948c-11.376333 0-20.599644 9.222589-20.599644 20.599645v208.654486c0 11.377055 9.223312 20.599644 20.599644 20.599644h218.621963c11.377055 0 20.600367-9.222589 20.600366-20.599644V162.803082c-0.000722-11.377055-9.223312-20.599644-20.600366-20.599645z" fill="#609AEE" /></svg>