<svg viewBox="0 0 1024 1024"><!-- two purple curves --><path d="M815.916781 498.790397h-493.346071a22.378321 22.378321 0 1 1 0-44.756642h493.346071c63.078093 0 114.397977-51.319884 114.397977-114.404371 0-63.078093-51.319884-114.397977-114.397977-114.397977a22.378321 22.378321 0 1 1 0-44.756642c87.758184 0 159.154619 71.396435 159.154619 159.154619 0.003197 87.761381-71.393238 159.161013-159.154619 159.161013zM704.111492 954.051762a22.378321 22.378321 0 1 1 0-44.756642c63.078093 0 114.397977-51.319884 114.397977-114.401174 0-63.078093-51.319884-114.397977-114.397977-114.397976H210.762224a22.378321 22.378321 0 1 1 0-44.756642h493.346071c87.758184 0 159.154619 71.396435 159.154619 159.154618s-71.393238 159.157816-159.151422 159.157816z" fill="#4F46A3" /></svg>