<svg viewBox="0 0 1024 1024"><!-- white curve --><path d="M 408.842 577.536 c -5.33997 0 -9.70903 -4.36907 -9.70903 -9.70903 V 294.397 c 0 -5.33997 4.36907 -9.70903 9.70903 -9.70903 s 9.70903 4.36907 9.70903 9.70903 V 567.827 c 0 5.33997 -4.36907 9.70903 -9.70903 9.70903 Z M 430.08 218.909 c -1.21363 0 -2.54862 -0.242725 -3.76225 -0.728178 c -4.97588 -2.06317 -7.28178 -7.76723 -5.21861 -12.7431 c 9.95177 -24.0299 42.7198 -33.7389 44.1761 -34.1029 c 5.09725 -1.45635 10.5586 1.45635 12.0149 6.67497 c 1.45635 5.09725 -1.45635 10.5586 -6.67497 12.0149 c -7.03905 2.06317 -26.3358 10.1945 -31.5543 22.9376 c -1.57772 3.64089 -5.21861 5.94678 -8.98085 5.94678 Z" fill="#ffffff" /><path d="M 498.893 39.291 m -8.73813 0 a 8.73813 8.73813 0 1 0 17.4763 0 a 8.73813 8.73813 0 1 0 -17.4763 0 Z" fill="#ffffff" /></svg>