<svg viewBox="0 0 1024 1024"><!-- white polylines --><path d="M922.1 410.9v-25.7l-160 129.7v2.7l-244.3-74.8V309.1h-20v127.6l-262-80.2V222.2h-20v128.1l-113.7-34.8v20.9L335.8 408v112l-233.7-74.9v21l113.7 36.4v121.9L102.1 588v21l233.7 74.9v123.9l20 7V690.3l280 89.7v132.3l20 7V786.4l106.3 34.1v2.3l160-153.8v-28.6l-160 153.8v5.3l-244.3-78.3V599.3l244.3 78.3v1.4l160-141.8v-27.1l-160 141.8v4.8l-106.3-34.1V505.9l106.3 32.5v2.1l160-129.6zM497.8 714.8l-262-84V509l262 84v121.8z m138-98.6l-280-89.7V414.1l280 85.7v116.4z" fill="#FFFFFF" /></svg>