<svg viewBox="0 0 1024 1024"><!-- white and yellow calendar --><path d="M224.3 251.4h556.2c14.3 0 25.9 11.6 25.9 25.9v501.8c0 14.3-11.6 25.9-25.9 25.9H224.3c-14.3 0-25.9-11.6-25.9-25.9V277.3c0-14.3 11.6-25.9 25.9-25.9z" fill="#FFFFFF" /><path d="M780.5 830.8H224.3c-28.5 0-51.7-23.2-51.7-51.7V277.3c0-28.5 23.2-51.7 51.7-51.7h556.2c28.5 0 51.7 23.2 51.7 51.7v501.8c0 28.5-23.2 51.7-51.7 51.7zM224.3 277.3v501.8h556.2V277.3H224.3z" fill="#333333" /><path d="M327.7 166.8c14.3 0 25.9 11.6 25.9 25.9v38.8h-51.7v-38.8c0-14.4 11.6-25.9 25.8-25.9zM664.1 166.8c14.3 0 25.9 11.6 25.9 25.9v38.8h-51.7v-38.8c-0.1-14.4 11.5-25.9 25.8-25.9z" fill="#333333" /><path d="M224.3 277h568.5v152.1H224.3z" fill="#FFDB5B" /><path d="M198.4 399.5h633.8v51.8H198.4z" fill="#333333" /></svg>