<svg viewBox="0 0 1024 1024"><!-- white square --><path d="M32 32h960v960H32z" fill="#FFFFFF" /><!-- black square border --><path d="M0 0v1024h1024V0H0z m992 992H32V32h960v960z" fill="" /><!-- yellow square --><path d="M96 96h832v832H96z" fill="#FAD97F" /><!-- red check mark border --><path d="M705.6 299.2l-264 312-131.2-115.2-52.8 60.8 192 168 316.8-374.4z" fill="#F2385A" /><!-- black check mark border --><path d="M700.8 254.4L438.4 564.8l-131.2-113.6-94.4 108.8 241.6 211.2 358.4-424-112-92.8zM257.6 556.8l52.8-60.8 131.2 115.2 264-312 60.8 51.2-316.8 374.4-192-168z" fill="" /></svg>