<svg viewBox="0 0 1024 1024"><!-- white ball --><path d="M316.26752 504.51456m-115.16928 0a115.16928 115.16928 0 1 0 230.33856 0 115.16928 115.16928 0 1 0-230.33856 0Z" fill="#ECF3FE" /><path d="M316.26752 629.02272c-68.65408 0-124.51328-55.84384-124.51328-124.50816S247.61344 380.0064 316.26752 380.0064 440.7808 435.85536 440.7808 504.51968s-55.8592 124.50304-124.51328 124.50304z m0-230.33856c-58.35264 0-105.82528 47.47776-105.82528 105.8304s47.47264 105.8304 105.82528 105.8304 105.82528-47.47776 105.82528-105.8304-47.47264-105.8304-105.82528-105.8304z" fill="#6C0000" /><path d="M351.01696 410.45504c32.76288 16.78848 46.63296 56.04352 42.27072 95.15008-9.5232 85.34016-110.50496 94.54592-120.6272 91.15136a100.90496 100.90496 0 0 0 46.13632 11.12064c55.97184 0 101.34016-45.37344 101.34016-101.34016 0-44.70272-28.9536-82.61632-69.12-96.08192z" fill="#BED5E9" /></svg>