<svg viewBox="0 0 1024 1024"><!-- white and gray speech bubble --><path d="M321.6 267.9h508.9c14.3 0 25.9 11.6 25.9 25.9v399c0 14.3-11.6 25.9-25.9 25.9h-177L584 785.5l-72.2-66.8H321.5c-14.3 0-25.9-11.6-25.9-25.9v-399c0.1-14.3 11.7-25.9 26-25.9z" fill="#FFFFFF" /><path d="M584.4 821.1l-82.6-76.5H321.6c-28.5 0-51.8-23.2-51.8-51.8v-399c0-28.5 23.2-51.8 51.8-51.8h508.9c28.5 0 51.8 23.2 51.8 51.8v399c0 28.5-23.2 51.8-51.8 51.8H663.9l-79.5 76.5zM321.6 293.8v399H522l61.7 57.1 59.4-57.1h187.4v-399H321.6z" fill="#333333" /></svg>