<svg viewBox="0 0 1024 1024"><!-- word v --><path d="M551.68 508.924l-44.145-144.35c-11.374-37.204-40.042-58.634-64.029-47.866l-3.101 1.391c-23.982 10.766-34.205 49.657-22.827 86.862l44.14 144.351c11.378 37.206 40.046 58.632 64.035 47.864l3.101-1.387c23.982-10.769 34.203-49.659 22.826-86.865z" fill="#F39A2B" /><path d="M586.717 321.32l-3.052-1.591c-23.593-12.302-52.354 7.566-64.235 44.386l-46.095 142.859c-11.882 36.821-2.387 76.642 21.204 88.948l3.052 1.59c23.593 12.306 52.354-7.566 64.231-44.386l46.097-142.858c11.883-36.82 2.388-76.642-21.202-88.948z" fill="#F0D043" /></svg>