<svg viewBox="0 0 1024 1024"><!-- yellow and brown ring --><path d="M514.11968 18.97984c-273.66912 0-495.52384 221.85472-495.52384 495.52384 0 273.66912 221.85472 495.52384 495.52384 495.52384s495.52384-221.85472 495.52384-495.52384c0-273.67424-221.8496-495.52384-495.52384-495.52384z m0 741.44256c-135.81824 0-245.92384-110.10048-245.92384-245.91872 0-135.81824 110.1056-245.92384 245.92384-245.92384s245.92384 110.10048 245.92384 245.92384c0 135.81824-110.1056 245.91872-245.92384 245.91872z" fill="#F4C692" /><path d="M514.11968 18.97984v249.6c135.81824 0 245.92384 110.10048 245.92384 245.92384 0 135.81824-110.1056 245.91872-245.92384 245.91872v249.6c273.66912 0 495.52384-221.85472 495.52384-495.52384 0-273.66912-221.8496-495.51872-495.52384-495.51872z" fill="#8D3F07" /></svg>