<svg viewBox="0 0 1024 1024"><!-- yellow lines in a circle --><path d="M512 512m-480 0a480 480 0 1 0 960 0 480 480 0 1 0-960 0Z" fill="#FFF0C2" /><path d="M371.2 704c0-12.8 12.8-25.6 25.6-25.6h384c12.8 0 25.6 12.8 25.6 25.6v44.8c0 12.8-12.8 25.6-25.6 25.6h-384c-12.8 0-25.6-12.8-25.6-25.6V704zM371.2 563.2c0-12.8 12.8-25.6 25.6-25.6h384c12.8 0 25.6 12.8 25.6 25.6v44.8c0 12.8-12.8 25.6-25.6 25.6h-384c-12.8 0-25.6-12.8-25.6-25.6v-44.8zM416 416c0-12.8 12.8-25.6 25.6-25.6h384c12.8 0 25.6 12.8 25.6 25.6v44.8c0 12.8-12.8 25.6-25.6 25.6h-384c-12.8 0-25.6-12.8-25.6-25.6v-44.8zM320 275.2c0-19.2 12.8-25.6 25.6-25.6h384c12.8 0 25.6 12.8 25.6 25.6V320c0 12.8-12.8 25.6-25.6 25.6h-384c-12.8 0-25.6-12.8-25.6-25.6v-44.8z" fill="#FFE085" /></svg>