<svg viewBox="0 0 1024 1024"><!-- yellow gift box --><path d="M832 895.6H194.4c-18.2 0-33-14.8-33-33v-565H865v565.1c0 18.2-14.7 32.9-33 32.9z" fill="#FFE085" /><path d="M895.3 578.1H131.2v-249c0-17.3 14-31.4 31.4-31.4h701.3c17.3 0 31.4 14 31.4 31.4v249z" fill="#FFF0C2" /><path d="M448.1 297.8h128v596.4h-128z" fill="#FF8882" /><path d="M231.6 99.1s167.2-14.2 211.1 70.5S513 310.1 513 310.1s-129.7 35.4-203.4-17.4-78-193.6-78-193.6zM794.4 99.1s-167.2-14.2-211.1 70.5S513 310.2 513 310.2s129.7 35.4 203.4-17.4 78-193.7 78-193.7z" fill="#FF8882" /></svg>