<svg viewBox="0 0 1024 1024"><!-- yellow directional signs on a pole--><path d="M599.488 126.016c0-42.24-34.56-76.8-76.8-76.8s-76.8 34.56-76.8 76.8v772.032c0 42.24 34.56 76.736 76.8 76.736s76.8-34.496 76.8-76.736v-92.736h-0.96c0.384-1.6 1.024-3.136 1.024-4.864a22.4 22.4 0 0 0-44.864 0c0 1.728 0.64 3.264 0.96 4.864h-0.96V714.688h0.64c-0.128 1.152-0.64 2.112-0.64 3.328a22.4 22.4 0 1 0 44.864 0c0-1.216-0.512-2.176-0.704-3.328h0.704V126.016z" fill="" /><path d="M522.688 930.048a32 32 0 0 1-32-32V126.016a32 32 0 0 1 64 0v772.032a32 32 0 0 1-32 32z" fill="#977327" /><path d="M926.144 558.336a33.6 33.6 0 0 0-14.72-27.328v-0.32l-114.368-89.408H244.416a22.528 22.528 0 0 0-22.4 22.4V652.8c0 12.352 10.112 22.4 22.4 22.4h552.576v-0.512l114.368-88.576V585.6a33.28 33.28 0 0 0 14.784-27.264z" fill="" /><path d="M266.816 630.464V486.08h514.752l92.224 72.128-92.864 72.256z" fill="#FFAE1F" /><path d="M379.008 518.272h78.912v78.976H379.008zM496.256 518.272h78.912v78.976H496.256zM613.568 518.272h78.912v78.976H613.568z" fill="#E59A20" /></svg>