<svg viewBox="0 0 1024 1024"><!-- yellow box with lid --><path d="M186.710608 206.67842v182.951925H813.973475V206.67842zM238.983026 415.766042h-26.135697v392.039548h574.991473V415.766042H238.983026z m182.951925 78.381493h156.816229c14.419377 0 26.135697 11.714272 26.135697 26.135697 0 14.419377-11.71632 26.135697-26.135697 26.135697H421.934951c-14.421425 0-26.135697-11.71632-26.135697-26.135697-0.001024-14.421425 11.713248-26.135697 26.135697-26.135697z" fill="#EFD9A0" /><path d="M310.115615 382.960849a23.513526 49.966628 55.515 1 0 82.372429-56.581256 23.513526 49.966628 55.515 1 0-82.372429 56.581256Z" fill="#FEFEFE" /><path d="M259.622957 465.189102a15.675684 27.43296 55.515 1 0 45.224575-31.06456 15.675684 27.43296 55.515 1 0-45.224575 31.06456Z" fill="#FEFEFE" /></svg>