<svg viewBox="0 0 1024 1024"><!-- yellow beer --><path d="M800 768h-170.666667a32 32 0 0 1-32-32v-298.666667a32 32 0 0 1 32-32h256a32 32 0 0 1 32 32v213.333334c0 64.704-52.650667 117.333333-117.333333 117.333333zM661.333333 704h138.666667c29.418667 0 53.333333-23.936 53.333333-53.333333V469.333333h-192v234.666667z" fill="#D1B43D" /><path d="M128 384v533.333333a85.333333 85.333333 0 0 0 85.333333 85.333334h469.333334a85.333333 85.333333 0 0 0 85.333333-85.333334V384H128z" fill="#EFD358" /><path d="M448 832a21.333333 21.333333 0 0 1-21.333333-21.333333V533.333333a21.333333 21.333333 0 1 1 42.666666 0v277.333334a21.333333 21.333333 0 0 1-21.333333 21.333333zM298.666667 832a21.333333 21.333333 0 0 1-21.333334-21.333333V533.333333a21.333333 21.333333 0 1 1 42.666667 0v277.333334a21.333333 21.333333 0 0 1-21.333333 21.333333zM597.333333 832a21.333333 21.333333 0 0 1-21.333333-21.333333V533.333333a21.333333 21.333333 0 1 1 42.666667 0v277.333334a21.333333 21.333333 0 0 1-21.333334 21.333333z" fill="#D1B43D" /></svg>