<svg viewBox="0 0 1024 1024"><!-- yellow fish --><path d="M759.13216 550.53824c-30.91456-49.0752-85.23264-81.92-147.52256-81.92-66.28864 0-123.85792 36.992-153.44128 91.39712h-1.46944c29.42976 54.92224 87.33696 92.30336 154.0096 92.30336 63.13984 0 118.0672-33.76128 148.74112-83.96288a113.4592 113.4592 0 0 0 75.68896 48.37888v-116.0192c-31.81056 5.34016-59.02336 23.8848-76.0064 49.82272z" fill="#FCE38A" /><path d="M399.05792 452.89984m-26.19392 0a26.19392 26.19392 0 1 0 52.38784 0 26.19392 26.19392 0 1 0-52.38784 0Z" fill="#FFFFFF" /><path d="M298.47552 352.31744m-47.15008 0a47.15008 47.15008 0 1 0 94.30016 0 47.15008 47.15008 0 1 0-94.30016 0Z" fill="#FFFFFF" /><path d="M527.2832 547.71712l7.50592-12.99968c7.81312 4.70016 19.36384 8.90368 28.76928 8.90368 9.45664 0 21.33504-4.39296 29.17888-9.14432l7.2192 13.1584c-10.69056 7.03488-23.12192 11.08992-36.4032 11.08992-13.22496-0.00512-25.61024-4.02432-36.27008-11.008z" fill="#5B5144" /></svg>