<svg viewBox="0 0 1024 1024"><!-- yellow ring --><path d="M 511.147 961.813 c -50.4533 0 -99.3066 -9.91997 -145.387 -29.3333 c -44.48 -18.7733 -84.3733 -45.76 -118.72 -80 c -34.24 -34.24 -61.2267 -74.24 -80 -118.72 c -19.52 -46.08 -29.3333 -94.9331 -29.3333 -145.387 c 0 -50.4533 9.91997 -99.3066 29.3333 -145.387 c 18.7733 -44.48 45.76 -84.3733 80 -118.72 c 34.24 -34.24 74.24 -61.2267 118.72 -80 c 46.08 -19.52 94.9331 -29.3333 145.387 -29.3333 c 50.4533 0 99.3066 9.91997 145.387 29.3333 c 44.48 18.7733 84.3733 45.76 118.72 80 c 34.24 34.24 61.2267 74.24 80 118.72 c 19.52 46.08 29.3333 94.9331 29.3333 145.387 c 0 50.4533 -9.91997 99.3066 -29.3333 145.387 c -18.7733 44.48 -45.76 84.3733 -80 118.72 c -34.24 34.24 -74.24 61.2267 -118.72 80 c -46.08 19.4133 -94.9331 29.3333 -145.387 29.3333 Z m 0 -682.667 c -170.453 0 -309.227 138.667 -309.227 309.227 s 138.667 309.227 309.227 309.227 s 309.227 -138.667 309.227 -309.227 s -138.667 -309.227 -309.227 -309.227 Z" fill="#ffd778" /></svg>