<svg viewBox="0 0 1024 1024"><!-- yellow lines on the left --><path d="M0 576h533.333333v85.333333H0zM0 362.666667h533.333333v85.333333H0z" fill="#FF9800" /><!-- blue bottle --><path d="M981.333333 746.666667c23.466667 0 42.666667-19.2 42.666667-42.666667V320c0-23.466667-19.2-42.666667-42.666667-42.666667H576v469.333334h405.333333zM448 277.333333c-23.466667 0-42.666667 19.2-42.666667 42.666667v384c0 23.466667 19.2 42.666667 42.666667 42.666667h42.666667V277.333333h-42.666667z" fill="#3F51B5" /><path d="M533.333333 704c23.466667 0 42.666667 19.2 42.666667 42.666667V277.333333c0 23.466667-19.2 42.666667-42.666667 42.666667s-42.666667-19.2-42.666666-42.666667v469.333334c0-23.466667 19.2-42.666667 42.666666-42.666667z" fill="#303F9F" /></svg>