<svg viewBox="0 0 1024 1024"><!-- yellow stars --><path d="M845 166l-49-13 49-13 13-48 13 48 48 13-48 13-13 49-13-49zM892 219l-18-4 18-5 5-19 4 19 19 5-19 4-4 19-5-19z" fill="#FDCD60" /><path d="M79 711l-20-5 20-5 5-20 5 20 21 5-21 5-5 21-5-21zM148 862l-33-8 33-7 7-33 8 33 33 7-33 8-8 33-7-33z" fill="#FDCD60" /><path d="M143 169m-9 0a9 9 0 1 0 18 0 9 9 0 1 0-18 0Z" fill="#5546CB" /><path d="M889 854a25 25 0 1 1 25-25 25 25 0 0 1-25 25z m0-36a10 10 0 1 0 10 10 10 10 0 0 0-10-10z" fill="#5546CB" /></svg>