<svg viewBox="0 0 1024 1024"><!-- yellow cloud --><path d="M991.608 398.368c0-80.704-65.44-146.144-146.144-146.144l-0.68 0.712c0-80.736-65.472-146.144-146.144-146.144l-2.44-2.92C665.816 52.112 596.352 16 515.552 16c-70.176 0-131.848 27.376-166.76 68.52a139.856 139.856 0 0 0-14.936 21.336l-1.272 0.944c-80.696 0-146.144 65.408-146.144 146.144l-0.024-0.72c-80.704 0-146.144 65.44-146.144 146.144" fill="#FFC033" /><path d="M991.608 398.368c0-57.088-65.44-103.336-146.144-103.336l-0.68 0.52c0-57.128-65.472-103.336-146.144-103.336l-2.44-2.08c-30.4-36.6-99.856-62.16-180.664-62.16-70.176 0-131.848 19.352-166.76 48.456-5.712 4.776-10.72 9.84-14.936 15.104l-1.272 0.68c-80.696 0-146.144 46.216-146.144 103.336L186.416 295.032c-80.704 0-146.144 46.248-146.144 103.336" fill="#FFA836" /></svg>