<svg viewBox="0 0 1024 1024"><!-- yellow gift box --><path d="M889 471.8v87.7c0 9.7-7.9 17.4-17.4 17.4H132.5c-9.6 0-17.3-7.7-17.3-17.4v-87.7c0-9.6 7.7-17.4 17.3-17.4h739.1c9.5 0 17.4 7.8 17.4 17.4z" fill="#FFD96E" /><path d="M831.1 582.9h12.1v6h-12.1z" fill="#CC9212" /><path d="M831.1 588.9v176.9c0 16.6-13.7 30.2-30.2 30.2H203.3c-16.7 0-30.2-13.7-30.2-30.2V588.9h658z" fill="#FCBB02" /><path d="M556.4 442.3l-14.8 2.7v-2.7z" fill="#CC9212" /><path d="M462.5 445l-14.7-2.7h14.7z" fill="#CC9212" /><path d="M203.3 808.1c-23.3 0-42.3-19.1-42.3-42.3V588.9h12.1v176.9c0 16.6 13.5 30.2 30.2 30.2h597.5c16.6 0 30.2-13.7 30.2-30.2V588.9h12.1v176.9c0 23.2-19 42.3-42.3 42.3H203.3zM161 582.9h12.1v6H161z" fill="#CC9212" /><path d="M132.5 454.4c-9.6 0-17.3 7.9-17.3 17.4v87.7c0 9.7 7.7 17.4 17.3 17.4h739.1c9.6 0 17.4-7.7 17.4-17.4v-87.7c0-9.6-7.9-17.4-17.4-17.4H132.5z m-29.4 17.4c0-16.2 13.2-29.5 29.4-29.5h315.3l14.8 2.8v-2.8h79.1v2.8l14.8-2.8h315.2c16.2 0 29.5 13.3 29.5 29.5v87.7c0 16.3-13.3 29.5-29.5 29.5h-28.4v-6h-12.1v6h-658v-6H161v6h-28.5c-16.2 0-29.4-13.2-29.4-29.5v-87.7z" fill="#CC9212" /></svg>