<svg viewBox="0 0 1024 1024"><!-- yen symbol --><path d="M438.87 293.7v43.89h51.19v14.89h-49.57v43.9h49.57v47.74h43.89v-47.74h49.56v-43.9h-49.56v-14.89h51.2V293.7h-25.73l35.12-35.13-31.03-31.03-51.5 51.5-51.52-51.5-31.04 31.03 35.14 35.13zM512 548.57c121.19 0 219.43-98.24 219.43-219.43S633.19 109.71 512 109.71c-121.19 0-219.43 98.24-219.43 219.43S390.81 548.57 512 548.57z m0-365.71c80.66 0 146.29 65.62 146.29 146.29S592.66 475.43 512 475.43s-146.29-65.62-146.29-146.29S431.34 182.86 512 182.86z" fill="#0F1F3C" /></svg>